%TF.GenerationSoftware,KiCad,Pcbnew,9.0.8+dfsg-1*%
%TF.CreationDate,2026-09-29T16:28:53+00:00*%
%TF.ProjectId,MachineJDG2025_MEGA2560_Shield_v2,4d616368-696e-4654-9a44-47323032355f,rev?*%
%TF.SameCoordinates,Original*%
%TF.FileFunction,Soldermask,Bot*%
%TF.FilePolarity,Negative*%
%FSLAX46Y46*%
G04 Gerber Fmt 4.6, Leading zero omitted, Abs format (unit mm)*
G04 Created by KiCad (PCBNEW 9.0.8+dfsg-1) date 2026-09-29 16:28:53*
%MOMM*%
%LPD*%
G01*
G04 APERTURE LIST*
%ADD10C,1.676400*%
%ADD11C,1.950000*%
%ADD12R,1.700000X1.700000*%
%ADD13C,1.700000*%
%ADD14C,2.780000*%
G04 APERTURE END LIST*
D10*
%TO.C,U1*%
X12567000Y51500000D03*
X12567000Y54040000D03*
X10027000Y51500000D03*
X10027000Y54040000D03*
X17647000Y87060000D03*
X17647000Y84520000D03*
X20187000Y87060000D03*
X20187000Y84520000D03*
X22727000Y87060000D03*
X22727000Y84520000D03*
X25267000Y87060000D03*
X25267000Y84520000D03*
X27807000Y87060000D03*
X27807000Y84520000D03*
X30347000Y87060000D03*
X30347000Y84520000D03*
X32887000Y87060000D03*
X32887000Y84520000D03*
X35427000Y87060000D03*
X35427000Y84520000D03*
X15107000Y54040000D03*
X20187000Y54040000D03*
X20187000Y51500000D03*
X22727000Y54040000D03*
X22727000Y51500000D03*
X25267000Y54040000D03*
X25267000Y51500000D03*
X27807000Y54040000D03*
X27807000Y51500000D03*
X30347000Y54040000D03*
X30347000Y51500000D03*
X32887000Y54040000D03*
X32887000Y51500000D03*
X35427000Y54040000D03*
X35427000Y51500000D03*
X37967000Y54040000D03*
X37967000Y51500000D03*
X40507000Y54040000D03*
X40507000Y51500000D03*
X43047000Y54040000D03*
X43047000Y51500000D03*
X45587000Y54040000D03*
X45587000Y51500000D03*
X48127000Y54040000D03*
X48127000Y51500000D03*
X50667000Y54040000D03*
X50667000Y51500000D03*
X53207000Y54040000D03*
X53207000Y51500000D03*
X55747000Y54040000D03*
X55747000Y51500000D03*
X37967000Y87060000D03*
X37967000Y84520000D03*
X40507000Y87060000D03*
X40507000Y84520000D03*
X43047000Y87060000D03*
X43047000Y84520000D03*
X45587000Y87060000D03*
X45587000Y84520000D03*
X48127000Y87060000D03*
X48127000Y84520000D03*
X50667000Y87060000D03*
X50667000Y84520000D03*
X53207000Y87060000D03*
X53207000Y84520000D03*
X55747000Y87060000D03*
X55747000Y84520000D03*
X55747000Y81980000D03*
X53207000Y81980000D03*
X55747000Y79440000D03*
X53207000Y79440000D03*
X55747000Y76900000D03*
X53207000Y76900000D03*
X7487000Y51500000D03*
X7487000Y54040000D03*
X15107000Y51500000D03*
X17647000Y54040000D03*
X17647000Y51500000D03*
X4947000Y51500000D03*
X4947000Y54040000D03*
%TD*%
D11*
%TO.C,J2*%
X11047000Y12600000D03*
X11047000Y16100000D03*
%TD*%
%TO.C,J3*%
X11047000Y5600000D03*
X11047000Y9100000D03*
%TD*%
D12*
%TO.C,S3*%
X68527000Y33000000D03*
D13*
X65987000Y33000000D03*
X63447000Y33000000D03*
%TD*%
D12*
%TO.C,S4*%
X68527000Y27500000D03*
D13*
X65987000Y27500000D03*
X63447000Y27500000D03*
%TD*%
D11*
%TO.C,J9*%
X62547000Y9100000D03*
X62547000Y5600000D03*
%TD*%
D14*
%TO.C,F1*%
X36647000Y13300000D03*
X36647000Y16700000D03*
X26727000Y13300000D03*
X26727000Y16700000D03*
%TD*%
D11*
%TO.C,J5*%
X54947000Y7500000D03*
X51447000Y7500000D03*
%TD*%
D12*
%TO.C,S2*%
X68527000Y39000000D03*
D13*
X65987000Y39000000D03*
X63447000Y39000000D03*
%TD*%
D11*
%TO.C,J1*%
X38447000Y7500000D03*
X34947000Y7500000D03*
%TD*%
D12*
%TO.C,S1*%
X68527000Y45000000D03*
D13*
X65987000Y45000000D03*
X63447000Y45000000D03*
%TD*%
D12*
%TO.C,J6*%
X59947000Y70460000D03*
D13*
X59947000Y73000000D03*
X59947000Y75540000D03*
%TD*%
D11*
%TO.C,J11*%
X21447000Y7500000D03*
X17947000Y7500000D03*
%TD*%
%TO.C,J4*%
X47947000Y7500000D03*
X44447000Y7500000D03*
%TD*%
%TO.C,J8*%
X62547000Y16100000D03*
X62547000Y12600000D03*
%TD*%
%TO.C,J10*%
X28447000Y7500000D03*
X24947000Y7500000D03*
%TD*%
M02*
