%TF.GenerationSoftware,KiCad,Pcbnew,9.0.8+dfsg-1*%
%TF.CreationDate,2026-09-29T16:28:53+00:00*%
%TF.ProjectId,MachineJDG2025_MEGA2560_Shield_v2,4d616368-696e-4654-9a44-47323032355f,rev?*%
%TF.SameCoordinates,Original*%
%TF.FileFunction,Legend,Top*%
%TF.FilePolarity,Positive*%
%FSLAX46Y46*%
G04 Gerber Fmt 4.6, Leading zero omitted, Abs format (unit mm)*
G04 Created by KiCad (PCBNEW 9.0.8+dfsg-1) date 2026-09-29 16:28:53*
%MOMM*%
%LPD*%
G01*
G04 APERTURE LIST*
G04 Aperture macros list*
%AMRoundRect*
0 Rectangle with rounded corners*
0 $1 Rounding radius*
0 $2 $3 $4 $5 $6 $7 $8 $9 X,Y pos of 4 corners*
0 Add a 4 corners polygon primitive as box body*
4,1,4,$2,$3,$4,$5,$6,$7,$8,$9,$2,$3,0*
0 Add four circle primitives for the rounded corners*
1,1,$1+$1,$2,$3*
1,1,$1+$1,$4,$5*
1,1,$1+$1,$6,$7*
1,1,$1+$1,$8,$9*
0 Add four rect primitives between the rounded corners*
20,1,$1+$1,$2,$3,$4,$5,0*
20,1,$1+$1,$4,$5,$6,$7,0*
20,1,$1+$1,$6,$7,$8,$9,0*
20,1,$1+$1,$8,$9,$2,$3,0*%
G04 Aperture macros list end*
%ADD10C,0.180000*%
%ADD11C,0.300000*%
%ADD12C,0.150000*%
%ADD13C,0.120000*%
%ADD14C,0.127000*%
%ADD15C,0.200000*%
%ADD16C,0.400000*%
%ADD17RoundRect,0.250000X0.450000X-0.262500X0.450000X0.262500X-0.450000X0.262500X-0.450000X-0.262500X0*%
%ADD18RoundRect,0.250000X-0.262500X-0.450000X0.262500X-0.450000X0.262500X0.450000X-0.262500X0.450000X0*%
%ADD19RoundRect,0.250000X-0.325000X-0.650000X0.325000X-0.650000X0.325000X0.650000X-0.325000X0.650000X0*%
%ADD20RoundRect,0.150000X-0.587500X-0.150000X0.587500X-0.150000X0.587500X0.150000X-0.587500X0.150000X0*%
%ADD21C,1.676400*%
%ADD22RoundRect,0.250000X0.262500X0.450000X-0.262500X0.450000X-0.262500X-0.450000X0.262500X-0.450000X0*%
%ADD23C,1.950000*%
%ADD24R,1.700000X1.700000*%
%ADD25C,1.700000*%
%ADD26RoundRect,0.250000X0.325000X1.100000X-0.325000X1.100000X-0.325000X-1.100000X0.325000X-1.100000X0*%
%ADD27RoundRect,0.150000X-0.512500X-0.150000X0.512500X-0.150000X0.512500X0.150000X-0.512500X0.150000X0*%
%ADD28R,2.350000X5.100000*%
%ADD29C,2.780000*%
%ADD30RoundRect,0.243750X-0.243750X-0.456250X0.243750X-0.456250X0.243750X0.456250X-0.243750X0.456250X0*%
%ADD31RoundRect,0.250000X0.250000X0.475000X-0.250000X0.475000X-0.250000X-0.475000X0.250000X-0.475000X0*%
%ADD32RoundRect,0.243750X0.456250X-0.243750X0.456250X0.243750X-0.456250X0.243750X-0.456250X-0.243750X0*%
%ADD33RoundRect,0.250000X-0.250000X-0.475000X0.250000X-0.475000X0.250000X0.475000X-0.250000X0.475000X0*%
%ADD34RoundRect,0.250000X1.000000X-1.950000X1.000000X1.950000X-1.000000X1.950000X-1.000000X-1.950000X0*%
%ADD35RoundRect,0.250000X-0.450000X0.262500X-0.450000X-0.262500X0.450000X-0.262500X0.450000X0.262500X0*%
%ADD36RoundRect,0.250000X-1.400000X-1.000000X1.400000X-1.000000X1.400000X1.000000X-1.400000X1.000000X0*%
%ADD37RoundRect,0.250000X1.400000X1.000000X-1.400000X1.000000X-1.400000X-1.000000X1.400000X-1.000000X0*%
%ADD38RoundRect,0.200000X-0.200000X2.100000X-0.200000X-2.100000X0.200000X-2.100000X0.200000X2.100000X0*%
%ADD39RoundRect,0.250002X-5.149998X4.449998X-5.149998X-4.449998X5.149998X-4.449998X5.149998X4.449998X0*%
%ADD40RoundRect,0.250000X0.475000X-0.250000X0.475000X0.250000X-0.475000X0.250000X-0.475000X-0.250000X0*%
%ADD41RoundRect,0.250000X-0.475000X0.250000X-0.475000X-0.250000X0.475000X-0.250000X0.475000X0.250000X0*%
%ADD42RoundRect,0.250000X1.000000X0.650000X-1.000000X0.650000X-1.000000X-0.650000X1.000000X-0.650000X0*%
%ADD43RoundRect,0.250000X-0.325000X-1.100000X0.325000X-1.100000X0.325000X1.100000X-0.325000X1.100000X0*%
%ADD44R,3.500000X3.550000*%
%ADD45RoundRect,0.250000X0.800000X-0.450000X0.800000X0.450000X-0.800000X0.450000X-0.800000X-0.450000X0*%
%ADD46RoundRect,0.250000X0.550000X-1.500000X0.550000X1.500000X-0.550000X1.500000X-0.550000X-1.500000X0*%
G04 APERTURE END LIST*
D10*
X34392237Y658313D02*
X34506523Y620218D01*
X34506523Y620218D02*
X34544618Y582122D01*
X34544618Y582122D02*
X34582714Y505932D01*
X34582714Y505932D02*
X34582714Y391646D01*
X34582714Y391646D02*
X34544618Y315456D01*
X34544618Y315456D02*
X34506523Y277360D01*
X34506523Y277360D02*
X34430333Y239265D01*
X34430333Y239265D02*
X34125571Y239265D01*
X34125571Y239265D02*
X34125571Y1039265D01*
X34125571Y1039265D02*
X34392237Y1039265D01*
X34392237Y1039265D02*
X34468428Y1001170D01*
X34468428Y1001170D02*
X34506523Y963075D01*
X34506523Y963075D02*
X34544618Y886884D01*
X34544618Y886884D02*
X34544618Y810694D01*
X34544618Y810694D02*
X34506523Y734503D01*
X34506523Y734503D02*
X34468428Y696408D01*
X34468428Y696408D02*
X34392237Y658313D01*
X34392237Y658313D02*
X34125571Y658313D01*
X34887475Y467837D02*
X35268428Y467837D01*
X34811285Y239265D02*
X35077952Y1039265D01*
X35077952Y1039265D02*
X35344618Y239265D01*
X35496999Y1039265D02*
X35954142Y1039265D01*
X35725570Y239265D02*
X35725570Y1039265D01*
X36106523Y1039265D02*
X36563666Y1039265D01*
X36335094Y239265D02*
X36335094Y1039265D01*
X37858904Y239265D02*
X37401761Y239265D01*
X37630333Y239265D02*
X37630333Y1039265D01*
X37630333Y1039265D02*
X37554142Y924980D01*
X37554142Y924980D02*
X37477952Y848789D01*
X37477952Y848789D02*
X37401761Y810694D01*
X38163666Y963075D02*
X38201762Y1001170D01*
X38201762Y1001170D02*
X38277952Y1039265D01*
X38277952Y1039265D02*
X38468428Y1039265D01*
X38468428Y1039265D02*
X38544619Y1001170D01*
X38544619Y1001170D02*
X38582714Y963075D01*
X38582714Y963075D02*
X38620809Y886884D01*
X38620809Y886884D02*
X38620809Y810694D01*
X38620809Y810694D02*
X38582714Y696408D01*
X38582714Y696408D02*
X38125571Y239265D01*
X38125571Y239265D02*
X38620809Y239265D01*
X38849381Y1039265D02*
X39116048Y239265D01*
X39116048Y239265D02*
X39382714Y1039265D01*
X63508904Y24727360D02*
X63623190Y24689265D01*
X63623190Y24689265D02*
X63813666Y24689265D01*
X63813666Y24689265D02*
X63889857Y24727360D01*
X63889857Y24727360D02*
X63927952Y24765456D01*
X63927952Y24765456D02*
X63966047Y24841646D01*
X63966047Y24841646D02*
X63966047Y24917837D01*
X63966047Y24917837D02*
X63927952Y24994027D01*
X63927952Y24994027D02*
X63889857Y25032122D01*
X63889857Y25032122D02*
X63813666Y25070218D01*
X63813666Y25070218D02*
X63661285Y25108313D01*
X63661285Y25108313D02*
X63585095Y25146408D01*
X63585095Y25146408D02*
X63547000Y25184503D01*
X63547000Y25184503D02*
X63508904Y25260694D01*
X63508904Y25260694D02*
X63508904Y25336884D01*
X63508904Y25336884D02*
X63547000Y25413075D01*
X63547000Y25413075D02*
X63585095Y25451170D01*
X63585095Y25451170D02*
X63661285Y25489265D01*
X63661285Y25489265D02*
X63851762Y25489265D01*
X63851762Y25489265D02*
X63966047Y25451170D01*
X65527953Y24994027D02*
X66137477Y24994027D01*
X65832715Y24689265D02*
X65832715Y25298789D01*
X67737477Y24994027D02*
X68347001Y24994027D01*
X8875571Y25593003D02*
X8446999Y25593003D01*
X8446999Y25593003D02*
X8404142Y25164432D01*
X8404142Y25164432D02*
X8446999Y25207289D01*
X8446999Y25207289D02*
X8532714Y25250146D01*
X8532714Y25250146D02*
X8746999Y25250146D01*
X8746999Y25250146D02*
X8832714Y25207289D01*
X8832714Y25207289D02*
X8875571Y25164432D01*
X8875571Y25164432D02*
X8918428Y25078718D01*
X8918428Y25078718D02*
X8918428Y24864432D01*
X8918428Y24864432D02*
X8875571Y24778718D01*
X8875571Y24778718D02*
X8832714Y24735860D01*
X8832714Y24735860D02*
X8746999Y24693003D01*
X8746999Y24693003D02*
X8532714Y24693003D01*
X8532714Y24693003D02*
X8446999Y24735860D01*
X8446999Y24735860D02*
X8404142Y24778718D01*
X9175571Y25593003D02*
X9475571Y24693003D01*
X9475571Y24693003D02*
X9775571Y25593003D01*
X27954142Y19764432D02*
X27654142Y19764432D01*
X27654142Y19293003D02*
X27654142Y20193003D01*
X27654142Y20193003D02*
X28082714Y20193003D01*
X28425571Y20193003D02*
X28425571Y19464432D01*
X28425571Y19464432D02*
X28468428Y19378718D01*
X28468428Y19378718D02*
X28511286Y19335860D01*
X28511286Y19335860D02*
X28597000Y19293003D01*
X28597000Y19293003D02*
X28768428Y19293003D01*
X28768428Y19293003D02*
X28854143Y19335860D01*
X28854143Y19335860D02*
X28897000Y19378718D01*
X28897000Y19378718D02*
X28939857Y19464432D01*
X28939857Y19464432D02*
X28939857Y20193003D01*
X29325571Y19335860D02*
X29454143Y19293003D01*
X29454143Y19293003D02*
X29668428Y19293003D01*
X29668428Y19293003D02*
X29754143Y19335860D01*
X29754143Y19335860D02*
X29797000Y19378718D01*
X29797000Y19378718D02*
X29839857Y19464432D01*
X29839857Y19464432D02*
X29839857Y19550146D01*
X29839857Y19550146D02*
X29797000Y19635860D01*
X29797000Y19635860D02*
X29754143Y19678718D01*
X29754143Y19678718D02*
X29668428Y19721575D01*
X29668428Y19721575D02*
X29497000Y19764432D01*
X29497000Y19764432D02*
X29411285Y19807289D01*
X29411285Y19807289D02*
X29368428Y19850146D01*
X29368428Y19850146D02*
X29325571Y19935860D01*
X29325571Y19935860D02*
X29325571Y20021575D01*
X29325571Y20021575D02*
X29368428Y20107289D01*
X29368428Y20107289D02*
X29411285Y20150146D01*
X29411285Y20150146D02*
X29497000Y20193003D01*
X29497000Y20193003D02*
X29711285Y20193003D01*
X29711285Y20193003D02*
X29839857Y20150146D01*
X30225571Y19293003D02*
X30225571Y20193003D01*
X30954142Y19764432D02*
X31082714Y19721575D01*
X31082714Y19721575D02*
X31125571Y19678718D01*
X31125571Y19678718D02*
X31168428Y19593003D01*
X31168428Y19593003D02*
X31168428Y19464432D01*
X31168428Y19464432D02*
X31125571Y19378718D01*
X31125571Y19378718D02*
X31082714Y19335860D01*
X31082714Y19335860D02*
X30996999Y19293003D01*
X30996999Y19293003D02*
X30654142Y19293003D01*
X30654142Y19293003D02*
X30654142Y20193003D01*
X30654142Y20193003D02*
X30954142Y20193003D01*
X30954142Y20193003D02*
X31039857Y20150146D01*
X31039857Y20150146D02*
X31082714Y20107289D01*
X31082714Y20107289D02*
X31125571Y20021575D01*
X31125571Y20021575D02*
X31125571Y19935860D01*
X31125571Y19935860D02*
X31082714Y19850146D01*
X31082714Y19850146D02*
X31039857Y19807289D01*
X31039857Y19807289D02*
X30954142Y19764432D01*
X30954142Y19764432D02*
X30654142Y19764432D01*
X31982714Y19293003D02*
X31554142Y19293003D01*
X31554142Y19293003D02*
X31554142Y20193003D01*
X32282713Y19764432D02*
X32582713Y19764432D01*
X32711285Y19293003D02*
X32282713Y19293003D01*
X32282713Y19293003D02*
X32282713Y20193003D01*
X32282713Y20193003D02*
X32711285Y20193003D01*
X34254142Y19293003D02*
X33739856Y19293003D01*
X33996999Y19293003D02*
X33996999Y20193003D01*
X33996999Y20193003D02*
X33911285Y20064432D01*
X33911285Y20064432D02*
X33825570Y19978718D01*
X33825570Y19978718D02*
X33739856Y19935860D01*
X34811285Y20193003D02*
X34896999Y20193003D01*
X34896999Y20193003D02*
X34982713Y20150146D01*
X34982713Y20150146D02*
X35025571Y20107289D01*
X35025571Y20107289D02*
X35068428Y20021575D01*
X35068428Y20021575D02*
X35111285Y19850146D01*
X35111285Y19850146D02*
X35111285Y19635860D01*
X35111285Y19635860D02*
X35068428Y19464432D01*
X35068428Y19464432D02*
X35025571Y19378718D01*
X35025571Y19378718D02*
X34982713Y19335860D01*
X34982713Y19335860D02*
X34896999Y19293003D01*
X34896999Y19293003D02*
X34811285Y19293003D01*
X34811285Y19293003D02*
X34725571Y19335860D01*
X34725571Y19335860D02*
X34682713Y19378718D01*
X34682713Y19378718D02*
X34639856Y19464432D01*
X34639856Y19464432D02*
X34596999Y19635860D01*
X34596999Y19635860D02*
X34596999Y19850146D01*
X34596999Y19850146D02*
X34639856Y20021575D01*
X34639856Y20021575D02*
X34682713Y20107289D01*
X34682713Y20107289D02*
X34725571Y20150146D01*
X34725571Y20150146D02*
X34811285Y20193003D01*
X35454142Y19550146D02*
X35882714Y19550146D01*
X35368428Y19293003D02*
X35668428Y20193003D01*
X35668428Y20193003D02*
X35968428Y19293003D01*
X58339857Y77835860D02*
X58468429Y77793003D01*
X58468429Y77793003D02*
X58682714Y77793003D01*
X58682714Y77793003D02*
X58768429Y77835860D01*
X58768429Y77835860D02*
X58811286Y77878718D01*
X58811286Y77878718D02*
X58854143Y77964432D01*
X58854143Y77964432D02*
X58854143Y78050146D01*
X58854143Y78050146D02*
X58811286Y78135860D01*
X58811286Y78135860D02*
X58768429Y78178718D01*
X58768429Y78178718D02*
X58682714Y78221575D01*
X58682714Y78221575D02*
X58511286Y78264432D01*
X58511286Y78264432D02*
X58425571Y78307289D01*
X58425571Y78307289D02*
X58382714Y78350146D01*
X58382714Y78350146D02*
X58339857Y78435860D01*
X58339857Y78435860D02*
X58339857Y78521575D01*
X58339857Y78521575D02*
X58382714Y78607289D01*
X58382714Y78607289D02*
X58425571Y78650146D01*
X58425571Y78650146D02*
X58511286Y78693003D01*
X58511286Y78693003D02*
X58725571Y78693003D01*
X58725571Y78693003D02*
X58854143Y78650146D01*
X59539857Y78264432D02*
X59668429Y78221575D01*
X59668429Y78221575D02*
X59711286Y78178718D01*
X59711286Y78178718D02*
X59754143Y78093003D01*
X59754143Y78093003D02*
X59754143Y77964432D01*
X59754143Y77964432D02*
X59711286Y77878718D01*
X59711286Y77878718D02*
X59668429Y77835860D01*
X59668429Y77835860D02*
X59582714Y77793003D01*
X59582714Y77793003D02*
X59239857Y77793003D01*
X59239857Y77793003D02*
X59239857Y78693003D01*
X59239857Y78693003D02*
X59539857Y78693003D01*
X59539857Y78693003D02*
X59625572Y78650146D01*
X59625572Y78650146D02*
X59668429Y78607289D01*
X59668429Y78607289D02*
X59711286Y78521575D01*
X59711286Y78521575D02*
X59711286Y78435860D01*
X59711286Y78435860D02*
X59668429Y78350146D01*
X59668429Y78350146D02*
X59625572Y78307289D01*
X59625572Y78307289D02*
X59539857Y78264432D01*
X59539857Y78264432D02*
X59239857Y78264432D01*
X60139857Y78693003D02*
X60139857Y77964432D01*
X60139857Y77964432D02*
X60182714Y77878718D01*
X60182714Y77878718D02*
X60225572Y77835860D01*
X60225572Y77835860D02*
X60311286Y77793003D01*
X60311286Y77793003D02*
X60482714Y77793003D01*
X60482714Y77793003D02*
X60568429Y77835860D01*
X60568429Y77835860D02*
X60611286Y77878718D01*
X60611286Y77878718D02*
X60654143Y77964432D01*
X60654143Y77964432D02*
X60654143Y78693003D01*
X61039857Y77835860D02*
X61168429Y77793003D01*
X61168429Y77793003D02*
X61382714Y77793003D01*
X61382714Y77793003D02*
X61468429Y77835860D01*
X61468429Y77835860D02*
X61511286Y77878718D01*
X61511286Y77878718D02*
X61554143Y77964432D01*
X61554143Y77964432D02*
X61554143Y78050146D01*
X61554143Y78050146D02*
X61511286Y78135860D01*
X61511286Y78135860D02*
X61468429Y78178718D01*
X61468429Y78178718D02*
X61382714Y78221575D01*
X61382714Y78221575D02*
X61211286Y78264432D01*
X61211286Y78264432D02*
X61125571Y78307289D01*
X61125571Y78307289D02*
X61082714Y78350146D01*
X61082714Y78350146D02*
X61039857Y78435860D01*
X61039857Y78435860D02*
X61039857Y78521575D01*
X61039857Y78521575D02*
X61082714Y78607289D01*
X61082714Y78607289D02*
X61125571Y78650146D01*
X61125571Y78650146D02*
X61211286Y78693003D01*
X61211286Y78693003D02*
X61425571Y78693003D01*
X61425571Y78693003D02*
X61554143Y78650146D01*
X60368429Y87735860D02*
X60497001Y87693003D01*
X60497001Y87693003D02*
X60711286Y87693003D01*
X60711286Y87693003D02*
X60797001Y87735860D01*
X60797001Y87735860D02*
X60839858Y87778718D01*
X60839858Y87778718D02*
X60882715Y87864432D01*
X60882715Y87864432D02*
X60882715Y87950146D01*
X60882715Y87950146D02*
X60839858Y88035860D01*
X60839858Y88035860D02*
X60797001Y88078718D01*
X60797001Y88078718D02*
X60711286Y88121575D01*
X60711286Y88121575D02*
X60539858Y88164432D01*
X60539858Y88164432D02*
X60454143Y88207289D01*
X60454143Y88207289D02*
X60411286Y88250146D01*
X60411286Y88250146D02*
X60368429Y88335860D01*
X60368429Y88335860D02*
X60368429Y88421575D01*
X60368429Y88421575D02*
X60411286Y88507289D01*
X60411286Y88507289D02*
X60454143Y88550146D01*
X60454143Y88550146D02*
X60539858Y88593003D01*
X60539858Y88593003D02*
X60754143Y88593003D01*
X60754143Y88593003D02*
X60882715Y88550146D01*
X61268429Y87693003D02*
X61268429Y88593003D01*
X61268429Y88164432D02*
X61782715Y88164432D01*
X61782715Y87693003D02*
X61782715Y88593003D01*
X62211286Y87693003D02*
X62211286Y88593003D01*
X62639857Y88164432D02*
X62939857Y88164432D01*
X63068429Y87693003D02*
X62639857Y87693003D01*
X62639857Y87693003D02*
X62639857Y88593003D01*
X62639857Y88593003D02*
X63068429Y88593003D01*
X63882715Y87693003D02*
X63454143Y87693003D01*
X63454143Y87693003D02*
X63454143Y88593003D01*
X64182714Y87693003D02*
X64182714Y88593003D01*
X64182714Y88593003D02*
X64397000Y88593003D01*
X64397000Y88593003D02*
X64525571Y88550146D01*
X64525571Y88550146D02*
X64611286Y88464432D01*
X64611286Y88464432D02*
X64654143Y88378718D01*
X64654143Y88378718D02*
X64697000Y88207289D01*
X64697000Y88207289D02*
X64697000Y88078718D01*
X64697000Y88078718D02*
X64654143Y87907289D01*
X64654143Y87907289D02*
X64611286Y87821575D01*
X64611286Y87821575D02*
X64525571Y87735860D01*
X64525571Y87735860D02*
X64397000Y87693003D01*
X64397000Y87693003D02*
X64182714Y87693003D01*
X65768428Y87693003D02*
X65768428Y88593003D01*
X65768428Y88593003D02*
X66068428Y87950146D01*
X66068428Y87950146D02*
X66368428Y88593003D01*
X66368428Y88593003D02*
X66368428Y87693003D01*
X66796999Y88164432D02*
X67096999Y88164432D01*
X67225571Y87693003D02*
X66796999Y87693003D01*
X66796999Y87693003D02*
X66796999Y88593003D01*
X66796999Y88593003D02*
X67225571Y88593003D01*
X68082714Y88550146D02*
X67997000Y88593003D01*
X67997000Y88593003D02*
X67868428Y88593003D01*
X67868428Y88593003D02*
X67739857Y88550146D01*
X67739857Y88550146D02*
X67654142Y88464432D01*
X67654142Y88464432D02*
X67611285Y88378718D01*
X67611285Y88378718D02*
X67568428Y88207289D01*
X67568428Y88207289D02*
X67568428Y88078718D01*
X67568428Y88078718D02*
X67611285Y87907289D01*
X67611285Y87907289D02*
X67654142Y87821575D01*
X67654142Y87821575D02*
X67739857Y87735860D01*
X67739857Y87735860D02*
X67868428Y87693003D01*
X67868428Y87693003D02*
X67954142Y87693003D01*
X67954142Y87693003D02*
X68082714Y87735860D01*
X68082714Y87735860D02*
X68125571Y87778718D01*
X68125571Y87778718D02*
X68125571Y88078718D01*
X68125571Y88078718D02*
X67954142Y88078718D01*
X68468428Y87950146D02*
X68897000Y87950146D01*
X68382714Y87693003D02*
X68682714Y88593003D01*
X68682714Y88593003D02*
X68982714Y87693003D01*
X69882714Y88293003D02*
X70097000Y87693003D01*
X70097000Y87693003D02*
X70311285Y88293003D01*
X70611285Y88507289D02*
X70654142Y88550146D01*
X70654142Y88550146D02*
X70739857Y88593003D01*
X70739857Y88593003D02*
X70954142Y88593003D01*
X70954142Y88593003D02*
X71039857Y88550146D01*
X71039857Y88550146D02*
X71082714Y88507289D01*
X71082714Y88507289D02*
X71125571Y88421575D01*
X71125571Y88421575D02*
X71125571Y88335860D01*
X71125571Y88335860D02*
X71082714Y88207289D01*
X71082714Y88207289D02*
X70568428Y87693003D01*
X70568428Y87693003D02*
X71125571Y87693003D01*
X62918428Y86793003D02*
X62918428Y86150146D01*
X62918428Y86150146D02*
X62875571Y86021575D01*
X62875571Y86021575D02*
X62789857Y85935860D01*
X62789857Y85935860D02*
X62661285Y85893003D01*
X62661285Y85893003D02*
X62575571Y85893003D01*
X63346999Y85893003D02*
X63346999Y86793003D01*
X63346999Y86793003D02*
X63561285Y86793003D01*
X63561285Y86793003D02*
X63689856Y86750146D01*
X63689856Y86750146D02*
X63775571Y86664432D01*
X63775571Y86664432D02*
X63818428Y86578718D01*
X63818428Y86578718D02*
X63861285Y86407289D01*
X63861285Y86407289D02*
X63861285Y86278718D01*
X63861285Y86278718D02*
X63818428Y86107289D01*
X63818428Y86107289D02*
X63775571Y86021575D01*
X63775571Y86021575D02*
X63689856Y85935860D01*
X63689856Y85935860D02*
X63561285Y85893003D01*
X63561285Y85893003D02*
X63346999Y85893003D01*
X64718428Y86750146D02*
X64632714Y86793003D01*
X64632714Y86793003D02*
X64504142Y86793003D01*
X64504142Y86793003D02*
X64375571Y86750146D01*
X64375571Y86750146D02*
X64289856Y86664432D01*
X64289856Y86664432D02*
X64246999Y86578718D01*
X64246999Y86578718D02*
X64204142Y86407289D01*
X64204142Y86407289D02*
X64204142Y86278718D01*
X64204142Y86278718D02*
X64246999Y86107289D01*
X64246999Y86107289D02*
X64289856Y86021575D01*
X64289856Y86021575D02*
X64375571Y85935860D01*
X64375571Y85935860D02*
X64504142Y85893003D01*
X64504142Y85893003D02*
X64589856Y85893003D01*
X64589856Y85893003D02*
X64718428Y85935860D01*
X64718428Y85935860D02*
X64761285Y85978718D01*
X64761285Y85978718D02*
X64761285Y86278718D01*
X64761285Y86278718D02*
X64589856Y86278718D01*
X65789856Y86707289D02*
X65832713Y86750146D01*
X65832713Y86750146D02*
X65918428Y86793003D01*
X65918428Y86793003D02*
X66132713Y86793003D01*
X66132713Y86793003D02*
X66218428Y86750146D01*
X66218428Y86750146D02*
X66261285Y86707289D01*
X66261285Y86707289D02*
X66304142Y86621575D01*
X66304142Y86621575D02*
X66304142Y86535860D01*
X66304142Y86535860D02*
X66261285Y86407289D01*
X66261285Y86407289D02*
X65746999Y85893003D01*
X65746999Y85893003D02*
X66304142Y85893003D01*
X66861285Y86793003D02*
X66946999Y86793003D01*
X66946999Y86793003D02*
X67032713Y86750146D01*
X67032713Y86750146D02*
X67075571Y86707289D01*
X67075571Y86707289D02*
X67118428Y86621575D01*
X67118428Y86621575D02*
X67161285Y86450146D01*
X67161285Y86450146D02*
X67161285Y86235860D01*
X67161285Y86235860D02*
X67118428Y86064432D01*
X67118428Y86064432D02*
X67075571Y85978718D01*
X67075571Y85978718D02*
X67032713Y85935860D01*
X67032713Y85935860D02*
X66946999Y85893003D01*
X66946999Y85893003D02*
X66861285Y85893003D01*
X66861285Y85893003D02*
X66775571Y85935860D01*
X66775571Y85935860D02*
X66732713Y85978718D01*
X66732713Y85978718D02*
X66689856Y86064432D01*
X66689856Y86064432D02*
X66646999Y86235860D01*
X66646999Y86235860D02*
X66646999Y86450146D01*
X66646999Y86450146D02*
X66689856Y86621575D01*
X66689856Y86621575D02*
X66732713Y86707289D01*
X66732713Y86707289D02*
X66775571Y86750146D01*
X66775571Y86750146D02*
X66861285Y86793003D01*
X67504142Y86707289D02*
X67546999Y86750146D01*
X67546999Y86750146D02*
X67632714Y86793003D01*
X67632714Y86793003D02*
X67846999Y86793003D01*
X67846999Y86793003D02*
X67932714Y86750146D01*
X67932714Y86750146D02*
X67975571Y86707289D01*
X67975571Y86707289D02*
X68018428Y86621575D01*
X68018428Y86621575D02*
X68018428Y86535860D01*
X68018428Y86535860D02*
X67975571Y86407289D01*
X67975571Y86407289D02*
X67461285Y85893003D01*
X67461285Y85893003D02*
X68018428Y85893003D01*
X68832714Y86793003D02*
X68404142Y86793003D01*
X68404142Y86793003D02*
X68361285Y86364432D01*
X68361285Y86364432D02*
X68404142Y86407289D01*
X68404142Y86407289D02*
X68489857Y86450146D01*
X68489857Y86450146D02*
X68704142Y86450146D01*
X68704142Y86450146D02*
X68789857Y86407289D01*
X68789857Y86407289D02*
X68832714Y86364432D01*
X68832714Y86364432D02*
X68875571Y86278718D01*
X68875571Y86278718D02*
X68875571Y86064432D01*
X68875571Y86064432D02*
X68832714Y85978718D01*
X68832714Y85978718D02*
X68789857Y85935860D01*
X68789857Y85935860D02*
X68704142Y85893003D01*
X68704142Y85893003D02*
X68489857Y85893003D01*
X68489857Y85893003D02*
X68404142Y85935860D01*
X68404142Y85935860D02*
X68361285Y85978718D01*
X68832714Y20393003D02*
X68661285Y20393003D01*
X68661285Y20393003D02*
X68575571Y20350146D01*
X68575571Y20350146D02*
X68532714Y20307289D01*
X68532714Y20307289D02*
X68446999Y20178718D01*
X68446999Y20178718D02*
X68404142Y20007289D01*
X68404142Y20007289D02*
X68404142Y19664432D01*
X68404142Y19664432D02*
X68446999Y19578718D01*
X68446999Y19578718D02*
X68489856Y19535860D01*
X68489856Y19535860D02*
X68575571Y19493003D01*
X68575571Y19493003D02*
X68746999Y19493003D01*
X68746999Y19493003D02*
X68832714Y19535860D01*
X68832714Y19535860D02*
X68875571Y19578718D01*
X68875571Y19578718D02*
X68918428Y19664432D01*
X68918428Y19664432D02*
X68918428Y19878718D01*
X68918428Y19878718D02*
X68875571Y19964432D01*
X68875571Y19964432D02*
X68832714Y20007289D01*
X68832714Y20007289D02*
X68746999Y20050146D01*
X68746999Y20050146D02*
X68575571Y20050146D01*
X68575571Y20050146D02*
X68489856Y20007289D01*
X68489856Y20007289D02*
X68446999Y19964432D01*
X68446999Y19964432D02*
X68404142Y19878718D01*
X69175571Y20393003D02*
X69475571Y19493003D01*
X69475571Y19493003D02*
X69775571Y20393003D01*
X2470810Y8046741D02*
X2470810Y9046741D01*
X2470810Y9046741D02*
X2708905Y9046741D01*
X2708905Y9046741D02*
X2851762Y8999122D01*
X2851762Y8999122D02*
X2947000Y8903884D01*
X2947000Y8903884D02*
X2994619Y8808646D01*
X2994619Y8808646D02*
X3042238Y8618170D01*
X3042238Y8618170D02*
X3042238Y8475313D01*
X3042238Y8475313D02*
X2994619Y8284837D01*
X2994619Y8284837D02*
X2947000Y8189599D01*
X2947000Y8189599D02*
X2851762Y8094360D01*
X2851762Y8094360D02*
X2708905Y8046741D01*
X2708905Y8046741D02*
X2470810Y8046741D01*
X3470810Y8046741D02*
X3470810Y9046741D01*
X4518428Y8046741D02*
X4185095Y8522932D01*
X3947000Y8046741D02*
X3947000Y9046741D01*
X3947000Y9046741D02*
X4327952Y9046741D01*
X4327952Y9046741D02*
X4423190Y8999122D01*
X4423190Y8999122D02*
X4470809Y8951503D01*
X4470809Y8951503D02*
X4518428Y8856265D01*
X4518428Y8856265D02*
X4518428Y8713408D01*
X4518428Y8713408D02*
X4470809Y8618170D01*
X4470809Y8618170D02*
X4423190Y8570551D01*
X4423190Y8570551D02*
X4327952Y8522932D01*
X4327952Y8522932D02*
X3947000Y8522932D01*
X5470809Y8046741D02*
X4899381Y8046741D01*
X5185095Y8046741D02*
X5185095Y9046741D01*
X5185095Y9046741D02*
X5089857Y8903884D01*
X5089857Y8903884D02*
X4994619Y8808646D01*
X4994619Y8808646D02*
X4899381Y8761027D01*
X2066048Y4546741D02*
X2066048Y5546741D01*
X2066048Y5546741D02*
X2447000Y5546741D01*
X2447000Y5546741D02*
X2542238Y5499122D01*
X2542238Y5499122D02*
X2589857Y5451503D01*
X2589857Y5451503D02*
X2637476Y5356265D01*
X2637476Y5356265D02*
X2637476Y5213408D01*
X2637476Y5213408D02*
X2589857Y5118170D01*
X2589857Y5118170D02*
X2542238Y5070551D01*
X2542238Y5070551D02*
X2447000Y5022932D01*
X2447000Y5022932D02*
X2066048Y5022932D01*
X2970810Y5546741D02*
X3208905Y4546741D01*
X3208905Y4546741D02*
X3399381Y5261027D01*
X3399381Y5261027D02*
X3589857Y4546741D01*
X3589857Y4546741D02*
X3827953Y5546741D01*
X4208905Y4546741D02*
X4208905Y5546741D01*
X4208905Y5546741D02*
X4542238Y4832456D01*
X4542238Y4832456D02*
X4875571Y5546741D01*
X4875571Y5546741D02*
X4875571Y4546741D01*
X5875571Y4546741D02*
X5304143Y4546741D01*
X5589857Y4546741D02*
X5589857Y5546741D01*
X5589857Y5546741D02*
X5494619Y5403884D01*
X5494619Y5403884D02*
X5399381Y5308646D01*
X5399381Y5308646D02*
X5304143Y5261027D01*
X15566048Y1546741D02*
X15566048Y2546741D01*
X15566048Y2546741D02*
X15947000Y2546741D01*
X15947000Y2546741D02*
X16042238Y2499122D01*
X16042238Y2499122D02*
X16089857Y2451503D01*
X16089857Y2451503D02*
X16137476Y2356265D01*
X16137476Y2356265D02*
X16137476Y2213408D01*
X16137476Y2213408D02*
X16089857Y2118170D01*
X16089857Y2118170D02*
X16042238Y2070551D01*
X16042238Y2070551D02*
X15947000Y2022932D01*
X15947000Y2022932D02*
X15566048Y2022932D01*
X16470810Y2546741D02*
X16708905Y1546741D01*
X16708905Y1546741D02*
X16899381Y2261027D01*
X16899381Y2261027D02*
X17089857Y1546741D01*
X17089857Y1546741D02*
X17327953Y2546741D01*
X17708905Y1546741D02*
X17708905Y2546741D01*
X17708905Y2546741D02*
X18042238Y1832456D01*
X18042238Y1832456D02*
X18375571Y2546741D01*
X18375571Y2546741D02*
X18375571Y1546741D01*
X18804143Y2451503D02*
X18851762Y2499122D01*
X18851762Y2499122D02*
X18947000Y2546741D01*
X18947000Y2546741D02*
X19185095Y2546741D01*
X19185095Y2546741D02*
X19280333Y2499122D01*
X19280333Y2499122D02*
X19327952Y2451503D01*
X19327952Y2451503D02*
X19375571Y2356265D01*
X19375571Y2356265D02*
X19375571Y2261027D01*
X19375571Y2261027D02*
X19327952Y2118170D01*
X19327952Y2118170D02*
X18756524Y1546741D01*
X18756524Y1546741D02*
X19375571Y1546741D01*
X20470810Y1546741D02*
X20470810Y2546741D01*
X20470810Y2546741D02*
X20708905Y2546741D01*
X20708905Y2546741D02*
X20851762Y2499122D01*
X20851762Y2499122D02*
X20947000Y2403884D01*
X20947000Y2403884D02*
X20994619Y2308646D01*
X20994619Y2308646D02*
X21042238Y2118170D01*
X21042238Y2118170D02*
X21042238Y1975313D01*
X21042238Y1975313D02*
X20994619Y1784837D01*
X20994619Y1784837D02*
X20947000Y1689599D01*
X20947000Y1689599D02*
X20851762Y1594360D01*
X20851762Y1594360D02*
X20708905Y1546741D01*
X20708905Y1546741D02*
X20470810Y1546741D01*
X21470810Y1546741D02*
X21470810Y2546741D01*
X22518428Y1546741D02*
X22185095Y2022932D01*
X21947000Y1546741D02*
X21947000Y2546741D01*
X21947000Y2546741D02*
X22327952Y2546741D01*
X22327952Y2546741D02*
X22423190Y2499122D01*
X22423190Y2499122D02*
X22470809Y2451503D01*
X22470809Y2451503D02*
X22518428Y2356265D01*
X22518428Y2356265D02*
X22518428Y2213408D01*
X22518428Y2213408D02*
X22470809Y2118170D01*
X22470809Y2118170D02*
X22423190Y2070551D01*
X22423190Y2070551D02*
X22327952Y2022932D01*
X22327952Y2022932D02*
X21947000Y2022932D01*
X22899381Y2451503D02*
X22947000Y2499122D01*
X22947000Y2499122D02*
X23042238Y2546741D01*
X23042238Y2546741D02*
X23280333Y2546741D01*
X23280333Y2546741D02*
X23375571Y2499122D01*
X23375571Y2499122D02*
X23423190Y2451503D01*
X23423190Y2451503D02*
X23470809Y2356265D01*
X23470809Y2356265D02*
X23470809Y2261027D01*
X23470809Y2261027D02*
X23423190Y2118170D01*
X23423190Y2118170D02*
X22851762Y1546741D01*
X22851762Y1546741D02*
X23470809Y1546741D01*
X49970810Y1546741D02*
X49970810Y2546741D01*
X49970810Y2546741D02*
X50208905Y2546741D01*
X50208905Y2546741D02*
X50351762Y2499122D01*
X50351762Y2499122D02*
X50447000Y2403884D01*
X50447000Y2403884D02*
X50494619Y2308646D01*
X50494619Y2308646D02*
X50542238Y2118170D01*
X50542238Y2118170D02*
X50542238Y1975313D01*
X50542238Y1975313D02*
X50494619Y1784837D01*
X50494619Y1784837D02*
X50447000Y1689599D01*
X50447000Y1689599D02*
X50351762Y1594360D01*
X50351762Y1594360D02*
X50208905Y1546741D01*
X50208905Y1546741D02*
X49970810Y1546741D01*
X50970810Y1546741D02*
X50970810Y2546741D01*
X52018428Y1546741D02*
X51685095Y2022932D01*
X51447000Y1546741D02*
X51447000Y2546741D01*
X51447000Y2546741D02*
X51827952Y2546741D01*
X51827952Y2546741D02*
X51923190Y2499122D01*
X51923190Y2499122D02*
X51970809Y2451503D01*
X51970809Y2451503D02*
X52018428Y2356265D01*
X52018428Y2356265D02*
X52018428Y2213408D01*
X52018428Y2213408D02*
X51970809Y2118170D01*
X51970809Y2118170D02*
X51923190Y2070551D01*
X51923190Y2070551D02*
X51827952Y2022932D01*
X51827952Y2022932D02*
X51447000Y2022932D01*
X52351762Y2546741D02*
X52970809Y2546741D01*
X52970809Y2546741D02*
X52637476Y2165789D01*
X52637476Y2165789D02*
X52780333Y2165789D01*
X52780333Y2165789D02*
X52875571Y2118170D01*
X52875571Y2118170D02*
X52923190Y2070551D01*
X52923190Y2070551D02*
X52970809Y1975313D01*
X52970809Y1975313D02*
X52970809Y1737218D01*
X52970809Y1737218D02*
X52923190Y1641980D01*
X52923190Y1641980D02*
X52875571Y1594360D01*
X52875571Y1594360D02*
X52780333Y1546741D01*
X52780333Y1546741D02*
X52494619Y1546741D01*
X52494619Y1546741D02*
X52399381Y1594360D01*
X52399381Y1594360D02*
X52351762Y1641980D01*
X54066048Y1546741D02*
X54066048Y2546741D01*
X54066048Y2546741D02*
X54447000Y2546741D01*
X54447000Y2546741D02*
X54542238Y2499122D01*
X54542238Y2499122D02*
X54589857Y2451503D01*
X54589857Y2451503D02*
X54637476Y2356265D01*
X54637476Y2356265D02*
X54637476Y2213408D01*
X54637476Y2213408D02*
X54589857Y2118170D01*
X54589857Y2118170D02*
X54542238Y2070551D01*
X54542238Y2070551D02*
X54447000Y2022932D01*
X54447000Y2022932D02*
X54066048Y2022932D01*
X54970810Y2546741D02*
X55208905Y1546741D01*
X55208905Y1546741D02*
X55399381Y2261027D01*
X55399381Y2261027D02*
X55589857Y1546741D01*
X55589857Y1546741D02*
X55827953Y2546741D01*
X56208905Y1546741D02*
X56208905Y2546741D01*
X56208905Y2546741D02*
X56542238Y1832456D01*
X56542238Y1832456D02*
X56875571Y2546741D01*
X56875571Y2546741D02*
X56875571Y1546741D01*
X57256524Y2546741D02*
X57875571Y2546741D01*
X57875571Y2546741D02*
X57542238Y2165789D01*
X57542238Y2165789D02*
X57685095Y2165789D01*
X57685095Y2165789D02*
X57780333Y2118170D01*
X57780333Y2118170D02*
X57827952Y2070551D01*
X57827952Y2070551D02*
X57875571Y1975313D01*
X57875571Y1975313D02*
X57875571Y1737218D01*
X57875571Y1737218D02*
X57827952Y1641980D01*
X57827952Y1641980D02*
X57780333Y1594360D01*
X57780333Y1594360D02*
X57685095Y1546741D01*
X57685095Y1546741D02*
X57399381Y1546741D01*
X57399381Y1546741D02*
X57304143Y1594360D01*
X57304143Y1594360D02*
X57256524Y1641980D01*
X67970810Y8546741D02*
X67970810Y9546741D01*
X67970810Y9546741D02*
X68208905Y9546741D01*
X68208905Y9546741D02*
X68351762Y9499122D01*
X68351762Y9499122D02*
X68447000Y9403884D01*
X68447000Y9403884D02*
X68494619Y9308646D01*
X68494619Y9308646D02*
X68542238Y9118170D01*
X68542238Y9118170D02*
X68542238Y8975313D01*
X68542238Y8975313D02*
X68494619Y8784837D01*
X68494619Y8784837D02*
X68447000Y8689599D01*
X68447000Y8689599D02*
X68351762Y8594360D01*
X68351762Y8594360D02*
X68208905Y8546741D01*
X68208905Y8546741D02*
X67970810Y8546741D01*
X68970810Y8546741D02*
X68970810Y9546741D01*
X70018428Y8546741D02*
X69685095Y9022932D01*
X69447000Y8546741D02*
X69447000Y9546741D01*
X69447000Y9546741D02*
X69827952Y9546741D01*
X69827952Y9546741D02*
X69923190Y9499122D01*
X69923190Y9499122D02*
X69970809Y9451503D01*
X69970809Y9451503D02*
X70018428Y9356265D01*
X70018428Y9356265D02*
X70018428Y9213408D01*
X70018428Y9213408D02*
X69970809Y9118170D01*
X69970809Y9118170D02*
X69923190Y9070551D01*
X69923190Y9070551D02*
X69827952Y9022932D01*
X69827952Y9022932D02*
X69447000Y9022932D01*
X70875571Y9213408D02*
X70875571Y8546741D01*
X70637476Y9594360D02*
X70399381Y8880075D01*
X70399381Y8880075D02*
X71018428Y8880075D01*
X67566048Y5546741D02*
X67566048Y6546741D01*
X67566048Y6546741D02*
X67947000Y6546741D01*
X67947000Y6546741D02*
X68042238Y6499122D01*
X68042238Y6499122D02*
X68089857Y6451503D01*
X68089857Y6451503D02*
X68137476Y6356265D01*
X68137476Y6356265D02*
X68137476Y6213408D01*
X68137476Y6213408D02*
X68089857Y6118170D01*
X68089857Y6118170D02*
X68042238Y6070551D01*
X68042238Y6070551D02*
X67947000Y6022932D01*
X67947000Y6022932D02*
X67566048Y6022932D01*
X68470810Y6546741D02*
X68708905Y5546741D01*
X68708905Y5546741D02*
X68899381Y6261027D01*
X68899381Y6261027D02*
X69089857Y5546741D01*
X69089857Y5546741D02*
X69327953Y6546741D01*
X69708905Y5546741D02*
X69708905Y6546741D01*
X69708905Y6546741D02*
X70042238Y5832456D01*
X70042238Y5832456D02*
X70375571Y6546741D01*
X70375571Y6546741D02*
X70375571Y5546741D01*
X71280333Y6213408D02*
X71280333Y5546741D01*
X71042238Y6594360D02*
X70804143Y5880075D01*
X70804143Y5880075D02*
X71423190Y5880075D01*
D11*
X5340100Y16571429D02*
X5340100Y15428571D01*
X4768671Y16000000D02*
X5911528Y16000000D01*
X5340100Y13071429D02*
X5340100Y11928571D01*
X68340100Y17071429D02*
X68340100Y15928571D01*
X67768671Y16500000D02*
X68911528Y16500000D01*
X68340100Y13571429D02*
X68340100Y12428571D01*
X24875571Y1893100D02*
X26018429Y1893100D01*
X25447000Y1321672D02*
X25447000Y2464529D01*
X28375571Y1893100D02*
X29518429Y1893100D01*
X34375571Y1893100D02*
X35518429Y1893100D01*
X34947000Y1321672D02*
X34947000Y2464529D01*
X37875571Y1893100D02*
X39018429Y1893100D01*
X43875571Y1893100D02*
X45018429Y1893100D01*
X44447000Y1321672D02*
X44447000Y2464529D01*
X47375571Y1893100D02*
X48518429Y1893100D01*
D12*
X71272700Y32314286D02*
X71315557Y32442857D01*
X71315557Y32442857D02*
X71315557Y32657143D01*
X71315557Y32657143D02*
X71272700Y32742857D01*
X71272700Y32742857D02*
X71229842Y32785715D01*
X71229842Y32785715D02*
X71144128Y32828572D01*
X71144128Y32828572D02*
X71058414Y32828572D01*
X71058414Y32828572D02*
X70972700Y32785715D01*
X70972700Y32785715D02*
X70929842Y32742857D01*
X70929842Y32742857D02*
X70886985Y32657143D01*
X70886985Y32657143D02*
X70844128Y32485715D01*
X70844128Y32485715D02*
X70801271Y32400000D01*
X70801271Y32400000D02*
X70758414Y32357143D01*
X70758414Y32357143D02*
X70672700Y32314286D01*
X70672700Y32314286D02*
X70586985Y32314286D01*
X70586985Y32314286D02*
X70501271Y32357143D01*
X70501271Y32357143D02*
X70458414Y32400000D01*
X70458414Y32400000D02*
X70415557Y32485715D01*
X70415557Y32485715D02*
X70415557Y32700000D01*
X70415557Y32700000D02*
X70458414Y32828572D01*
X70415557Y33128572D02*
X70415557Y33685715D01*
X70415557Y33685715D02*
X70758414Y33385715D01*
X70758414Y33385715D02*
X70758414Y33514286D01*
X70758414Y33514286D02*
X70801271Y33600000D01*
X70801271Y33600000D02*
X70844128Y33642858D01*
X70844128Y33642858D02*
X70929842Y33685715D01*
X70929842Y33685715D02*
X71144128Y33685715D01*
X71144128Y33685715D02*
X71229842Y33642858D01*
X71229842Y33642858D02*
X71272700Y33600000D01*
X71272700Y33600000D02*
X71315557Y33514286D01*
X71315557Y33514286D02*
X71315557Y33257143D01*
X71315557Y33257143D02*
X71272700Y33171429D01*
X71272700Y33171429D02*
X71229842Y33128572D01*
X71272700Y26814286D02*
X71315557Y26942857D01*
X71315557Y26942857D02*
X71315557Y27157143D01*
X71315557Y27157143D02*
X71272700Y27242857D01*
X71272700Y27242857D02*
X71229842Y27285715D01*
X71229842Y27285715D02*
X71144128Y27328572D01*
X71144128Y27328572D02*
X71058414Y27328572D01*
X71058414Y27328572D02*
X70972700Y27285715D01*
X70972700Y27285715D02*
X70929842Y27242857D01*
X70929842Y27242857D02*
X70886985Y27157143D01*
X70886985Y27157143D02*
X70844128Y26985715D01*
X70844128Y26985715D02*
X70801271Y26900000D01*
X70801271Y26900000D02*
X70758414Y26857143D01*
X70758414Y26857143D02*
X70672700Y26814286D01*
X70672700Y26814286D02*
X70586985Y26814286D01*
X70586985Y26814286D02*
X70501271Y26857143D01*
X70501271Y26857143D02*
X70458414Y26900000D01*
X70458414Y26900000D02*
X70415557Y26985715D01*
X70415557Y26985715D02*
X70415557Y27200000D01*
X70415557Y27200000D02*
X70458414Y27328572D01*
X70715557Y28100000D02*
X71315557Y28100000D01*
X70372700Y27885715D02*
X71015557Y27671429D01*
X71015557Y27671429D02*
X71015557Y28228572D01*
X57055557Y5300001D02*
X57698414Y5300001D01*
X57698414Y5300001D02*
X57826985Y5257144D01*
X57826985Y5257144D02*
X57912700Y5171430D01*
X57912700Y5171430D02*
X57955557Y5042858D01*
X57955557Y5042858D02*
X57955557Y4957144D01*
X57955557Y5771429D02*
X57955557Y5942858D01*
X57955557Y5942858D02*
X57912700Y6028572D01*
X57912700Y6028572D02*
X57869842Y6071429D01*
X57869842Y6071429D02*
X57741271Y6157144D01*
X57741271Y6157144D02*
X57569842Y6200001D01*
X57569842Y6200001D02*
X57226985Y6200001D01*
X57226985Y6200001D02*
X57141271Y6157144D01*
X57141271Y6157144D02*
X57098414Y6114286D01*
X57098414Y6114286D02*
X57055557Y6028572D01*
X57055557Y6028572D02*
X57055557Y5857144D01*
X57055557Y5857144D02*
X57098414Y5771429D01*
X57098414Y5771429D02*
X57141271Y5728572D01*
X57141271Y5728572D02*
X57226985Y5685715D01*
X57226985Y5685715D02*
X57441271Y5685715D01*
X57441271Y5685715D02*
X57526985Y5728572D01*
X57526985Y5728572D02*
X57569842Y5771429D01*
X57569842Y5771429D02*
X57612700Y5857144D01*
X57612700Y5857144D02*
X57612700Y6028572D01*
X57612700Y6028572D02*
X57569842Y6114286D01*
X57569842Y6114286D02*
X57526985Y6157144D01*
X57526985Y6157144D02*
X57441271Y6200001D01*
X31386999Y10692872D02*
X31086999Y10692872D01*
X31086999Y10221443D02*
X31086999Y11121443D01*
X31086999Y11121443D02*
X31515571Y11121443D01*
X32329857Y10221443D02*
X31815571Y10221443D01*
X32072714Y10221443D02*
X32072714Y11121443D01*
X32072714Y11121443D02*
X31987000Y10992872D01*
X31987000Y10992872D02*
X31901285Y10907158D01*
X31901285Y10907158D02*
X31815571Y10864300D01*
X71272700Y38314286D02*
X71315557Y38442857D01*
X71315557Y38442857D02*
X71315557Y38657143D01*
X71315557Y38657143D02*
X71272700Y38742857D01*
X71272700Y38742857D02*
X71229842Y38785715D01*
X71229842Y38785715D02*
X71144128Y38828572D01*
X71144128Y38828572D02*
X71058414Y38828572D01*
X71058414Y38828572D02*
X70972700Y38785715D01*
X70972700Y38785715D02*
X70929842Y38742857D01*
X70929842Y38742857D02*
X70886985Y38657143D01*
X70886985Y38657143D02*
X70844128Y38485715D01*
X70844128Y38485715D02*
X70801271Y38400000D01*
X70801271Y38400000D02*
X70758414Y38357143D01*
X70758414Y38357143D02*
X70672700Y38314286D01*
X70672700Y38314286D02*
X70586985Y38314286D01*
X70586985Y38314286D02*
X70501271Y38357143D01*
X70501271Y38357143D02*
X70458414Y38400000D01*
X70458414Y38400000D02*
X70415557Y38485715D01*
X70415557Y38485715D02*
X70415557Y38700000D01*
X70415557Y38700000D02*
X70458414Y38828572D01*
X70501271Y39171429D02*
X70458414Y39214286D01*
X70458414Y39214286D02*
X70415557Y39300000D01*
X70415557Y39300000D02*
X70415557Y39514286D01*
X70415557Y39514286D02*
X70458414Y39600000D01*
X70458414Y39600000D02*
X70501271Y39642858D01*
X70501271Y39642858D02*
X70586985Y39685715D01*
X70586985Y39685715D02*
X70672700Y39685715D01*
X70672700Y39685715D02*
X70801271Y39642858D01*
X70801271Y39642858D02*
X71315557Y39128572D01*
X71315557Y39128572D02*
X71315557Y39685715D01*
X71272700Y44314286D02*
X71315557Y44442857D01*
X71315557Y44442857D02*
X71315557Y44657143D01*
X71315557Y44657143D02*
X71272700Y44742857D01*
X71272700Y44742857D02*
X71229842Y44785715D01*
X71229842Y44785715D02*
X71144128Y44828572D01*
X71144128Y44828572D02*
X71058414Y44828572D01*
X71058414Y44828572D02*
X70972700Y44785715D01*
X70972700Y44785715D02*
X70929842Y44742857D01*
X70929842Y44742857D02*
X70886985Y44657143D01*
X70886985Y44657143D02*
X70844128Y44485715D01*
X70844128Y44485715D02*
X70801271Y44400000D01*
X70801271Y44400000D02*
X70758414Y44357143D01*
X70758414Y44357143D02*
X70672700Y44314286D01*
X70672700Y44314286D02*
X70586985Y44314286D01*
X70586985Y44314286D02*
X70501271Y44357143D01*
X70501271Y44357143D02*
X70458414Y44400000D01*
X70458414Y44400000D02*
X70415557Y44485715D01*
X70415557Y44485715D02*
X70415557Y44700000D01*
X70415557Y44700000D02*
X70458414Y44828572D01*
X71315557Y45685715D02*
X71315557Y45171429D01*
X71315557Y45428572D02*
X70415557Y45428572D01*
X70415557Y45428572D02*
X70544128Y45342858D01*
X70544128Y45342858D02*
X70629842Y45257143D01*
X70629842Y45257143D02*
X70672700Y45171429D01*
X59647000Y68571443D02*
X59647000Y67928586D01*
X59647000Y67928586D02*
X59604143Y67800015D01*
X59604143Y67800015D02*
X59518429Y67714300D01*
X59518429Y67714300D02*
X59389857Y67671443D01*
X59389857Y67671443D02*
X59304143Y67671443D01*
X60461286Y68571443D02*
X60289857Y68571443D01*
X60289857Y68571443D02*
X60204143Y68528586D01*
X60204143Y68528586D02*
X60161286Y68485729D01*
X60161286Y68485729D02*
X60075571Y68357158D01*
X60075571Y68357158D02*
X60032714Y68185729D01*
X60032714Y68185729D02*
X60032714Y67842872D01*
X60032714Y67842872D02*
X60075571Y67757158D01*
X60075571Y67757158D02*
X60118428Y67714300D01*
X60118428Y67714300D02*
X60204143Y67671443D01*
X60204143Y67671443D02*
X60375571Y67671443D01*
X60375571Y67671443D02*
X60461286Y67714300D01*
X60461286Y67714300D02*
X60504143Y67757158D01*
X60504143Y67757158D02*
X60547000Y67842872D01*
X60547000Y67842872D02*
X60547000Y68057158D01*
X60547000Y68057158D02*
X60504143Y68142872D01*
X60504143Y68142872D02*
X60461286Y68185729D01*
X60461286Y68185729D02*
X60375571Y68228586D01*
X60375571Y68228586D02*
X60204143Y68228586D01*
X60204143Y68228586D02*
X60118428Y68185729D01*
X60118428Y68185729D02*
X60075571Y68142872D01*
X60075571Y68142872D02*
X60032714Y68057158D01*
X57055557Y12300001D02*
X57698414Y12300001D01*
X57698414Y12300001D02*
X57826985Y12257144D01*
X57826985Y12257144D02*
X57912700Y12171430D01*
X57912700Y12171430D02*
X57955557Y12042858D01*
X57955557Y12042858D02*
X57955557Y11957144D01*
X57441271Y12857144D02*
X57398414Y12771429D01*
X57398414Y12771429D02*
X57355557Y12728572D01*
X57355557Y12728572D02*
X57269842Y12685715D01*
X57269842Y12685715D02*
X57226985Y12685715D01*
X57226985Y12685715D02*
X57141271Y12728572D01*
X57141271Y12728572D02*
X57098414Y12771429D01*
X57098414Y12771429D02*
X57055557Y12857144D01*
X57055557Y12857144D02*
X57055557Y13028572D01*
X57055557Y13028572D02*
X57098414Y13114286D01*
X57098414Y13114286D02*
X57141271Y13157144D01*
X57141271Y13157144D02*
X57226985Y13200001D01*
X57226985Y13200001D02*
X57269842Y13200001D01*
X57269842Y13200001D02*
X57355557Y13157144D01*
X57355557Y13157144D02*
X57398414Y13114286D01*
X57398414Y13114286D02*
X57441271Y13028572D01*
X57441271Y13028572D02*
X57441271Y12857144D01*
X57441271Y12857144D02*
X57484128Y12771429D01*
X57484128Y12771429D02*
X57526985Y12728572D01*
X57526985Y12728572D02*
X57612700Y12685715D01*
X57612700Y12685715D02*
X57784128Y12685715D01*
X57784128Y12685715D02*
X57869842Y12728572D01*
X57869842Y12728572D02*
X57912700Y12771429D01*
X57912700Y12771429D02*
X57955557Y12857144D01*
X57955557Y12857144D02*
X57955557Y13028572D01*
X57955557Y13028572D02*
X57912700Y13114286D01*
X57912700Y13114286D02*
X57869842Y13157144D01*
X57869842Y13157144D02*
X57784128Y13200001D01*
X57784128Y13200001D02*
X57612700Y13200001D01*
X57612700Y13200001D02*
X57526985Y13157144D01*
X57526985Y13157144D02*
X57484128Y13114286D01*
X57484128Y13114286D02*
X57441271Y13028572D01*
D13*
%TO.C,R31*%
X6712000Y76272936D02*
X6712000Y76727064D01*
X8182000Y76272936D02*
X8182000Y76727064D01*
%TO.C,R3*%
X33219936Y35835000D02*
X33674064Y35835000D01*
X33219936Y34365000D02*
X33674064Y34365000D01*
%TO.C,C14*%
X6335748Y35110000D02*
X7758252Y35110000D01*
X6335748Y33290000D02*
X7758252Y33290000D01*
%TO.C,Q1*%
X46687000Y73560000D02*
X48207000Y73560000D01*
X46687000Y73510000D02*
X46687000Y73560000D01*
X46687000Y71610000D02*
X46687000Y72390000D01*
X46687000Y70440000D02*
X46687000Y70490000D01*
X48207000Y73560000D02*
X48207000Y72560000D01*
X48207000Y71440000D02*
X48207000Y70440000D01*
X48207000Y70440000D02*
X46687000Y70440000D01*
X46387000Y72050000D02*
X45907000Y72050000D01*
X46147000Y72380000D01*
X46387000Y72050000D01*
G36*
X46387000Y72050000D02*
G01*
X45907000Y72050000D01*
X46147000Y72380000D01*
X46387000Y72050000D01*
G37*
%TO.C,R41*%
X32152000Y57472936D02*
X32152000Y57927064D01*
X33622000Y57472936D02*
X33622000Y57927064D01*
D14*
%TO.C,U1*%
X3147000Y88280000D02*
X57147000Y88280000D01*
X3147000Y50280000D02*
X3147000Y88280000D01*
X3147000Y50280000D02*
X57147000Y50280000D01*
X57147000Y50280000D02*
X57147000Y88280000D01*
D13*
%TO.C,C16*%
X14735748Y49660000D02*
X16158252Y49660000D01*
X14735748Y47840000D02*
X16158252Y47840000D01*
%TO.C,R2*%
X42712000Y71772936D02*
X42712000Y72227064D01*
X44182000Y71772936D02*
X44182000Y72227064D01*
%TO.C,R10*%
X18474064Y36235000D02*
X18019936Y36235000D01*
X18474064Y34765000D02*
X18019936Y34765000D01*
D15*
%TO.C,J2*%
X6947000Y17950000D02*
X14547000Y17950000D01*
X6947000Y10750000D02*
X6947000Y17950000D01*
X7452000Y10350000D02*
X7527000Y10750000D01*
X7527000Y10750000D02*
X6947000Y10750000D01*
X8227000Y10750000D02*
X8302000Y10350000D01*
X8302000Y10350000D02*
X7452000Y10350000D01*
X13192000Y10350000D02*
X13267000Y10750000D01*
X13267000Y10750000D02*
X8227000Y10750000D01*
X13967000Y10750000D02*
X14042000Y10350000D01*
X14042000Y10350000D02*
X13192000Y10350000D01*
X14547000Y17950000D02*
X14547000Y10750000D01*
X14547000Y10750000D02*
X13967000Y10750000D01*
D16*
X9347000Y11850000D02*
G75*
G02*
X9147000Y11850000I-100000J0D01*
G01*
X9147000Y11850000D02*
G75*
G02*
X9347000Y11850000I100000J0D01*
G01*
D15*
%TO.C,J3*%
X6947000Y10950000D02*
X14547000Y10950000D01*
X6947000Y3750000D02*
X6947000Y10950000D01*
X7452000Y3350000D02*
X7527000Y3750000D01*
X7527000Y3750000D02*
X6947000Y3750000D01*
X8227000Y3750000D02*
X8302000Y3350000D01*
X8302000Y3350000D02*
X7452000Y3350000D01*
X13192000Y3350000D02*
X13267000Y3750000D01*
X13267000Y3750000D02*
X8227000Y3750000D01*
X13967000Y3750000D02*
X14042000Y3350000D01*
X14042000Y3350000D02*
X13192000Y3350000D01*
X14547000Y10950000D02*
X14547000Y3750000D01*
X14547000Y3750000D02*
X13967000Y3750000D01*
D16*
X9347000Y4850000D02*
G75*
G02*
X9147000Y4850000I-100000J0D01*
G01*
X9147000Y4850000D02*
G75*
G02*
X9347000Y4850000I100000J0D01*
G01*
D13*
%TO.C,S3*%
X62067000Y34380000D02*
X62067000Y31620000D01*
X67257000Y34380000D02*
X62067000Y34380000D01*
X67257000Y34380000D02*
X67257000Y31620000D01*
X67257000Y31620000D02*
X62067000Y31620000D01*
X68527000Y34380000D02*
X69907000Y34380000D01*
X69907000Y34380000D02*
X69907000Y33000000D01*
%TO.C,C7*%
X59458252Y26260000D02*
X58035748Y26260000D01*
X59458252Y23540000D02*
X58035748Y23540000D01*
%TO.C,R20*%
X20722000Y61672936D02*
X20722000Y62127064D01*
X22192000Y61672936D02*
X22192000Y62127064D01*
%TO.C,R25*%
X25802000Y61672936D02*
X25802000Y62127064D01*
X27272000Y61672936D02*
X27272000Y62127064D01*
%TO.C,R5*%
X37919936Y42435000D02*
X38374064Y42435000D01*
X37919936Y40965000D02*
X38374064Y40965000D01*
%TO.C,R42*%
X30882000Y61672936D02*
X30882000Y62127064D01*
X32352000Y61672936D02*
X32352000Y62127064D01*
%TO.C,R27*%
X27072000Y57472936D02*
X27072000Y57927064D01*
X28542000Y57472936D02*
X28542000Y57927064D01*
%TO.C,C15*%
X6335748Y32610000D02*
X7758252Y32610000D01*
X6335748Y30790000D02*
X7758252Y30790000D01*
%TO.C,R1*%
X54174064Y71735000D02*
X53719936Y71735000D01*
X54174064Y70265000D02*
X53719936Y70265000D01*
%TO.C,C4*%
X45458252Y47660000D02*
X44035748Y47660000D01*
X45458252Y44940000D02*
X44035748Y44940000D01*
%TO.C,R13*%
X35962000Y57772936D02*
X35962000Y58227064D01*
X37432000Y57772936D02*
X37432000Y58227064D01*
%TO.C,S4*%
X62067000Y28880000D02*
X62067000Y26120000D01*
X67257000Y28880000D02*
X62067000Y28880000D01*
X67257000Y28880000D02*
X67257000Y26120000D01*
X67257000Y26120000D02*
X62067000Y26120000D01*
X68527000Y28880000D02*
X69907000Y28880000D01*
X69907000Y28880000D02*
X69907000Y27500000D01*
%TO.C,U3*%
X13037000Y41060000D02*
X14857000Y41060000D01*
X13037000Y41010000D02*
X13037000Y41060000D01*
X13037000Y37940000D02*
X13037000Y37990000D01*
X14857000Y41060000D02*
X14857000Y41010000D01*
X14857000Y37990000D02*
X14857000Y37940000D01*
X14857000Y37940000D02*
X13037000Y37940000D01*
X12497000Y41010000D02*
X12257000Y41340000D01*
X12737000Y41340000D01*
X12497000Y41010000D01*
G36*
X12497000Y41010000D02*
G01*
X12257000Y41340000D01*
X12737000Y41340000D01*
X12497000Y41010000D01*
G37*
%TO.C,L2*%
X5147000Y42600000D02*
X5147000Y42150000D01*
X5147000Y42600000D02*
X11347000Y42600000D01*
X5147000Y36400000D02*
X5147000Y36850000D01*
X11347000Y42600000D02*
X11347000Y42150000D01*
X11347000Y36400000D02*
X5147000Y36400000D01*
X11347000Y36400000D02*
X11347000Y36850000D01*
D15*
%TO.C,J9*%
X59047000Y10950000D02*
X59627000Y10950000D01*
X59047000Y3750000D02*
X59047000Y10950000D01*
X59552000Y11350000D02*
X60402000Y11350000D01*
X59627000Y10950000D02*
X59552000Y11350000D01*
X60327000Y10950000D02*
X65367000Y10950000D01*
X60402000Y11350000D02*
X60327000Y10950000D01*
X65292000Y11350000D02*
X66142000Y11350000D01*
X65367000Y10950000D02*
X65292000Y11350000D01*
X66067000Y10950000D02*
X66647000Y10950000D01*
X66142000Y11350000D02*
X66067000Y10950000D01*
X66647000Y10950000D02*
X66647000Y3750000D01*
X66647000Y3750000D02*
X59047000Y3750000D01*
D16*
X64447000Y9850000D02*
G75*
G02*
X64247000Y9850000I-100000J0D01*
G01*
X64247000Y9850000D02*
G75*
G02*
X64447000Y9850000I100000J0D01*
G01*
D13*
%TO.C,R23*%
X48719936Y81635000D02*
X49174064Y81635000D01*
X48719936Y80165000D02*
X49174064Y80165000D01*
%TO.C,R9*%
X18019936Y42235000D02*
X18474064Y42235000D01*
X18019936Y40765000D02*
X18474064Y40765000D01*
%TO.C,F1*%
X23587000Y18470000D02*
X23587000Y11530000D01*
X23587000Y11530000D02*
X39787000Y11530000D01*
X30087000Y17000000D02*
X33287000Y17000000D01*
X32437000Y15000000D02*
X30937000Y15000000D01*
X33287000Y13000000D02*
X30087000Y13000000D01*
X39787000Y18470000D02*
X23587000Y18470000D01*
X39787000Y11530000D02*
X39787000Y18470000D01*
%TO.C,LED1*%
X64462000Y20860000D02*
X64462000Y18940000D01*
X64462000Y18940000D02*
X67147000Y18940000D01*
X67147000Y20860000D02*
X64462000Y20860000D01*
%TO.C,R7*%
X65919936Y22635000D02*
X66374064Y22635000D01*
X65919936Y21165000D02*
X66374064Y21165000D01*
%TO.C,R6*%
X40172000Y42872936D02*
X40172000Y43327064D01*
X41642000Y42872936D02*
X41642000Y43327064D01*
%TO.C,C17*%
X9018252Y49685000D02*
X8495748Y49685000D01*
X9018252Y48215000D02*
X8495748Y48215000D01*
%TO.C,LED2*%
X5987000Y26100000D02*
X5987000Y23415000D01*
X5987000Y23415000D02*
X7907000Y23415000D01*
X7907000Y23415000D02*
X7907000Y26100000D01*
%TO.C,C12*%
X14208252Y43635000D02*
X13685748Y43635000D01*
X14208252Y42165000D02*
X13685748Y42165000D01*
%TO.C,C5*%
X40485748Y49035000D02*
X41008252Y49035000D01*
X40485748Y47565000D02*
X41008252Y47565000D01*
%TO.C,R32*%
X69674064Y73235000D02*
X69219936Y73235000D01*
X69674064Y71765000D02*
X69219936Y71765000D01*
%TO.C,R11*%
X18019936Y38235000D02*
X18474064Y38235000D01*
X18019936Y36765000D02*
X18474064Y36765000D01*
D15*
%TO.C,J5*%
X49597000Y11000000D02*
X56797000Y11000000D01*
X49597000Y3400000D02*
X49597000Y11000000D01*
X56797000Y11000000D02*
X56797000Y10420000D01*
X56797000Y10420000D02*
X57197000Y10495000D01*
X56797000Y9720000D02*
X56797000Y4680000D01*
X56797000Y4680000D02*
X57197000Y4755000D01*
X56797000Y3980000D02*
X56797000Y3400000D01*
X56797000Y3400000D02*
X49597000Y3400000D01*
X57197000Y10495000D02*
X57197000Y9645000D01*
X57197000Y9645000D02*
X56797000Y9720000D01*
X57197000Y4755000D02*
X57197000Y3905000D01*
X57197000Y3905000D02*
X56797000Y3980000D01*
D16*
X55797000Y5700000D02*
G75*
G02*
X55597000Y5700000I-100000J0D01*
G01*
X55597000Y5700000D02*
G75*
G02*
X55797000Y5700000I100000J0D01*
G01*
D13*
%TO.C,S2*%
X62067000Y40380000D02*
X62067000Y37620000D01*
X67257000Y40380000D02*
X62067000Y40380000D01*
X67257000Y40380000D02*
X67257000Y37620000D01*
X67257000Y37620000D02*
X62067000Y37620000D01*
X68527000Y40380000D02*
X69907000Y40380000D01*
X69907000Y40380000D02*
X69907000Y39000000D01*
%TO.C,R8*%
X18474064Y40235000D02*
X18019936Y40235000D01*
X18474064Y38765000D02*
X18019936Y38765000D01*
%TO.C,R21*%
X23262000Y61672936D02*
X23262000Y62127064D01*
X24732000Y61672936D02*
X24732000Y62127064D01*
%TO.C,R26*%
X19452000Y57472936D02*
X19452000Y57927064D01*
X20922000Y57472936D02*
X20922000Y57927064D01*
%TO.C,C3*%
X45458252Y43960000D02*
X44035748Y43960000D01*
X45458252Y41240000D02*
X44035748Y41240000D01*
%TO.C,C1*%
X22087000Y45860000D02*
X24937000Y45860000D01*
X22087000Y38204437D02*
X22087000Y45860000D01*
X23151437Y37140000D02*
X22087000Y38204437D01*
X23151437Y37140000D02*
X24937000Y37140000D01*
X23437000Y36400000D02*
X24437000Y36400000D01*
X23937000Y35900000D02*
X23937000Y36900000D01*
X29742563Y37140000D02*
X27957000Y37140000D01*
X29742563Y37140000D02*
X30807000Y38204437D01*
X30807000Y45860000D02*
X27957000Y45860000D01*
X30807000Y38204437D02*
X30807000Y45860000D01*
%TO.C,C18*%
X23185748Y80035000D02*
X23708252Y80035000D01*
X23185748Y78565000D02*
X23708252Y78565000D01*
%TO.C,R33*%
X69674064Y71235000D02*
X69219936Y71235000D01*
X69674064Y69765000D02*
X69219936Y69765000D01*
%TO.C,R12*%
X6212000Y28727064D02*
X6212000Y28272936D01*
X7682000Y28727064D02*
X7682000Y28272936D01*
%TO.C,R40*%
X29612000Y57472936D02*
X29612000Y57927064D01*
X31082000Y57472936D02*
X31082000Y57927064D01*
%TO.C,D2*%
X17697000Y33410000D02*
X17697000Y24900000D01*
X17697000Y33410000D02*
X24197000Y33410000D01*
X24197000Y33410000D02*
X24197000Y24900000D01*
%TO.C,D1*%
X15747000Y11690000D02*
X15747000Y20200000D01*
X22247000Y11690000D02*
X15747000Y11690000D01*
X22247000Y11690000D02*
X22247000Y20200000D01*
D15*
%TO.C,J1*%
X33097000Y11000000D02*
X40297000Y11000000D01*
X33097000Y3400000D02*
X33097000Y11000000D01*
X40297000Y11000000D02*
X40297000Y10420000D01*
X40297000Y10420000D02*
X40697000Y10495000D01*
X40297000Y9720000D02*
X40297000Y4680000D01*
X40297000Y4680000D02*
X40697000Y4755000D01*
X40297000Y3980000D02*
X40297000Y3400000D01*
X40297000Y3400000D02*
X33097000Y3400000D01*
X40697000Y10495000D02*
X40697000Y9645000D01*
X40697000Y9645000D02*
X40297000Y9720000D01*
X40697000Y4755000D02*
X40697000Y3905000D01*
X40697000Y3905000D02*
X40297000Y3980000D01*
D16*
X39297000Y5700000D02*
G75*
G02*
X39097000Y5700000I-100000J0D01*
G01*
X39097000Y5700000D02*
G75*
G02*
X39297000Y5700000I100000J0D01*
G01*
D13*
%TO.C,U2*%
X38247000Y34925000D02*
X38937000Y34925000D01*
X38247000Y33560000D02*
X38247000Y34925000D01*
X48647000Y34925000D02*
X47957000Y34925000D01*
X48647000Y33560000D02*
X48647000Y34925000D01*
X48387000Y37410000D02*
X47917000Y37750000D01*
X48387000Y38090000D01*
X48387000Y37410000D01*
G36*
X48387000Y37410000D02*
G01*
X47917000Y37750000D01*
X48387000Y38090000D01*
X48387000Y37410000D01*
G37*
%TO.C,C2*%
X24712000Y31638748D02*
X24712000Y32161252D01*
X26182000Y31638748D02*
X26182000Y32161252D01*
%TO.C,C6*%
X47512000Y44361252D02*
X47512000Y43838748D01*
X48982000Y44361252D02*
X48982000Y43838748D01*
%TO.C,S1*%
X62067000Y46380000D02*
X62067000Y43620000D01*
X67257000Y46380000D02*
X62067000Y46380000D01*
X67257000Y46380000D02*
X67257000Y43620000D01*
X67257000Y43620000D02*
X62067000Y43620000D01*
X68527000Y46380000D02*
X69907000Y46380000D01*
X69907000Y46380000D02*
X69907000Y45000000D01*
%TO.C,C13*%
X15612000Y31338748D02*
X15612000Y31861252D01*
X17082000Y31338748D02*
X17082000Y31861252D01*
%TO.C,J6*%
X58567000Y71730000D02*
X58567000Y76920000D01*
X61327000Y76920000D02*
X58567000Y76920000D01*
X61327000Y71730000D02*
X58567000Y71730000D01*
X61327000Y71730000D02*
X61327000Y76920000D01*
X61327000Y70460000D02*
X61327000Y69080000D01*
X61327000Y69080000D02*
X59947000Y69080000D01*
%TO.C,D4*%
X12957000Y47550000D02*
X7447000Y47550000D01*
X12957000Y44250000D02*
X7447000Y44250000D01*
X12957000Y44250000D02*
X12957000Y47550000D01*
%TO.C,C8*%
X53435748Y27460000D02*
X54858252Y27460000D01*
X53435748Y24740000D02*
X54858252Y24740000D01*
D15*
%TO.C,J11*%
X16097000Y11000000D02*
X23297000Y11000000D01*
X16097000Y3400000D02*
X16097000Y11000000D01*
X23297000Y11000000D02*
X23297000Y10420000D01*
X23297000Y10420000D02*
X23697000Y10495000D01*
X23297000Y9720000D02*
X23297000Y4680000D01*
X23297000Y4680000D02*
X23697000Y4755000D01*
X23297000Y3980000D02*
X23297000Y3400000D01*
X23297000Y3400000D02*
X16097000Y3400000D01*
X23697000Y10495000D02*
X23697000Y9645000D01*
X23697000Y9645000D02*
X23297000Y9720000D01*
X23697000Y4755000D02*
X23697000Y3905000D01*
X23697000Y3905000D02*
X23297000Y3980000D01*
D16*
X22297000Y5700000D02*
G75*
G02*
X22097000Y5700000I-100000J0D01*
G01*
X22097000Y5700000D02*
G75*
G02*
X22297000Y5700000I100000J0D01*
G01*
D13*
%TO.C,R22*%
X18182000Y61672936D02*
X18182000Y62127064D01*
X19652000Y61672936D02*
X19652000Y62127064D01*
%TO.C,R30*%
X4712000Y76272936D02*
X4712000Y76727064D01*
X6182000Y76272936D02*
X6182000Y76727064D01*
%TO.C,L1*%
X49797000Y30150000D02*
X49797000Y39650000D01*
X52947000Y40050000D02*
X50197000Y40050000D01*
X52947000Y29750000D02*
X50197000Y29750000D01*
X59697000Y40050000D02*
X56947000Y40050000D01*
X59697000Y29750000D02*
X56947000Y29750000D01*
X60097000Y39650000D02*
X60097000Y30150000D01*
X60347000Y40300000D02*
X58947000Y40300000D01*
X60347000Y40300000D02*
X60347000Y38900000D01*
X49797000Y39650000D02*
G75*
G02*
X50197000Y40050000I399999J1D01*
G01*
X50197000Y29750000D02*
G75*
G02*
X49797000Y30150000I0J400000D01*
G01*
X59697000Y40050000D02*
G75*
G02*
X60097000Y39650000I1J-399999D01*
G01*
X60097000Y30150000D02*
G75*
G02*
X59697000Y29750000I-400000J0D01*
G01*
%TO.C,R4*%
X33674064Y38035000D02*
X33219936Y38035000D01*
X33674064Y36565000D02*
X33219936Y36565000D01*
%TO.C,R14*%
X23219936Y82035000D02*
X23674064Y82035000D01*
X23219936Y80565000D02*
X23674064Y80565000D01*
%TO.C,D3*%
X49987000Y41440000D02*
X49987000Y46500000D01*
X49987000Y41440000D02*
X52707000Y41440000D01*
X52707000Y41440000D02*
X52707000Y46500000D01*
%TO.C,C10*%
X14858252Y37260000D02*
X13435748Y37260000D01*
X14858252Y34540000D02*
X13435748Y34540000D01*
D15*
%TO.C,J4*%
X42597000Y11000000D02*
X49797000Y11000000D01*
X42597000Y3400000D02*
X42597000Y11000000D01*
X49797000Y11000000D02*
X49797000Y10420000D01*
X49797000Y10420000D02*
X50197000Y10495000D01*
X49797000Y9720000D02*
X49797000Y4680000D01*
X49797000Y4680000D02*
X50197000Y4755000D01*
X49797000Y3980000D02*
X49797000Y3400000D01*
X49797000Y3400000D02*
X42597000Y3400000D01*
X50197000Y10495000D02*
X50197000Y9645000D01*
X50197000Y9645000D02*
X49797000Y9720000D01*
X50197000Y4755000D02*
X50197000Y3905000D01*
X50197000Y3905000D02*
X49797000Y3980000D01*
D16*
X48797000Y5700000D02*
G75*
G02*
X48597000Y5700000I-100000J0D01*
G01*
X48597000Y5700000D02*
G75*
G02*
X48797000Y5700000I100000J0D01*
G01*
D13*
%TO.C,C9*%
X63037000Y55410000D02*
X65387000Y55410000D01*
X63037000Y49654437D02*
X63037000Y55410000D01*
X64101437Y48590000D02*
X63037000Y49654437D01*
X64101437Y48590000D02*
X65387000Y48590000D01*
X64205750Y47956250D02*
X64993250Y47956250D01*
X64599500Y47562500D02*
X64599500Y48350000D01*
X68792563Y48590000D02*
X67507000Y48590000D01*
X68792563Y48590000D02*
X69857000Y49654437D01*
X69857000Y55410000D02*
X67507000Y55410000D01*
X69857000Y49654437D02*
X69857000Y55410000D01*
D15*
%TO.C,J8*%
X59047000Y17950000D02*
X59627000Y17950000D01*
X59047000Y10750000D02*
X59047000Y17950000D01*
X59552000Y18350000D02*
X60402000Y18350000D01*
X59627000Y17950000D02*
X59552000Y18350000D01*
X60327000Y17950000D02*
X65367000Y17950000D01*
X60402000Y18350000D02*
X60327000Y17950000D01*
X65292000Y18350000D02*
X66142000Y18350000D01*
X65367000Y17950000D02*
X65292000Y18350000D01*
X66067000Y17950000D02*
X66647000Y17950000D01*
X66142000Y18350000D02*
X66067000Y17950000D01*
X66647000Y17950000D02*
X66647000Y10750000D01*
X66647000Y10750000D02*
X59047000Y10750000D01*
D16*
X64447000Y16850000D02*
G75*
G02*
X64247000Y16850000I-100000J0D01*
G01*
X64247000Y16850000D02*
G75*
G02*
X64447000Y16850000I100000J0D01*
G01*
D13*
%TO.C,R24*%
X24532000Y57472936D02*
X24532000Y57927064D01*
X26002000Y57472936D02*
X26002000Y57927064D01*
%TO.C,R43*%
X28342000Y61672936D02*
X28342000Y62127064D01*
X29812000Y61672936D02*
X29812000Y62127064D01*
%TO.C,C11*%
X13608252Y33935000D02*
X13085748Y33935000D01*
X13608252Y32465000D02*
X13085748Y32465000D01*
D15*
%TO.C,J10*%
X23097000Y11000000D02*
X30297000Y11000000D01*
X23097000Y3400000D02*
X23097000Y11000000D01*
X30297000Y11000000D02*
X30297000Y10420000D01*
X30297000Y10420000D02*
X30697000Y10495000D01*
X30297000Y9720000D02*
X30297000Y4680000D01*
X30297000Y4680000D02*
X30697000Y4755000D01*
X30297000Y3980000D02*
X30297000Y3400000D01*
X30297000Y3400000D02*
X23097000Y3400000D01*
X30697000Y10495000D02*
X30697000Y9645000D01*
X30697000Y9645000D02*
X30297000Y9720000D01*
X30697000Y4755000D02*
X30697000Y3905000D01*
X30697000Y3905000D02*
X30297000Y3980000D01*
D16*
X29297000Y5700000D02*
G75*
G02*
X29097000Y5700000I-100000J0D01*
G01*
X29097000Y5700000D02*
G75*
G02*
X29297000Y5700000I100000J0D01*
G01*
%TD*%
%LPC*%
D17*
%TO.C,R31*%
X7447000Y75587500D03*
X7447000Y77412500D03*
%TD*%
D18*
%TO.C,R3*%
X32534500Y35100000D03*
X34359500Y35100000D03*
%TD*%
D19*
%TO.C,C14*%
X5572000Y34200000D03*
X8522000Y34200000D03*
%TD*%
D20*
%TO.C,Q1*%
X46509500Y72950000D03*
X46509500Y71050000D03*
X48384500Y72000000D03*
%TD*%
D17*
%TO.C,R41*%
X32887000Y56787500D03*
X32887000Y58612500D03*
%TD*%
D21*
%TO.C,U1*%
X12567000Y51500000D03*
X12567000Y54040000D03*
X10027000Y51500000D03*
X10027000Y54040000D03*
X17647000Y87060000D03*
X17647000Y84520000D03*
X20187000Y87060000D03*
X20187000Y84520000D03*
X22727000Y87060000D03*
X22727000Y84520000D03*
X25267000Y87060000D03*
X25267000Y84520000D03*
X27807000Y87060000D03*
X27807000Y84520000D03*
X30347000Y87060000D03*
X30347000Y84520000D03*
X32887000Y87060000D03*
X32887000Y84520000D03*
X35427000Y87060000D03*
X35427000Y84520000D03*
X15107000Y54040000D03*
X20187000Y54040000D03*
X20187000Y51500000D03*
X22727000Y54040000D03*
X22727000Y51500000D03*
X25267000Y54040000D03*
X25267000Y51500000D03*
X27807000Y54040000D03*
X27807000Y51500000D03*
X30347000Y54040000D03*
X30347000Y51500000D03*
X32887000Y54040000D03*
X32887000Y51500000D03*
X35427000Y54040000D03*
X35427000Y51500000D03*
X37967000Y54040000D03*
X37967000Y51500000D03*
X40507000Y54040000D03*
X40507000Y51500000D03*
X43047000Y54040000D03*
X43047000Y51500000D03*
X45587000Y54040000D03*
X45587000Y51500000D03*
X48127000Y54040000D03*
X48127000Y51500000D03*
X50667000Y54040000D03*
X50667000Y51500000D03*
X53207000Y54040000D03*
X53207000Y51500000D03*
X55747000Y54040000D03*
X55747000Y51500000D03*
X37967000Y87060000D03*
X37967000Y84520000D03*
X40507000Y87060000D03*
X40507000Y84520000D03*
X43047000Y87060000D03*
X43047000Y84520000D03*
X45587000Y87060000D03*
X45587000Y84520000D03*
X48127000Y87060000D03*
X48127000Y84520000D03*
X50667000Y87060000D03*
X50667000Y84520000D03*
X53207000Y87060000D03*
X53207000Y84520000D03*
X55747000Y87060000D03*
X55747000Y84520000D03*
X55747000Y81980000D03*
X53207000Y81980000D03*
X55747000Y79440000D03*
X53207000Y79440000D03*
X55747000Y76900000D03*
X53207000Y76900000D03*
X7487000Y51500000D03*
X7487000Y54040000D03*
X15107000Y51500000D03*
X17647000Y54040000D03*
X17647000Y51500000D03*
X4947000Y51500000D03*
X4947000Y54040000D03*
%TD*%
D19*
%TO.C,C16*%
X13972000Y48750000D03*
X16922000Y48750000D03*
%TD*%
D17*
%TO.C,R2*%
X43447000Y71087500D03*
X43447000Y72912500D03*
%TD*%
D22*
%TO.C,R10*%
X19159500Y35500000D03*
X17334500Y35500000D03*
%TD*%
D23*
%TO.C,J2*%
X11047000Y12600000D03*
X11047000Y16100000D03*
%TD*%
%TO.C,J3*%
X11047000Y5600000D03*
X11047000Y9100000D03*
%TD*%
D24*
%TO.C,S3*%
X68527000Y33000000D03*
D25*
X65987000Y33000000D03*
X63447000Y33000000D03*
%TD*%
D26*
%TO.C,C7*%
X60222000Y24900000D03*
X57272000Y24900000D03*
%TD*%
D17*
%TO.C,R20*%
X21457000Y60987500D03*
X21457000Y62812500D03*
%TD*%
%TO.C,R25*%
X26537000Y60987500D03*
X26537000Y62812500D03*
%TD*%
D18*
%TO.C,R5*%
X37234500Y41700000D03*
X39059500Y41700000D03*
%TD*%
D17*
%TO.C,R42*%
X31617000Y60987500D03*
X31617000Y62812500D03*
%TD*%
%TO.C,R27*%
X27807000Y56787500D03*
X27807000Y58612500D03*
%TD*%
D19*
%TO.C,C15*%
X5572000Y31700000D03*
X8522000Y31700000D03*
%TD*%
D22*
%TO.C,R1*%
X54859500Y71000000D03*
X53034500Y71000000D03*
%TD*%
D26*
%TO.C,C4*%
X46222000Y46300000D03*
X43272000Y46300000D03*
%TD*%
D17*
%TO.C,R13*%
X36697000Y57087500D03*
X36697000Y58912500D03*
%TD*%
D24*
%TO.C,S4*%
X68527000Y27500000D03*
D25*
X65987000Y27500000D03*
X63447000Y27500000D03*
%TD*%
D27*
%TO.C,U3*%
X12809500Y40450000D03*
X12809500Y39500000D03*
X12809500Y38550000D03*
X15084500Y38550000D03*
X15084500Y39500000D03*
X15084500Y40450000D03*
%TD*%
D28*
%TO.C,L2*%
X10322000Y39500000D03*
X6172000Y39500000D03*
%TD*%
D23*
%TO.C,J9*%
X62547000Y9100000D03*
X62547000Y5600000D03*
%TD*%
D18*
%TO.C,R23*%
X48034500Y80900000D03*
X49859500Y80900000D03*
%TD*%
%TO.C,R9*%
X17334500Y41500000D03*
X19159500Y41500000D03*
%TD*%
D29*
%TO.C,F1*%
X36647000Y13300000D03*
X36647000Y16700000D03*
X26727000Y13300000D03*
X26727000Y16700000D03*
%TD*%
D30*
%TO.C,LED1*%
X65209500Y19900000D03*
X67084500Y19900000D03*
%TD*%
D18*
%TO.C,R7*%
X65234500Y21900000D03*
X67059500Y21900000D03*
%TD*%
D17*
%TO.C,R6*%
X40907000Y42187500D03*
X40907000Y44012500D03*
%TD*%
D31*
%TO.C,C17*%
X9707000Y48950000D03*
X7807000Y48950000D03*
%TD*%
D32*
%TO.C,LED2*%
X6947000Y24162500D03*
X6947000Y26037500D03*
%TD*%
D31*
%TO.C,C12*%
X14897000Y42900000D03*
X12997000Y42900000D03*
%TD*%
D33*
%TO.C,C5*%
X39797000Y48300000D03*
X41697000Y48300000D03*
%TD*%
D22*
%TO.C,R32*%
X70359500Y72500000D03*
X68534500Y72500000D03*
%TD*%
D18*
%TO.C,R11*%
X17334500Y37500000D03*
X19159500Y37500000D03*
%TD*%
D23*
%TO.C,J5*%
X54947000Y7500000D03*
X51447000Y7500000D03*
%TD*%
D24*
%TO.C,S2*%
X68527000Y39000000D03*
D25*
X65987000Y39000000D03*
X63447000Y39000000D03*
%TD*%
D22*
%TO.C,R8*%
X19159500Y39500000D03*
X17334500Y39500000D03*
%TD*%
D17*
%TO.C,R21*%
X23997000Y60987500D03*
X23997000Y62812500D03*
%TD*%
%TO.C,R26*%
X20187000Y56787500D03*
X20187000Y58612500D03*
%TD*%
D26*
%TO.C,C3*%
X46222000Y42600000D03*
X43272000Y42600000D03*
%TD*%
D34*
%TO.C,C1*%
X26447000Y37800000D03*
X26447000Y45200000D03*
%TD*%
D33*
%TO.C,C18*%
X22497000Y79300000D03*
X24397000Y79300000D03*
%TD*%
D22*
%TO.C,R33*%
X70359500Y70500000D03*
X68534500Y70500000D03*
%TD*%
D35*
%TO.C,R12*%
X6947000Y29412500D03*
X6947000Y27587500D03*
%TD*%
D17*
%TO.C,R40*%
X30347000Y56787500D03*
X30347000Y58612500D03*
%TD*%
D36*
%TO.C,D2*%
X20947000Y31900000D03*
X20947000Y25100000D03*
%TD*%
D37*
%TO.C,D1*%
X18997000Y13200000D03*
X18997000Y20000000D03*
%TD*%
D23*
%TO.C,J1*%
X38447000Y7500000D03*
X34947000Y7500000D03*
%TD*%
D38*
%TO.C,U2*%
X47257000Y37750000D03*
X45987000Y37750000D03*
X44717000Y37750000D03*
X43447000Y37750000D03*
X42177000Y37750000D03*
X40907000Y37750000D03*
X39637000Y37750000D03*
D39*
X43447000Y28600000D03*
%TD*%
D40*
%TO.C,C2*%
X25447000Y30950000D03*
X25447000Y32850000D03*
%TD*%
D41*
%TO.C,C6*%
X48247000Y45050000D03*
X48247000Y43150000D03*
%TD*%
D24*
%TO.C,S1*%
X68527000Y45000000D03*
D25*
X65987000Y45000000D03*
X63447000Y45000000D03*
%TD*%
D40*
%TO.C,C13*%
X16347000Y30650000D03*
X16347000Y32550000D03*
%TD*%
D24*
%TO.C,J6*%
X59947000Y70460000D03*
D25*
X59947000Y73000000D03*
X59947000Y75540000D03*
%TD*%
D42*
%TO.C,D4*%
X11447000Y45900000D03*
X7447000Y45900000D03*
%TD*%
D43*
%TO.C,C8*%
X52672000Y26100000D03*
X55622000Y26100000D03*
%TD*%
D23*
%TO.C,J11*%
X21447000Y7500000D03*
X17947000Y7500000D03*
%TD*%
D17*
%TO.C,R22*%
X18917000Y60987500D03*
X18917000Y62812500D03*
%TD*%
%TO.C,R30*%
X5447000Y75587500D03*
X5447000Y77412500D03*
%TD*%
D44*
%TO.C,L1*%
X54947000Y39375000D03*
X54947000Y30425000D03*
%TD*%
D22*
%TO.C,R4*%
X34359500Y37300000D03*
X32534500Y37300000D03*
%TD*%
D18*
%TO.C,R14*%
X22534500Y81300000D03*
X24359500Y81300000D03*
%TD*%
D45*
%TO.C,D3*%
X51347000Y42400000D03*
X51347000Y46800000D03*
%TD*%
D26*
%TO.C,C10*%
X15622000Y35900000D03*
X12672000Y35900000D03*
%TD*%
D23*
%TO.C,J4*%
X47947000Y7500000D03*
X44447000Y7500000D03*
%TD*%
D46*
%TO.C,C9*%
X66447000Y49300000D03*
X66447000Y54700000D03*
%TD*%
D23*
%TO.C,J8*%
X62547000Y16100000D03*
X62547000Y12600000D03*
%TD*%
D17*
%TO.C,R24*%
X25267000Y56787500D03*
X25267000Y58612500D03*
%TD*%
%TO.C,R43*%
X29077000Y60987500D03*
X29077000Y62812500D03*
%TD*%
D31*
%TO.C,C11*%
X14297000Y33200000D03*
X12397000Y33200000D03*
%TD*%
D23*
%TO.C,J10*%
X28447000Y7500000D03*
X24947000Y7500000D03*
%TD*%
%LPD*%
M02*
