M48
; DRILL file {KiCad 9.0.8+dfsg-1} date 2026-09-29T16:28:53+0000
; FORMAT={-:-/ absolute / metric / decimal}
; #@! TF.CreationDate,2026-09-29T16:28:53+00:00
; #@! TF.GenerationSoftware,Kicad,Pcbnew,9.0.8+dfsg-1
; #@! TF.FileFunction,Plated,1,2,PTH
FMAT,2
METRIC
; #@! TA.AperFunction,Plated,PTH,ViaDrill
T1C0.300
; #@! TA.AperFunction,Plated,PTH,ComponentDrill
T2C1.000
; #@! TA.AperFunction,Plated,PTH,ComponentDrill
T3C1.300
; #@! TA.AperFunction,Plated,PTH,ComponentDrill
T4C1.780
%
G90
G05
T1
X187.053Y-44.0
X187.053Y-47.0
X187.053Y-50.0
X187.053Y-53.0
X187.053Y-56.0
X187.053Y-122.0
X187.053Y-125.0
X187.053Y-128.0
X187.053Y-131.0
X189.392Y-75.493
X189.511Y-76.307
X190.053Y-44.0
X190.053Y-47.0
X190.053Y-50.0
X190.053Y-59.0
X190.053Y-62.0
X190.053Y-65.0
X190.053Y-68.0
X190.053Y-71.0
X190.053Y-125.0
X190.053Y-128.0
X190.053Y-131.0
X191.0Y-53.8
X192.5Y-109.7
X193.0Y-53.8
X193.053Y-44.0
X193.053Y-47.0
X193.053Y-50.0
X193.053Y-62.0
X193.053Y-65.0
X193.053Y-68.0
X193.053Y-74.0
X193.053Y-83.0
X193.053Y-98.0
X193.053Y-101.0
X193.053Y-113.0
X193.053Y-116.0
X193.053Y-119.0
X193.053Y-128.0
X193.053Y-131.0
X195.3Y-98.3
X195.3Y-100.8
X195.58Y-69.807
X196.053Y-44.0
X196.053Y-47.0
X196.053Y-50.0
X196.053Y-53.0
X196.053Y-56.0
X196.053Y-65.0
X196.053Y-104.0
X196.053Y-107.0
X196.053Y-110.0
X196.053Y-113.0
X196.053Y-131.0
X197.1Y-97.6
X197.95Y-100.8
X198.3Y-91.05
X198.595Y-68.941
X199.053Y-44.0
X199.053Y-47.0
X199.053Y-50.0
X199.053Y-53.0
X199.053Y-56.0
X199.053Y-59.0
X199.053Y-74.0
X199.053Y-104.0
X199.053Y-107.0
X199.053Y-110.0
X199.053Y-113.0
X199.053Y-125.0
X199.053Y-131.0
X200.8Y-98.3
X202.053Y-44.0
X202.053Y-50.0
X202.053Y-53.0
X202.053Y-56.0
X202.053Y-59.0
X202.053Y-62.0
X202.053Y-74.0
X202.053Y-77.0
X202.053Y-86.0
X202.053Y-89.0
X202.053Y-104.0
X202.053Y-107.0
X202.053Y-113.0
X202.053Y-128.0
X202.053Y-131.0
X203.4Y-110.6
X203.9Y-83.75
X205.053Y-53.0
X205.053Y-56.0
X205.053Y-59.0
X205.053Y-62.0
X205.053Y-86.0
X205.053Y-104.0
X205.053Y-113.0
X205.053Y-128.0
X205.053Y-131.0
X205.6Y-110.6
X205.74Y-68.3
X205.95Y-91.0
X205.95Y-95.0
X206.0Y-98.3
X207.3Y-68.651
X208.053Y-56.0
X208.053Y-59.0
X208.053Y-62.0
X208.053Y-65.0
X208.053Y-104.0
X208.053Y-128.0
X208.053Y-131.0
X208.637Y-70.6
X210.82Y-72.7
X211.053Y-50.0
X211.053Y-59.0
X211.053Y-62.0
X211.053Y-65.0
X211.053Y-89.0
X211.053Y-104.0
X211.053Y-107.0
X211.053Y-128.0
X211.053Y-131.0
X211.1Y-52.2
X211.2Y-84.2
X212.09Y-68.4
X212.6Y-99.65
X212.8Y-84.2
X213.36Y-70.594
X213.36Y-72.8
X214.053Y-50.0
X214.053Y-53.0
X214.053Y-56.0
X214.053Y-89.0
X214.053Y-92.0
X214.053Y-104.0
X214.053Y-107.0
X214.053Y-128.0
X214.053Y-131.0
X214.63Y-67.3
X215.9Y-64.0
X216.9Y-95.2
X217.053Y-44.0
X217.053Y-50.0
X217.053Y-53.0
X217.053Y-56.0
X217.053Y-59.0
X217.053Y-62.0
X217.053Y-86.0
X217.053Y-89.0
X217.053Y-92.0
X217.053Y-101.0
X217.053Y-104.0
X217.053Y-107.0
X217.053Y-116.0
X217.053Y-119.0
X217.053Y-122.0
X217.053Y-125.0
X217.053Y-128.0
X217.053Y-131.0
X217.17Y-66.2
X218.44Y-65.1
X220.053Y-50.0
X220.053Y-53.0
X220.053Y-56.0
X220.053Y-59.0
X220.053Y-62.0
X220.053Y-71.0
X220.053Y-86.0
X220.053Y-89.0
X220.053Y-92.0
X220.053Y-101.0
X220.053Y-104.0
X220.053Y-107.0
X220.053Y-128.0
X220.053Y-131.0
X221.6Y-96.3
X222.25Y-72.145
X223.053Y-50.0
X223.053Y-53.0
X223.053Y-56.0
X223.053Y-59.0
X223.053Y-62.0
X223.053Y-86.0
X223.053Y-89.0
X223.053Y-128.0
X223.053Y-131.0
X223.4Y-96.3
X224.5Y-75.861
X225.0Y-100.6
X225.0Y-102.9
X225.0Y-105.2
X225.0Y-107.5
X226.053Y-50.0
X226.053Y-53.0
X226.053Y-56.0
X226.053Y-62.0
X226.053Y-71.0
X226.053Y-98.0
X226.053Y-128.0
X226.053Y-131.0
X226.46Y-87.3
X227.3Y-100.6
X227.3Y-102.9
X227.3Y-105.2
X227.3Y-107.5
X228.45Y-84.0
X228.825Y-88.05
X229.0Y-69.056
X229.053Y-50.0
X229.053Y-53.0
X229.053Y-98.0
X229.053Y-128.0
X229.053Y-131.0
X229.6Y-100.6
X229.6Y-102.9
X229.6Y-105.2
X229.6Y-107.5
X230.27Y-91.8
X231.0Y-62.4
X231.9Y-100.6
X231.9Y-102.9
X231.9Y-105.2
X231.9Y-107.5
X232.053Y-50.0
X232.053Y-56.0
X232.053Y-71.0
X232.053Y-98.0
X232.053Y-128.0
X232.053Y-131.0
X233.8Y-86.1
X235.053Y-44.0
X235.053Y-56.0
X235.053Y-62.0
X235.053Y-71.0
X235.053Y-77.0
X235.053Y-101.0
X235.053Y-104.0
X235.053Y-107.0
X235.053Y-116.0
X235.053Y-119.0
X235.053Y-122.0
X235.053Y-128.0
X235.053Y-131.0
X235.9Y-84.3
X237.9Y-84.3
X238.053Y-71.0
X238.053Y-98.0
X238.053Y-116.0
X238.053Y-119.0
X238.053Y-122.0
X238.053Y-128.0
X241.053Y-71.0
X241.053Y-83.0
X241.053Y-86.0
X241.053Y-89.0
X241.053Y-98.0
X241.053Y-116.0
X241.053Y-119.0
X241.053Y-122.0
X241.175Y-104.5
X242.825Y-109.5
X244.053Y-44.0
X244.053Y-47.0
X244.053Y-50.0
X244.053Y-53.0
X244.053Y-71.0
X244.053Y-77.0
X244.053Y-80.0
X244.053Y-83.0
X244.053Y-86.0
X244.053Y-89.0
X244.053Y-92.0
X244.053Y-95.0
X244.053Y-98.0
X244.053Y-116.0
X244.053Y-119.0
X244.053Y-122.0
X244.053Y-125.0
X244.053Y-128.0
X245.9Y-67.3
X246.5Y-66.2
X247.053Y-44.0
X247.053Y-47.0
X247.053Y-50.0
X247.053Y-53.0
X247.053Y-56.0
X247.053Y-125.0
X247.1Y-65.1
X247.7Y-64.0
X250.053Y-44.0
X250.053Y-47.0
X250.053Y-50.0
X250.053Y-53.0
X250.053Y-56.0
X250.053Y-59.0
X250.053Y-62.0
X250.053Y-65.0
X250.053Y-71.0
X250.053Y-80.0
X250.053Y-119.0
X250.053Y-122.0
X250.053Y-125.0
X250.053Y-128.0
X250.55Y-77.8
X250.76Y-113.95
X252.9Y-60.0
X252.9Y-62.0
X253.053Y-44.0
X253.053Y-47.0
X253.053Y-50.0
X253.053Y-53.0
X253.053Y-56.0
X253.053Y-65.0
X253.053Y-71.0
X253.053Y-80.0
X253.053Y-116.0
X253.053Y-119.0
X253.053Y-122.0
X253.053Y-125.0
X253.053Y-128.0
X253.45Y-77.8
X256.053Y-44.0
X256.053Y-47.0
X256.053Y-50.0
X256.053Y-53.0
X256.053Y-56.0
X256.053Y-65.0
X256.053Y-71.0
X256.053Y-77.0
X256.053Y-80.0
X256.053Y-83.0
X256.053Y-86.0
X256.053Y-89.0
X256.053Y-92.0
X256.053Y-95.0
X256.053Y-98.0
X256.053Y-101.0
X256.053Y-104.0
X256.053Y-107.0
X256.053Y-110.0
X256.053Y-113.0
X256.053Y-116.0
X256.053Y-119.0
X256.053Y-122.0
X256.053Y-125.0
X256.053Y-128.0
X257.7Y-72.8
X258.4Y-63.3
X259.053Y-44.0
X259.053Y-47.0
X259.053Y-50.0
X259.053Y-53.0
X259.053Y-56.0
X259.053Y-59.0
X259.1Y-73.6
X259.75Y-68.4
T2
X190.5Y-78.46
X190.5Y-81.0
X193.04Y-78.46
X193.04Y-81.0
X195.58Y-78.46
X195.58Y-81.0
X198.12Y-78.46
X198.12Y-81.0
X200.66Y-78.46
X200.66Y-81.0
X203.2Y-45.44
X203.2Y-47.98
X203.2Y-78.46
X203.2Y-81.0
X205.74Y-45.44
X205.74Y-47.98
X205.74Y-78.46
X205.74Y-81.0
X208.28Y-45.44
X208.28Y-47.98
X208.28Y-78.46
X208.28Y-81.0
X210.82Y-45.44
X210.82Y-47.98
X210.82Y-78.46
X210.82Y-81.0
X213.36Y-45.44
X213.36Y-47.98
X213.36Y-78.46
X213.36Y-81.0
X215.9Y-45.44
X215.9Y-47.98
X215.9Y-78.46
X215.9Y-81.0
X218.44Y-45.44
X218.44Y-47.98
X218.44Y-78.46
X218.44Y-81.0
X220.98Y-45.44
X220.98Y-47.98
X220.98Y-78.46
X220.98Y-81.0
X223.52Y-45.44
X223.52Y-47.98
X223.52Y-78.46
X223.52Y-81.0
X226.06Y-45.44
X226.06Y-47.98
X226.06Y-78.46
X226.06Y-81.0
X228.6Y-45.44
X228.6Y-47.98
X228.6Y-78.46
X228.6Y-81.0
X231.14Y-45.44
X231.14Y-47.98
X231.14Y-78.46
X231.14Y-81.0
X233.68Y-45.44
X233.68Y-47.98
X233.68Y-78.46
X233.68Y-81.0
X236.22Y-45.44
X236.22Y-47.98
X236.22Y-78.46
X236.22Y-81.0
X238.76Y-45.44
X238.76Y-47.98
X238.76Y-50.52
X238.76Y-53.06
X238.76Y-55.6
X238.76Y-78.46
X238.76Y-81.0
X241.3Y-45.44
X241.3Y-47.98
X241.3Y-50.52
X241.3Y-53.06
X241.3Y-55.6
X241.3Y-78.46
X241.3Y-81.0
X245.5Y-56.96
X245.5Y-59.5
X245.5Y-62.04
X249.0Y-87.5
X249.0Y-93.5
X249.0Y-99.5
X249.0Y-105.0
X251.54Y-87.5
X251.54Y-93.5
X251.54Y-99.5
X251.54Y-105.0
X254.08Y-87.5
X254.08Y-93.5
X254.08Y-99.5
X254.08Y-105.0
T3
X196.6Y-116.4
X196.6Y-119.9
X196.6Y-123.4
X196.6Y-126.9
X203.5Y-125.0
X207.0Y-125.0
X210.5Y-125.0
X214.0Y-125.0
X220.5Y-125.0
X224.0Y-125.0
X230.0Y-125.0
X233.5Y-125.0
X237.0Y-125.0
X240.5Y-125.0
X248.1Y-116.4
X248.1Y-119.9
X248.1Y-123.4
X248.1Y-126.9
T4
X212.28Y-115.8
X212.28Y-119.2
X222.2Y-115.8
X222.2Y-119.2
M30
