%TF.GenerationSoftware,KiCad,Pcbnew,9.0.8+dfsg-1*%
%TF.CreationDate,2026-09-29T16:28:53+00:00*%
%TF.ProjectId,MachineJDG2025_MEGA2560_Shield_v2,4d616368-696e-4654-9a44-47323032355f,rev?*%
%TF.SameCoordinates,Original*%
%TF.FileFunction,Drillmap*%
%TF.FilePolarity,Positive*%
%FSLAX45Y45*%
G04 Gerber Fmt 4.5, Leading zero omitted, Abs format (unit mm)*
G04 Created by KiCad (PCBNEW 9.0.8+dfsg-1) date 2026-09-29 16:28:53*
%MOMM*%
%LPD*%
G01*
G04 APERTURE LIST*
%ADD10C,0.100000*%
%ADD11C,0.200000*%
%ADD12C,0.130000*%
%ADD13C,0.178000*%
G04 APERTURE END LIST*
D10*
X18555300Y-4250000D02*
X26055300Y-4250000D01*
X18555300Y-13250000D02*
X18555300Y-4250000D01*
X26055300Y-4250000D02*
X26055300Y-13250000D01*
X26055300Y-13250000D02*
X18555300Y-13250000D01*
D11*
D10*
X18690300Y-4385000D02*
X18720300Y-4415000D01*
X18720300Y-4385000D02*
X18690300Y-4415000D01*
X18690300Y-4685000D02*
X18720300Y-4715000D01*
X18720300Y-4685000D02*
X18690300Y-4715000D01*
X18690300Y-4985000D02*
X18720300Y-5015000D01*
X18720300Y-4985000D02*
X18690300Y-5015000D01*
X18690300Y-5285000D02*
X18720300Y-5315000D01*
X18720300Y-5285000D02*
X18690300Y-5315000D01*
X18690300Y-5585000D02*
X18720300Y-5615000D01*
X18720300Y-5585000D02*
X18690300Y-5615000D01*
X18690300Y-12185000D02*
X18720300Y-12215000D01*
X18720300Y-12185000D02*
X18690300Y-12215000D01*
X18690300Y-12485000D02*
X18720300Y-12515000D01*
X18720300Y-12485000D02*
X18690300Y-12515000D01*
X18690300Y-12785000D02*
X18720300Y-12815000D01*
X18720300Y-12785000D02*
X18690300Y-12815000D01*
X18690300Y-13085000D02*
X18720300Y-13115000D01*
X18720300Y-13085000D02*
X18690300Y-13115000D01*
X18924210Y-7534290D02*
X18954210Y-7564290D01*
X18954210Y-7534290D02*
X18924210Y-7564290D01*
X18936150Y-7615680D02*
X18966150Y-7645680D01*
X18966150Y-7615680D02*
X18936150Y-7645680D01*
X18990300Y-4385000D02*
X19020300Y-4415000D01*
X19020300Y-4385000D02*
X18990300Y-4415000D01*
X18990300Y-4685000D02*
X19020300Y-4715000D01*
X19020300Y-4685000D02*
X18990300Y-4715000D01*
X18990300Y-4985000D02*
X19020300Y-5015000D01*
X19020300Y-4985000D02*
X18990300Y-5015000D01*
X18990300Y-5885000D02*
X19020300Y-5915000D01*
X19020300Y-5885000D02*
X18990300Y-5915000D01*
X18990300Y-6185000D02*
X19020300Y-6215000D01*
X19020300Y-6185000D02*
X18990300Y-6215000D01*
X18990300Y-6485000D02*
X19020300Y-6515000D01*
X19020300Y-6485000D02*
X18990300Y-6515000D01*
X18990300Y-6785000D02*
X19020300Y-6815000D01*
X19020300Y-6785000D02*
X18990300Y-6815000D01*
X18990300Y-7085000D02*
X19020300Y-7115000D01*
X19020300Y-7085000D02*
X18990300Y-7115000D01*
X18990300Y-12485000D02*
X19020300Y-12515000D01*
X19020300Y-12485000D02*
X18990300Y-12515000D01*
X18990300Y-12785000D02*
X19020300Y-12815000D01*
X19020300Y-12785000D02*
X18990300Y-12815000D01*
X18990300Y-13085000D02*
X19020300Y-13115000D01*
X19020300Y-13085000D02*
X18990300Y-13115000D01*
X19085000Y-5365000D02*
X19115000Y-5395000D01*
X19115000Y-5365000D02*
X19085000Y-5395000D01*
X19235000Y-10955000D02*
X19265000Y-10985000D01*
X19265000Y-10955000D02*
X19235000Y-10985000D01*
X19285000Y-5365000D02*
X19315000Y-5395000D01*
X19315000Y-5365000D02*
X19285000Y-5395000D01*
X19290300Y-4385000D02*
X19320300Y-4415000D01*
X19320300Y-4385000D02*
X19290300Y-4415000D01*
X19290300Y-4685000D02*
X19320300Y-4715000D01*
X19320300Y-4685000D02*
X19290300Y-4715000D01*
X19290300Y-4985000D02*
X19320300Y-5015000D01*
X19320300Y-4985000D02*
X19290300Y-5015000D01*
X19290300Y-6185000D02*
X19320300Y-6215000D01*
X19320300Y-6185000D02*
X19290300Y-6215000D01*
X19290300Y-6485000D02*
X19320300Y-6515000D01*
X19320300Y-6485000D02*
X19290300Y-6515000D01*
X19290300Y-6785000D02*
X19320300Y-6815000D01*
X19320300Y-6785000D02*
X19290300Y-6815000D01*
X19290300Y-7385000D02*
X19320300Y-7415000D01*
X19320300Y-7385000D02*
X19290300Y-7415000D01*
X19290300Y-8285000D02*
X19320300Y-8315000D01*
X19320300Y-8285000D02*
X19290300Y-8315000D01*
X19290300Y-9785000D02*
X19320300Y-9815000D01*
X19320300Y-9785000D02*
X19290300Y-9815000D01*
X19290300Y-10085000D02*
X19320300Y-10115000D01*
X19320300Y-10085000D02*
X19290300Y-10115000D01*
X19290300Y-11285000D02*
X19320300Y-11315000D01*
X19320300Y-11285000D02*
X19290300Y-11315000D01*
X19290300Y-11585000D02*
X19320300Y-11615000D01*
X19320300Y-11585000D02*
X19290300Y-11615000D01*
X19290300Y-11885000D02*
X19320300Y-11915000D01*
X19320300Y-11885000D02*
X19290300Y-11915000D01*
X19290300Y-12785000D02*
X19320300Y-12815000D01*
X19320300Y-12785000D02*
X19290300Y-12815000D01*
X19290300Y-13085000D02*
X19320300Y-13115000D01*
X19320300Y-13085000D02*
X19290300Y-13115000D01*
X19515000Y-9815000D02*
X19545000Y-9845000D01*
X19545000Y-9815000D02*
X19515000Y-9845000D01*
X19515000Y-10065000D02*
X19545000Y-10095000D01*
X19545000Y-10065000D02*
X19515000Y-10095000D01*
X19543000Y-6965670D02*
X19573000Y-6995670D01*
X19573000Y-6965670D02*
X19543000Y-6995670D01*
X19590300Y-4385000D02*
X19620300Y-4415000D01*
X19620300Y-4385000D02*
X19590300Y-4415000D01*
X19590300Y-4685000D02*
X19620300Y-4715000D01*
X19620300Y-4685000D02*
X19590300Y-4715000D01*
X19590300Y-4985000D02*
X19620300Y-5015000D01*
X19620300Y-4985000D02*
X19590300Y-5015000D01*
X19590300Y-5285000D02*
X19620300Y-5315000D01*
X19620300Y-5285000D02*
X19590300Y-5315000D01*
X19590300Y-5585000D02*
X19620300Y-5615000D01*
X19620300Y-5585000D02*
X19590300Y-5615000D01*
X19590300Y-6485000D02*
X19620300Y-6515000D01*
X19620300Y-6485000D02*
X19590300Y-6515000D01*
X19590300Y-10385000D02*
X19620300Y-10415000D01*
X19620300Y-10385000D02*
X19590300Y-10415000D01*
X19590300Y-10685000D02*
X19620300Y-10715000D01*
X19620300Y-10685000D02*
X19590300Y-10715000D01*
X19590300Y-10985000D02*
X19620300Y-11015000D01*
X19620300Y-10985000D02*
X19590300Y-11015000D01*
X19590300Y-11285000D02*
X19620300Y-11315000D01*
X19620300Y-11285000D02*
X19590300Y-11315000D01*
X19590300Y-13085000D02*
X19620300Y-13115000D01*
X19620300Y-13085000D02*
X19590300Y-13115000D01*
X19695000Y-9745000D02*
X19725000Y-9775000D01*
X19725000Y-9745000D02*
X19695000Y-9775000D01*
X19780000Y-10065000D02*
X19810000Y-10095000D01*
X19810000Y-10065000D02*
X19780000Y-10095000D01*
X19815000Y-9090000D02*
X19845000Y-9120000D01*
X19845000Y-9090000D02*
X19815000Y-9120000D01*
X19844460Y-6879110D02*
X19874460Y-6909110D01*
X19874460Y-6879110D02*
X19844460Y-6909110D01*
X19890300Y-4385000D02*
X19920300Y-4415000D01*
X19920300Y-4385000D02*
X19890300Y-4415000D01*
X19890300Y-4685000D02*
X19920300Y-4715000D01*
X19920300Y-4685000D02*
X19890300Y-4715000D01*
X19890300Y-4985000D02*
X19920300Y-5015000D01*
X19920300Y-4985000D02*
X19890300Y-5015000D01*
X19890300Y-5285000D02*
X19920300Y-5315000D01*
X19920300Y-5285000D02*
X19890300Y-5315000D01*
X19890300Y-5585000D02*
X19920300Y-5615000D01*
X19920300Y-5585000D02*
X19890300Y-5615000D01*
X19890300Y-5885000D02*
X19920300Y-5915000D01*
X19920300Y-5885000D02*
X19890300Y-5915000D01*
X19890300Y-7385000D02*
X19920300Y-7415000D01*
X19920300Y-7385000D02*
X19890300Y-7415000D01*
X19890300Y-10385000D02*
X19920300Y-10415000D01*
X19920300Y-10385000D02*
X19890300Y-10415000D01*
X19890300Y-10685000D02*
X19920300Y-10715000D01*
X19920300Y-10685000D02*
X19890300Y-10715000D01*
X19890300Y-10985000D02*
X19920300Y-11015000D01*
X19920300Y-10985000D02*
X19890300Y-11015000D01*
X19890300Y-11285000D02*
X19920300Y-11315000D01*
X19920300Y-11285000D02*
X19890300Y-11315000D01*
X19890300Y-12485000D02*
X19920300Y-12515000D01*
X19920300Y-12485000D02*
X19890300Y-12515000D01*
X19890300Y-13085000D02*
X19920300Y-13115000D01*
X19920300Y-13085000D02*
X19890300Y-13115000D01*
X20065000Y-9815000D02*
X20095000Y-9845000D01*
X20095000Y-9815000D02*
X20065000Y-9845000D01*
X20190300Y-4385000D02*
X20220300Y-4415000D01*
X20220300Y-4385000D02*
X20190300Y-4415000D01*
X20190300Y-4985000D02*
X20220300Y-5015000D01*
X20220300Y-4985000D02*
X20190300Y-5015000D01*
X20190300Y-5285000D02*
X20220300Y-5315000D01*
X20220300Y-5285000D02*
X20190300Y-5315000D01*
X20190300Y-5585000D02*
X20220300Y-5615000D01*
X20220300Y-5585000D02*
X20190300Y-5615000D01*
X20190300Y-5885000D02*
X20220300Y-5915000D01*
X20220300Y-5885000D02*
X20190300Y-5915000D01*
X20190300Y-6185000D02*
X20220300Y-6215000D01*
X20220300Y-6185000D02*
X20190300Y-6215000D01*
X20190300Y-7385000D02*
X20220300Y-7415000D01*
X20220300Y-7385000D02*
X20190300Y-7415000D01*
X20190300Y-7685000D02*
X20220300Y-7715000D01*
X20220300Y-7685000D02*
X20190300Y-7715000D01*
X20190300Y-8585000D02*
X20220300Y-8615000D01*
X20220300Y-8585000D02*
X20190300Y-8615000D01*
X20190300Y-8885000D02*
X20220300Y-8915000D01*
X20220300Y-8885000D02*
X20190300Y-8915000D01*
X20190300Y-10385000D02*
X20220300Y-10415000D01*
X20220300Y-10385000D02*
X20190300Y-10415000D01*
X20190300Y-10685000D02*
X20220300Y-10715000D01*
X20220300Y-10685000D02*
X20190300Y-10715000D01*
X20190300Y-11285000D02*
X20220300Y-11315000D01*
X20220300Y-11285000D02*
X20190300Y-11315000D01*
X20190300Y-12785000D02*
X20220300Y-12815000D01*
X20220300Y-12785000D02*
X20190300Y-12815000D01*
X20190300Y-13085000D02*
X20220300Y-13115000D01*
X20220300Y-13085000D02*
X20190300Y-13115000D01*
X20325000Y-11045000D02*
X20355000Y-11075000D01*
X20355000Y-11045000D02*
X20325000Y-11075000D01*
X20375000Y-8360000D02*
X20405000Y-8390000D01*
X20405000Y-8360000D02*
X20375000Y-8390000D01*
X20490300Y-5285000D02*
X20520300Y-5315000D01*
X20520300Y-5285000D02*
X20490300Y-5315000D01*
X20490300Y-5585000D02*
X20520300Y-5615000D01*
X20520300Y-5585000D02*
X20490300Y-5615000D01*
X20490300Y-5885000D02*
X20520300Y-5915000D01*
X20520300Y-5885000D02*
X20490300Y-5915000D01*
X20490300Y-6185000D02*
X20520300Y-6215000D01*
X20520300Y-6185000D02*
X20490300Y-6215000D01*
X20490300Y-8585000D02*
X20520300Y-8615000D01*
X20520300Y-8585000D02*
X20490300Y-8615000D01*
X20490300Y-10385000D02*
X20520300Y-10415000D01*
X20520300Y-10385000D02*
X20490300Y-10415000D01*
X20490300Y-11285000D02*
X20520300Y-11315000D01*
X20520300Y-11285000D02*
X20490300Y-11315000D01*
X20490300Y-12785000D02*
X20520300Y-12815000D01*
X20520300Y-12785000D02*
X20490300Y-12815000D01*
X20490300Y-13085000D02*
X20520300Y-13115000D01*
X20520300Y-13085000D02*
X20490300Y-13115000D01*
X20545000Y-11045000D02*
X20575000Y-11075000D01*
X20575000Y-11045000D02*
X20545000Y-11075000D01*
X20559000Y-6815000D02*
X20589000Y-6845000D01*
X20589000Y-6815000D02*
X20559000Y-6845000D01*
X20580000Y-9085000D02*
X20610000Y-9115000D01*
X20610000Y-9085000D02*
X20580000Y-9115000D01*
X20580000Y-9485000D02*
X20610000Y-9515000D01*
X20610000Y-9485000D02*
X20580000Y-9515000D01*
X20585000Y-9815000D02*
X20615000Y-9845000D01*
X20615000Y-9815000D02*
X20585000Y-9845000D01*
X20715050Y-6850090D02*
X20745050Y-6880090D01*
X20745050Y-6850090D02*
X20715050Y-6880090D01*
X20790300Y-5585000D02*
X20820300Y-5615000D01*
X20820300Y-5585000D02*
X20790300Y-5615000D01*
X20790300Y-5885000D02*
X20820300Y-5915000D01*
X20820300Y-5885000D02*
X20790300Y-5915000D01*
X20790300Y-6185000D02*
X20820300Y-6215000D01*
X20820300Y-6185000D02*
X20790300Y-6215000D01*
X20790300Y-6485000D02*
X20820300Y-6515000D01*
X20820300Y-6485000D02*
X20790300Y-6515000D01*
X20790300Y-10385000D02*
X20820300Y-10415000D01*
X20820300Y-10385000D02*
X20790300Y-10415000D01*
X20790300Y-12785000D02*
X20820300Y-12815000D01*
X20820300Y-12785000D02*
X20790300Y-12815000D01*
X20790300Y-13085000D02*
X20820300Y-13115000D01*
X20820300Y-13085000D02*
X20790300Y-13115000D01*
X20848720Y-7045030D02*
X20878720Y-7075030D01*
X20878720Y-7045030D02*
X20848720Y-7075030D01*
X21067000Y-7255000D02*
X21097000Y-7285000D01*
X21097000Y-7255000D02*
X21067000Y-7285000D01*
X21090300Y-4985000D02*
X21120300Y-5015000D01*
X21120300Y-4985000D02*
X21090300Y-5015000D01*
X21090300Y-5885000D02*
X21120300Y-5915000D01*
X21120300Y-5885000D02*
X21090300Y-5915000D01*
X21090300Y-6185000D02*
X21120300Y-6215000D01*
X21120300Y-6185000D02*
X21090300Y-6215000D01*
X21090300Y-6485000D02*
X21120300Y-6515000D01*
X21120300Y-6485000D02*
X21090300Y-6515000D01*
X21090300Y-8885000D02*
X21120300Y-8915000D01*
X21120300Y-8885000D02*
X21090300Y-8915000D01*
X21090300Y-10385000D02*
X21120300Y-10415000D01*
X21120300Y-10385000D02*
X21090300Y-10415000D01*
X21090300Y-10685000D02*
X21120300Y-10715000D01*
X21120300Y-10685000D02*
X21090300Y-10715000D01*
X21090300Y-12785000D02*
X21120300Y-12815000D01*
X21120300Y-12785000D02*
X21090300Y-12815000D01*
X21090300Y-13085000D02*
X21120300Y-13115000D01*
X21120300Y-13085000D02*
X21090300Y-13115000D01*
X21095000Y-5205000D02*
X21125000Y-5235000D01*
X21125000Y-5205000D02*
X21095000Y-5235000D01*
X21105000Y-8405000D02*
X21135000Y-8435000D01*
X21135000Y-8405000D02*
X21105000Y-8435000D01*
X21194000Y-6825000D02*
X21224000Y-6855000D01*
X21224000Y-6825000D02*
X21194000Y-6855000D01*
X21245000Y-9950000D02*
X21275000Y-9980000D01*
X21275000Y-9950000D02*
X21245000Y-9980000D01*
X21265000Y-8405000D02*
X21295000Y-8435000D01*
X21295000Y-8405000D02*
X21265000Y-8435000D01*
X21321000Y-7044420D02*
X21351000Y-7074420D01*
X21351000Y-7044420D02*
X21321000Y-7074420D01*
X21321000Y-7265000D02*
X21351000Y-7295000D01*
X21351000Y-7265000D02*
X21321000Y-7295000D01*
X21390300Y-4985000D02*
X21420300Y-5015000D01*
X21420300Y-4985000D02*
X21390300Y-5015000D01*
X21390300Y-5285000D02*
X21420300Y-5315000D01*
X21420300Y-5285000D02*
X21390300Y-5315000D01*
X21390300Y-5585000D02*
X21420300Y-5615000D01*
X21420300Y-5585000D02*
X21390300Y-5615000D01*
X21390300Y-8885000D02*
X21420300Y-8915000D01*
X21420300Y-8885000D02*
X21390300Y-8915000D01*
X21390300Y-9185000D02*
X21420300Y-9215000D01*
X21420300Y-9185000D02*
X21390300Y-9215000D01*
X21390300Y-10385000D02*
X21420300Y-10415000D01*
X21420300Y-10385000D02*
X21390300Y-10415000D01*
X21390300Y-10685000D02*
X21420300Y-10715000D01*
X21420300Y-10685000D02*
X21390300Y-10715000D01*
X21390300Y-12785000D02*
X21420300Y-12815000D01*
X21420300Y-12785000D02*
X21390300Y-12815000D01*
X21390300Y-13085000D02*
X21420300Y-13115000D01*
X21420300Y-13085000D02*
X21390300Y-13115000D01*
X21448000Y-6715000D02*
X21478000Y-6745000D01*
X21478000Y-6715000D02*
X21448000Y-6745000D01*
X21575000Y-6385000D02*
X21605000Y-6415000D01*
X21605000Y-6385000D02*
X21575000Y-6415000D01*
X21675000Y-9505000D02*
X21705000Y-9535000D01*
X21705000Y-9505000D02*
X21675000Y-9535000D01*
X21690300Y-4385000D02*
X21720300Y-4415000D01*
X21720300Y-4385000D02*
X21690300Y-4415000D01*
X21690300Y-4985000D02*
X21720300Y-5015000D01*
X21720300Y-4985000D02*
X21690300Y-5015000D01*
X21690300Y-5285000D02*
X21720300Y-5315000D01*
X21720300Y-5285000D02*
X21690300Y-5315000D01*
X21690300Y-5585000D02*
X21720300Y-5615000D01*
X21720300Y-5585000D02*
X21690300Y-5615000D01*
X21690300Y-5885000D02*
X21720300Y-5915000D01*
X21720300Y-5885000D02*
X21690300Y-5915000D01*
X21690300Y-6185000D02*
X21720300Y-6215000D01*
X21720300Y-6185000D02*
X21690300Y-6215000D01*
X21690300Y-8585000D02*
X21720300Y-8615000D01*
X21720300Y-8585000D02*
X21690300Y-8615000D01*
X21690300Y-8885000D02*
X21720300Y-8915000D01*
X21720300Y-8885000D02*
X21690300Y-8915000D01*
X21690300Y-9185000D02*
X21720300Y-9215000D01*
X21720300Y-9185000D02*
X21690300Y-9215000D01*
X21690300Y-10085000D02*
X21720300Y-10115000D01*
X21720300Y-10085000D02*
X21690300Y-10115000D01*
X21690300Y-10385000D02*
X21720300Y-10415000D01*
X21720300Y-10385000D02*
X21690300Y-10415000D01*
X21690300Y-10685000D02*
X21720300Y-10715000D01*
X21720300Y-10685000D02*
X21690300Y-10715000D01*
X21690300Y-11585000D02*
X21720300Y-11615000D01*
X21720300Y-11585000D02*
X21690300Y-11615000D01*
X21690300Y-11885000D02*
X21720300Y-11915000D01*
X21720300Y-11885000D02*
X21690300Y-11915000D01*
X21690300Y-12185000D02*
X21720300Y-12215000D01*
X21720300Y-12185000D02*
X21690300Y-12215000D01*
X21690300Y-12485000D02*
X21720300Y-12515000D01*
X21720300Y-12485000D02*
X21690300Y-12515000D01*
X21690300Y-12785000D02*
X21720300Y-12815000D01*
X21720300Y-12785000D02*
X21690300Y-12815000D01*
X21690300Y-13085000D02*
X21720300Y-13115000D01*
X21720300Y-13085000D02*
X21690300Y-13115000D01*
X21702000Y-6605000D02*
X21732000Y-6635000D01*
X21732000Y-6605000D02*
X21702000Y-6635000D01*
X21829000Y-6495000D02*
X21859000Y-6525000D01*
X21859000Y-6495000D02*
X21829000Y-6525000D01*
X21990300Y-4985000D02*
X22020300Y-5015000D01*
X22020300Y-4985000D02*
X21990300Y-5015000D01*
X21990300Y-5285000D02*
X22020300Y-5315000D01*
X22020300Y-5285000D02*
X21990300Y-5315000D01*
X21990300Y-5585000D02*
X22020300Y-5615000D01*
X22020300Y-5585000D02*
X21990300Y-5615000D01*
X21990300Y-5885000D02*
X22020300Y-5915000D01*
X22020300Y-5885000D02*
X21990300Y-5915000D01*
X21990300Y-6185000D02*
X22020300Y-6215000D01*
X22020300Y-6185000D02*
X21990300Y-6215000D01*
X21990300Y-7085000D02*
X22020300Y-7115000D01*
X22020300Y-7085000D02*
X21990300Y-7115000D01*
X21990300Y-8585000D02*
X22020300Y-8615000D01*
X22020300Y-8585000D02*
X21990300Y-8615000D01*
X21990300Y-8885000D02*
X22020300Y-8915000D01*
X22020300Y-8885000D02*
X21990300Y-8915000D01*
X21990300Y-9185000D02*
X22020300Y-9215000D01*
X22020300Y-9185000D02*
X21990300Y-9215000D01*
X21990300Y-10085000D02*
X22020300Y-10115000D01*
X22020300Y-10085000D02*
X21990300Y-10115000D01*
X21990300Y-10385000D02*
X22020300Y-10415000D01*
X22020300Y-10385000D02*
X21990300Y-10415000D01*
X21990300Y-10685000D02*
X22020300Y-10715000D01*
X22020300Y-10685000D02*
X21990300Y-10715000D01*
X21990300Y-12785000D02*
X22020300Y-12815000D01*
X22020300Y-12785000D02*
X21990300Y-12815000D01*
X21990300Y-13085000D02*
X22020300Y-13115000D01*
X22020300Y-13085000D02*
X21990300Y-13115000D01*
X22145000Y-9615000D02*
X22175000Y-9645000D01*
X22175000Y-9615000D02*
X22145000Y-9645000D01*
X22210000Y-7199500D02*
X22240000Y-7229500D01*
X22240000Y-7199500D02*
X22210000Y-7229500D01*
X22290300Y-4985000D02*
X22320300Y-5015000D01*
X22320300Y-4985000D02*
X22290300Y-5015000D01*
X22290300Y-5285000D02*
X22320300Y-5315000D01*
X22320300Y-5285000D02*
X22290300Y-5315000D01*
X22290300Y-5585000D02*
X22320300Y-5615000D01*
X22320300Y-5585000D02*
X22290300Y-5615000D01*
X22290300Y-5885000D02*
X22320300Y-5915000D01*
X22320300Y-5885000D02*
X22290300Y-5915000D01*
X22290300Y-6185000D02*
X22320300Y-6215000D01*
X22320300Y-6185000D02*
X22290300Y-6215000D01*
X22290300Y-8585000D02*
X22320300Y-8615000D01*
X22320300Y-8585000D02*
X22290300Y-8615000D01*
X22290300Y-8885000D02*
X22320300Y-8915000D01*
X22320300Y-8885000D02*
X22290300Y-8915000D01*
X22290300Y-12785000D02*
X22320300Y-12815000D01*
X22320300Y-12785000D02*
X22290300Y-12815000D01*
X22290300Y-13085000D02*
X22320300Y-13115000D01*
X22320300Y-13085000D02*
X22290300Y-13115000D01*
X22325000Y-9615000D02*
X22355000Y-9645000D01*
X22355000Y-9615000D02*
X22325000Y-9645000D01*
X22435040Y-7571080D02*
X22465040Y-7601080D01*
X22465040Y-7571080D02*
X22435040Y-7601080D01*
X22485000Y-10045000D02*
X22515000Y-10075000D01*
X22515000Y-10045000D02*
X22485000Y-10075000D01*
X22485000Y-10275000D02*
X22515000Y-10305000D01*
X22515000Y-10275000D02*
X22485000Y-10305000D01*
X22485000Y-10505000D02*
X22515000Y-10535000D01*
X22515000Y-10505000D02*
X22485000Y-10535000D01*
X22485000Y-10735000D02*
X22515000Y-10765000D01*
X22515000Y-10735000D02*
X22485000Y-10765000D01*
X22590300Y-4985000D02*
X22620300Y-5015000D01*
X22620300Y-4985000D02*
X22590300Y-5015000D01*
X22590300Y-5285000D02*
X22620300Y-5315000D01*
X22620300Y-5285000D02*
X22590300Y-5315000D01*
X22590300Y-5585000D02*
X22620300Y-5615000D01*
X22620300Y-5585000D02*
X22590300Y-5615000D01*
X22590300Y-6185000D02*
X22620300Y-6215000D01*
X22620300Y-6185000D02*
X22590300Y-6215000D01*
X22590300Y-7085000D02*
X22620300Y-7115000D01*
X22620300Y-7085000D02*
X22590300Y-7115000D01*
X22590300Y-9785000D02*
X22620300Y-9815000D01*
X22620300Y-9785000D02*
X22590300Y-9815000D01*
X22590300Y-12785000D02*
X22620300Y-12815000D01*
X22620300Y-12785000D02*
X22590300Y-12815000D01*
X22590300Y-13085000D02*
X22620300Y-13115000D01*
X22620300Y-13085000D02*
X22590300Y-13115000D01*
X22631000Y-8715000D02*
X22661000Y-8745000D01*
X22661000Y-8715000D02*
X22631000Y-8745000D01*
X22715000Y-10045000D02*
X22745000Y-10075000D01*
X22745000Y-10045000D02*
X22715000Y-10075000D01*
X22715000Y-10275000D02*
X22745000Y-10305000D01*
X22745000Y-10275000D02*
X22715000Y-10305000D01*
X22715000Y-10505000D02*
X22745000Y-10535000D01*
X22745000Y-10505000D02*
X22715000Y-10535000D01*
X22715000Y-10735000D02*
X22745000Y-10765000D01*
X22745000Y-10735000D02*
X22715000Y-10765000D01*
X22830000Y-8385000D02*
X22860000Y-8415000D01*
X22860000Y-8385000D02*
X22830000Y-8415000D01*
X22867500Y-8790000D02*
X22897500Y-8820000D01*
X22897500Y-8790000D02*
X22867500Y-8820000D01*
X22885000Y-6890610D02*
X22915000Y-6920610D01*
X22915000Y-6890610D02*
X22885000Y-6920610D01*
X22890300Y-4985000D02*
X22920300Y-5015000D01*
X22920300Y-4985000D02*
X22890300Y-5015000D01*
X22890300Y-5285000D02*
X22920300Y-5315000D01*
X22920300Y-5285000D02*
X22890300Y-5315000D01*
X22890300Y-9785000D02*
X22920300Y-9815000D01*
X22920300Y-9785000D02*
X22890300Y-9815000D01*
X22890300Y-12785000D02*
X22920300Y-12815000D01*
X22920300Y-12785000D02*
X22890300Y-12815000D01*
X22890300Y-13085000D02*
X22920300Y-13115000D01*
X22920300Y-13085000D02*
X22890300Y-13115000D01*
X22945000Y-10045000D02*
X22975000Y-10075000D01*
X22975000Y-10045000D02*
X22945000Y-10075000D01*
X22945000Y-10275000D02*
X22975000Y-10305000D01*
X22975000Y-10275000D02*
X22945000Y-10305000D01*
X22945000Y-10505000D02*
X22975000Y-10535000D01*
X22975000Y-10505000D02*
X22945000Y-10535000D01*
X22945000Y-10735000D02*
X22975000Y-10765000D01*
X22975000Y-10735000D02*
X22945000Y-10765000D01*
X23012000Y-9165000D02*
X23042000Y-9195000D01*
X23042000Y-9165000D02*
X23012000Y-9195000D01*
X23085000Y-6225000D02*
X23115000Y-6255000D01*
X23115000Y-6225000D02*
X23085000Y-6255000D01*
X23175000Y-10045000D02*
X23205000Y-10075000D01*
X23205000Y-10045000D02*
X23175000Y-10075000D01*
X23175000Y-10275000D02*
X23205000Y-10305000D01*
X23205000Y-10275000D02*
X23175000Y-10305000D01*
X23175000Y-10505000D02*
X23205000Y-10535000D01*
X23205000Y-10505000D02*
X23175000Y-10535000D01*
X23175000Y-10735000D02*
X23205000Y-10765000D01*
X23205000Y-10735000D02*
X23175000Y-10765000D01*
X23190300Y-4985000D02*
X23220300Y-5015000D01*
X23220300Y-4985000D02*
X23190300Y-5015000D01*
X23190300Y-5585000D02*
X23220300Y-5615000D01*
X23220300Y-5585000D02*
X23190300Y-5615000D01*
X23190300Y-7085000D02*
X23220300Y-7115000D01*
X23220300Y-7085000D02*
X23190300Y-7115000D01*
X23190300Y-9785000D02*
X23220300Y-9815000D01*
X23220300Y-9785000D02*
X23190300Y-9815000D01*
X23190300Y-12785000D02*
X23220300Y-12815000D01*
X23220300Y-12785000D02*
X23190300Y-12815000D01*
X23190300Y-13085000D02*
X23220300Y-13115000D01*
X23220300Y-13085000D02*
X23190300Y-13115000D01*
X23365000Y-8595000D02*
X23395000Y-8625000D01*
X23395000Y-8595000D02*
X23365000Y-8625000D01*
X23490300Y-4385000D02*
X23520300Y-4415000D01*
X23520300Y-4385000D02*
X23490300Y-4415000D01*
X23490300Y-5585000D02*
X23520300Y-5615000D01*
X23520300Y-5585000D02*
X23490300Y-5615000D01*
X23490300Y-6185000D02*
X23520300Y-6215000D01*
X23520300Y-6185000D02*
X23490300Y-6215000D01*
X23490300Y-7085000D02*
X23520300Y-7115000D01*
X23520300Y-7085000D02*
X23490300Y-7115000D01*
X23490300Y-7685000D02*
X23520300Y-7715000D01*
X23520300Y-7685000D02*
X23490300Y-7715000D01*
X23490300Y-10085000D02*
X23520300Y-10115000D01*
X23520300Y-10085000D02*
X23490300Y-10115000D01*
X23490300Y-10385000D02*
X23520300Y-10415000D01*
X23520300Y-10385000D02*
X23490300Y-10415000D01*
X23490300Y-10685000D02*
X23520300Y-10715000D01*
X23520300Y-10685000D02*
X23490300Y-10715000D01*
X23490300Y-11585000D02*
X23520300Y-11615000D01*
X23520300Y-11585000D02*
X23490300Y-11615000D01*
X23490300Y-11885000D02*
X23520300Y-11915000D01*
X23520300Y-11885000D02*
X23490300Y-11915000D01*
X23490300Y-12185000D02*
X23520300Y-12215000D01*
X23520300Y-12185000D02*
X23490300Y-12215000D01*
X23490300Y-12785000D02*
X23520300Y-12815000D01*
X23520300Y-12785000D02*
X23490300Y-12815000D01*
X23490300Y-13085000D02*
X23520300Y-13115000D01*
X23520300Y-13085000D02*
X23490300Y-13115000D01*
X23575000Y-8415000D02*
X23605000Y-8445000D01*
X23605000Y-8415000D02*
X23575000Y-8445000D01*
X23775000Y-8415000D02*
X23805000Y-8445000D01*
X23805000Y-8415000D02*
X23775000Y-8445000D01*
X23790300Y-7085000D02*
X23820300Y-7115000D01*
X23820300Y-7085000D02*
X23790300Y-7115000D01*
X23790300Y-9785000D02*
X23820300Y-9815000D01*
X23820300Y-9785000D02*
X23790300Y-9815000D01*
X23790300Y-11585000D02*
X23820300Y-11615000D01*
X23820300Y-11585000D02*
X23790300Y-11615000D01*
X23790300Y-11885000D02*
X23820300Y-11915000D01*
X23820300Y-11885000D02*
X23790300Y-11915000D01*
X23790300Y-12185000D02*
X23820300Y-12215000D01*
X23820300Y-12185000D02*
X23790300Y-12215000D01*
X23790300Y-12785000D02*
X23820300Y-12815000D01*
X23820300Y-12785000D02*
X23790300Y-12815000D01*
X24090300Y-7085000D02*
X24120300Y-7115000D01*
X24120300Y-7085000D02*
X24090300Y-7115000D01*
X24090300Y-8285000D02*
X24120300Y-8315000D01*
X24120300Y-8285000D02*
X24090300Y-8315000D01*
X24090300Y-8585000D02*
X24120300Y-8615000D01*
X24120300Y-8585000D02*
X24090300Y-8615000D01*
X24090300Y-8885000D02*
X24120300Y-8915000D01*
X24120300Y-8885000D02*
X24090300Y-8915000D01*
X24090300Y-9785000D02*
X24120300Y-9815000D01*
X24120300Y-9785000D02*
X24090300Y-9815000D01*
X24090300Y-11585000D02*
X24120300Y-11615000D01*
X24120300Y-11585000D02*
X24090300Y-11615000D01*
X24090300Y-11885000D02*
X24120300Y-11915000D01*
X24120300Y-11885000D02*
X24090300Y-11915000D01*
X24090300Y-12185000D02*
X24120300Y-12215000D01*
X24120300Y-12185000D02*
X24090300Y-12215000D01*
X24102500Y-10435000D02*
X24132500Y-10465000D01*
X24132500Y-10435000D02*
X24102500Y-10465000D01*
X24267500Y-10935000D02*
X24297500Y-10965000D01*
X24297500Y-10935000D02*
X24267500Y-10965000D01*
X24390300Y-4385000D02*
X24420300Y-4415000D01*
X24420300Y-4385000D02*
X24390300Y-4415000D01*
X24390300Y-4685000D02*
X24420300Y-4715000D01*
X24420300Y-4685000D02*
X24390300Y-4715000D01*
X24390300Y-4985000D02*
X24420300Y-5015000D01*
X24420300Y-4985000D02*
X24390300Y-5015000D01*
X24390300Y-5285000D02*
X24420300Y-5315000D01*
X24420300Y-5285000D02*
X24390300Y-5315000D01*
X24390300Y-7085000D02*
X24420300Y-7115000D01*
X24420300Y-7085000D02*
X24390300Y-7115000D01*
X24390300Y-7685000D02*
X24420300Y-7715000D01*
X24420300Y-7685000D02*
X24390300Y-7715000D01*
X24390300Y-7985000D02*
X24420300Y-8015000D01*
X24420300Y-7985000D02*
X24390300Y-8015000D01*
X24390300Y-8285000D02*
X24420300Y-8315000D01*
X24420300Y-8285000D02*
X24390300Y-8315000D01*
X24390300Y-8585000D02*
X24420300Y-8615000D01*
X24420300Y-8585000D02*
X24390300Y-8615000D01*
X24390300Y-8885000D02*
X24420300Y-8915000D01*
X24420300Y-8885000D02*
X24390300Y-8915000D01*
X24390300Y-9185000D02*
X24420300Y-9215000D01*
X24420300Y-9185000D02*
X24390300Y-9215000D01*
X24390300Y-9485000D02*
X24420300Y-9515000D01*
X24420300Y-9485000D02*
X24390300Y-9515000D01*
X24390300Y-9785000D02*
X24420300Y-9815000D01*
X24420300Y-9785000D02*
X24390300Y-9815000D01*
X24390300Y-11585000D02*
X24420300Y-11615000D01*
X24420300Y-11585000D02*
X24390300Y-11615000D01*
X24390300Y-11885000D02*
X24420300Y-11915000D01*
X24420300Y-11885000D02*
X24390300Y-11915000D01*
X24390300Y-12185000D02*
X24420300Y-12215000D01*
X24420300Y-12185000D02*
X24390300Y-12215000D01*
X24390300Y-12485000D02*
X24420300Y-12515000D01*
X24420300Y-12485000D02*
X24390300Y-12515000D01*
X24390300Y-12785000D02*
X24420300Y-12815000D01*
X24420300Y-12785000D02*
X24390300Y-12815000D01*
X24575000Y-6715000D02*
X24605000Y-6745000D01*
X24605000Y-6715000D02*
X24575000Y-6745000D01*
X24635000Y-6605000D02*
X24665000Y-6635000D01*
X24665000Y-6605000D02*
X24635000Y-6635000D01*
X24690300Y-4385000D02*
X24720300Y-4415000D01*
X24720300Y-4385000D02*
X24690300Y-4415000D01*
X24690300Y-4685000D02*
X24720300Y-4715000D01*
X24720300Y-4685000D02*
X24690300Y-4715000D01*
X24690300Y-4985000D02*
X24720300Y-5015000D01*
X24720300Y-4985000D02*
X24690300Y-5015000D01*
X24690300Y-5285000D02*
X24720300Y-5315000D01*
X24720300Y-5285000D02*
X24690300Y-5315000D01*
X24690300Y-5585000D02*
X24720300Y-5615000D01*
X24720300Y-5585000D02*
X24690300Y-5615000D01*
X24690300Y-12485000D02*
X24720300Y-12515000D01*
X24720300Y-12485000D02*
X24690300Y-12515000D01*
X24695000Y-6495000D02*
X24725000Y-6525000D01*
X24725000Y-6495000D02*
X24695000Y-6525000D01*
X24755000Y-6385000D02*
X24785000Y-6415000D01*
X24785000Y-6385000D02*
X24755000Y-6415000D01*
X24990300Y-4385000D02*
X25020300Y-4415000D01*
X25020300Y-4385000D02*
X24990300Y-4415000D01*
X24990300Y-4685000D02*
X25020300Y-4715000D01*
X25020300Y-4685000D02*
X24990300Y-4715000D01*
X24990300Y-4985000D02*
X25020300Y-5015000D01*
X25020300Y-4985000D02*
X24990300Y-5015000D01*
X24990300Y-5285000D02*
X25020300Y-5315000D01*
X25020300Y-5285000D02*
X24990300Y-5315000D01*
X24990300Y-5585000D02*
X25020300Y-5615000D01*
X25020300Y-5585000D02*
X24990300Y-5615000D01*
X24990300Y-5885000D02*
X25020300Y-5915000D01*
X25020300Y-5885000D02*
X24990300Y-5915000D01*
X24990300Y-6185000D02*
X25020300Y-6215000D01*
X25020300Y-6185000D02*
X24990300Y-6215000D01*
X24990300Y-6485000D02*
X25020300Y-6515000D01*
X25020300Y-6485000D02*
X24990300Y-6515000D01*
X24990300Y-7085000D02*
X25020300Y-7115000D01*
X25020300Y-7085000D02*
X24990300Y-7115000D01*
X24990300Y-7985000D02*
X25020300Y-8015000D01*
X25020300Y-7985000D02*
X24990300Y-8015000D01*
X24990300Y-11885000D02*
X25020300Y-11915000D01*
X25020300Y-11885000D02*
X24990300Y-11915000D01*
X24990300Y-12185000D02*
X25020300Y-12215000D01*
X25020300Y-12185000D02*
X24990300Y-12215000D01*
X24990300Y-12485000D02*
X25020300Y-12515000D01*
X25020300Y-12485000D02*
X24990300Y-12515000D01*
X24990300Y-12785000D02*
X25020300Y-12815000D01*
X25020300Y-12785000D02*
X24990300Y-12815000D01*
X25040000Y-7765000D02*
X25070000Y-7795000D01*
X25070000Y-7765000D02*
X25040000Y-7795000D01*
X25061000Y-11380000D02*
X25091000Y-11410000D01*
X25091000Y-11380000D02*
X25061000Y-11410000D01*
X25275000Y-5985000D02*
X25305000Y-6015000D01*
X25305000Y-5985000D02*
X25275000Y-6015000D01*
X25275000Y-6185000D02*
X25305000Y-6215000D01*
X25305000Y-6185000D02*
X25275000Y-6215000D01*
X25290300Y-4385000D02*
X25320300Y-4415000D01*
X25320300Y-4385000D02*
X25290300Y-4415000D01*
X25290300Y-4685000D02*
X25320300Y-4715000D01*
X25320300Y-4685000D02*
X25290300Y-4715000D01*
X25290300Y-4985000D02*
X25320300Y-5015000D01*
X25320300Y-4985000D02*
X25290300Y-5015000D01*
X25290300Y-5285000D02*
X25320300Y-5315000D01*
X25320300Y-5285000D02*
X25290300Y-5315000D01*
X25290300Y-5585000D02*
X25320300Y-5615000D01*
X25320300Y-5585000D02*
X25290300Y-5615000D01*
X25290300Y-6485000D02*
X25320300Y-6515000D01*
X25320300Y-6485000D02*
X25290300Y-6515000D01*
X25290300Y-7085000D02*
X25320300Y-7115000D01*
X25320300Y-7085000D02*
X25290300Y-7115000D01*
X25290300Y-7985000D02*
X25320300Y-8015000D01*
X25320300Y-7985000D02*
X25290300Y-8015000D01*
X25290300Y-11585000D02*
X25320300Y-11615000D01*
X25320300Y-11585000D02*
X25290300Y-11615000D01*
X25290300Y-11885000D02*
X25320300Y-11915000D01*
X25320300Y-11885000D02*
X25290300Y-11915000D01*
X25290300Y-12185000D02*
X25320300Y-12215000D01*
X25320300Y-12185000D02*
X25290300Y-12215000D01*
X25290300Y-12485000D02*
X25320300Y-12515000D01*
X25320300Y-12485000D02*
X25290300Y-12515000D01*
X25290300Y-12785000D02*
X25320300Y-12815000D01*
X25320300Y-12785000D02*
X25290300Y-12815000D01*
X25330000Y-7765000D02*
X25360000Y-7795000D01*
X25360000Y-7765000D02*
X25330000Y-7795000D01*
X25590300Y-4385000D02*
X25620300Y-4415000D01*
X25620300Y-4385000D02*
X25590300Y-4415000D01*
X25590300Y-4685000D02*
X25620300Y-4715000D01*
X25620300Y-4685000D02*
X25590300Y-4715000D01*
X25590300Y-4985000D02*
X25620300Y-5015000D01*
X25620300Y-4985000D02*
X25590300Y-5015000D01*
X25590300Y-5285000D02*
X25620300Y-5315000D01*
X25620300Y-5285000D02*
X25590300Y-5315000D01*
X25590300Y-5585000D02*
X25620300Y-5615000D01*
X25620300Y-5585000D02*
X25590300Y-5615000D01*
X25590300Y-6485000D02*
X25620300Y-6515000D01*
X25620300Y-6485000D02*
X25590300Y-6515000D01*
X25590300Y-7085000D02*
X25620300Y-7115000D01*
X25620300Y-7085000D02*
X25590300Y-7115000D01*
X25590300Y-7685000D02*
X25620300Y-7715000D01*
X25620300Y-7685000D02*
X25590300Y-7715000D01*
X25590300Y-7985000D02*
X25620300Y-8015000D01*
X25620300Y-7985000D02*
X25590300Y-8015000D01*
X25590300Y-8285000D02*
X25620300Y-8315000D01*
X25620300Y-8285000D02*
X25590300Y-8315000D01*
X25590300Y-8585000D02*
X25620300Y-8615000D01*
X25620300Y-8585000D02*
X25590300Y-8615000D01*
X25590300Y-8885000D02*
X25620300Y-8915000D01*
X25620300Y-8885000D02*
X25590300Y-8915000D01*
X25590300Y-9185000D02*
X25620300Y-9215000D01*
X25620300Y-9185000D02*
X25590300Y-9215000D01*
X25590300Y-9485000D02*
X25620300Y-9515000D01*
X25620300Y-9485000D02*
X25590300Y-9515000D01*
X25590300Y-9785000D02*
X25620300Y-9815000D01*
X25620300Y-9785000D02*
X25590300Y-9815000D01*
X25590300Y-10085000D02*
X25620300Y-10115000D01*
X25620300Y-10085000D02*
X25590300Y-10115000D01*
X25590300Y-10385000D02*
X25620300Y-10415000D01*
X25620300Y-10385000D02*
X25590300Y-10415000D01*
X25590300Y-10685000D02*
X25620300Y-10715000D01*
X25620300Y-10685000D02*
X25590300Y-10715000D01*
X25590300Y-10985000D02*
X25620300Y-11015000D01*
X25620300Y-10985000D02*
X25590300Y-11015000D01*
X25590300Y-11285000D02*
X25620300Y-11315000D01*
X25620300Y-11285000D02*
X25590300Y-11315000D01*
X25590300Y-11585000D02*
X25620300Y-11615000D01*
X25620300Y-11585000D02*
X25590300Y-11615000D01*
X25590300Y-11885000D02*
X25620300Y-11915000D01*
X25620300Y-11885000D02*
X25590300Y-11915000D01*
X25590300Y-12185000D02*
X25620300Y-12215000D01*
X25620300Y-12185000D02*
X25590300Y-12215000D01*
X25590300Y-12485000D02*
X25620300Y-12515000D01*
X25620300Y-12485000D02*
X25590300Y-12515000D01*
X25590300Y-12785000D02*
X25620300Y-12815000D01*
X25620300Y-12785000D02*
X25590300Y-12815000D01*
X25755000Y-7265000D02*
X25785000Y-7295000D01*
X25785000Y-7265000D02*
X25755000Y-7295000D01*
X25825000Y-6315000D02*
X25855000Y-6345000D01*
X25855000Y-6315000D02*
X25825000Y-6345000D01*
X25890300Y-4385000D02*
X25920300Y-4415000D01*
X25920300Y-4385000D02*
X25890300Y-4415000D01*
X25890300Y-4685000D02*
X25920300Y-4715000D01*
X25920300Y-4685000D02*
X25890300Y-4715000D01*
X25890300Y-4985000D02*
X25920300Y-5015000D01*
X25920300Y-4985000D02*
X25890300Y-5015000D01*
X25890300Y-5285000D02*
X25920300Y-5315000D01*
X25920300Y-5285000D02*
X25890300Y-5315000D01*
X25890300Y-5585000D02*
X25920300Y-5615000D01*
X25920300Y-5585000D02*
X25890300Y-5615000D01*
X25890300Y-5885000D02*
X25920300Y-5915000D01*
X25920300Y-5885000D02*
X25890300Y-5915000D01*
X25895000Y-7345000D02*
X25925000Y-7375000D01*
X25925000Y-7345000D02*
X25895000Y-7375000D01*
X25960000Y-6825000D02*
X25990000Y-6855000D01*
X25990000Y-6825000D02*
X25960000Y-6855000D01*
X19100000Y-7846000D02*
G75*
G02*
X19000000Y-7846000I-50000J0D01*
G01*
X19000000Y-7846000D02*
G75*
G02*
X19100000Y-7846000I50000J0D01*
G01*
X19100000Y-8100000D02*
G75*
G02*
X19000000Y-8100000I-50000J0D01*
G01*
X19000000Y-8100000D02*
G75*
G02*
X19100000Y-8100000I50000J0D01*
G01*
X19354000Y-7846000D02*
G75*
G02*
X19254000Y-7846000I-50000J0D01*
G01*
X19254000Y-7846000D02*
G75*
G02*
X19354000Y-7846000I50000J0D01*
G01*
X19354000Y-8100000D02*
G75*
G02*
X19254000Y-8100000I-50000J0D01*
G01*
X19254000Y-8100000D02*
G75*
G02*
X19354000Y-8100000I50000J0D01*
G01*
X19608000Y-7846000D02*
G75*
G02*
X19508000Y-7846000I-50000J0D01*
G01*
X19508000Y-7846000D02*
G75*
G02*
X19608000Y-7846000I50000J0D01*
G01*
X19608000Y-8100000D02*
G75*
G02*
X19508000Y-8100000I-50000J0D01*
G01*
X19508000Y-8100000D02*
G75*
G02*
X19608000Y-8100000I50000J0D01*
G01*
X19862000Y-7846000D02*
G75*
G02*
X19762000Y-7846000I-50000J0D01*
G01*
X19762000Y-7846000D02*
G75*
G02*
X19862000Y-7846000I50000J0D01*
G01*
X19862000Y-8100000D02*
G75*
G02*
X19762000Y-8100000I-50000J0D01*
G01*
X19762000Y-8100000D02*
G75*
G02*
X19862000Y-8100000I50000J0D01*
G01*
X20116000Y-7846000D02*
G75*
G02*
X20016000Y-7846000I-50000J0D01*
G01*
X20016000Y-7846000D02*
G75*
G02*
X20116000Y-7846000I50000J0D01*
G01*
X20116000Y-8100000D02*
G75*
G02*
X20016000Y-8100000I-50000J0D01*
G01*
X20016000Y-8100000D02*
G75*
G02*
X20116000Y-8100000I50000J0D01*
G01*
X20370000Y-4544000D02*
G75*
G02*
X20270000Y-4544000I-50000J0D01*
G01*
X20270000Y-4544000D02*
G75*
G02*
X20370000Y-4544000I50000J0D01*
G01*
X20370000Y-4798000D02*
G75*
G02*
X20270000Y-4798000I-50000J0D01*
G01*
X20270000Y-4798000D02*
G75*
G02*
X20370000Y-4798000I50000J0D01*
G01*
X20370000Y-7846000D02*
G75*
G02*
X20270000Y-7846000I-50000J0D01*
G01*
X20270000Y-7846000D02*
G75*
G02*
X20370000Y-7846000I50000J0D01*
G01*
X20370000Y-8100000D02*
G75*
G02*
X20270000Y-8100000I-50000J0D01*
G01*
X20270000Y-8100000D02*
G75*
G02*
X20370000Y-8100000I50000J0D01*
G01*
X20624000Y-4544000D02*
G75*
G02*
X20524000Y-4544000I-50000J0D01*
G01*
X20524000Y-4544000D02*
G75*
G02*
X20624000Y-4544000I50000J0D01*
G01*
X20624000Y-4798000D02*
G75*
G02*
X20524000Y-4798000I-50000J0D01*
G01*
X20524000Y-4798000D02*
G75*
G02*
X20624000Y-4798000I50000J0D01*
G01*
X20624000Y-7846000D02*
G75*
G02*
X20524000Y-7846000I-50000J0D01*
G01*
X20524000Y-7846000D02*
G75*
G02*
X20624000Y-7846000I50000J0D01*
G01*
X20624000Y-8100000D02*
G75*
G02*
X20524000Y-8100000I-50000J0D01*
G01*
X20524000Y-8100000D02*
G75*
G02*
X20624000Y-8100000I50000J0D01*
G01*
X20878000Y-4544000D02*
G75*
G02*
X20778000Y-4544000I-50000J0D01*
G01*
X20778000Y-4544000D02*
G75*
G02*
X20878000Y-4544000I50000J0D01*
G01*
X20878000Y-4798000D02*
G75*
G02*
X20778000Y-4798000I-50000J0D01*
G01*
X20778000Y-4798000D02*
G75*
G02*
X20878000Y-4798000I50000J0D01*
G01*
X20878000Y-7846000D02*
G75*
G02*
X20778000Y-7846000I-50000J0D01*
G01*
X20778000Y-7846000D02*
G75*
G02*
X20878000Y-7846000I50000J0D01*
G01*
X20878000Y-8100000D02*
G75*
G02*
X20778000Y-8100000I-50000J0D01*
G01*
X20778000Y-8100000D02*
G75*
G02*
X20878000Y-8100000I50000J0D01*
G01*
X21132000Y-4544000D02*
G75*
G02*
X21032000Y-4544000I-50000J0D01*
G01*
X21032000Y-4544000D02*
G75*
G02*
X21132000Y-4544000I50000J0D01*
G01*
X21132000Y-4798000D02*
G75*
G02*
X21032000Y-4798000I-50000J0D01*
G01*
X21032000Y-4798000D02*
G75*
G02*
X21132000Y-4798000I50000J0D01*
G01*
X21132000Y-7846000D02*
G75*
G02*
X21032000Y-7846000I-50000J0D01*
G01*
X21032000Y-7846000D02*
G75*
G02*
X21132000Y-7846000I50000J0D01*
G01*
X21132000Y-8100000D02*
G75*
G02*
X21032000Y-8100000I-50000J0D01*
G01*
X21032000Y-8100000D02*
G75*
G02*
X21132000Y-8100000I50000J0D01*
G01*
X21386000Y-4544000D02*
G75*
G02*
X21286000Y-4544000I-50000J0D01*
G01*
X21286000Y-4544000D02*
G75*
G02*
X21386000Y-4544000I50000J0D01*
G01*
X21386000Y-4798000D02*
G75*
G02*
X21286000Y-4798000I-50000J0D01*
G01*
X21286000Y-4798000D02*
G75*
G02*
X21386000Y-4798000I50000J0D01*
G01*
X21386000Y-7846000D02*
G75*
G02*
X21286000Y-7846000I-50000J0D01*
G01*
X21286000Y-7846000D02*
G75*
G02*
X21386000Y-7846000I50000J0D01*
G01*
X21386000Y-8100000D02*
G75*
G02*
X21286000Y-8100000I-50000J0D01*
G01*
X21286000Y-8100000D02*
G75*
G02*
X21386000Y-8100000I50000J0D01*
G01*
X21640000Y-4544000D02*
G75*
G02*
X21540000Y-4544000I-50000J0D01*
G01*
X21540000Y-4544000D02*
G75*
G02*
X21640000Y-4544000I50000J0D01*
G01*
X21640000Y-4798000D02*
G75*
G02*
X21540000Y-4798000I-50000J0D01*
G01*
X21540000Y-4798000D02*
G75*
G02*
X21640000Y-4798000I50000J0D01*
G01*
X21640000Y-7846000D02*
G75*
G02*
X21540000Y-7846000I-50000J0D01*
G01*
X21540000Y-7846000D02*
G75*
G02*
X21640000Y-7846000I50000J0D01*
G01*
X21640000Y-8100000D02*
G75*
G02*
X21540000Y-8100000I-50000J0D01*
G01*
X21540000Y-8100000D02*
G75*
G02*
X21640000Y-8100000I50000J0D01*
G01*
X21894000Y-4544000D02*
G75*
G02*
X21794000Y-4544000I-50000J0D01*
G01*
X21794000Y-4544000D02*
G75*
G02*
X21894000Y-4544000I50000J0D01*
G01*
X21894000Y-4798000D02*
G75*
G02*
X21794000Y-4798000I-50000J0D01*
G01*
X21794000Y-4798000D02*
G75*
G02*
X21894000Y-4798000I50000J0D01*
G01*
X21894000Y-7846000D02*
G75*
G02*
X21794000Y-7846000I-50000J0D01*
G01*
X21794000Y-7846000D02*
G75*
G02*
X21894000Y-7846000I50000J0D01*
G01*
X21894000Y-8100000D02*
G75*
G02*
X21794000Y-8100000I-50000J0D01*
G01*
X21794000Y-8100000D02*
G75*
G02*
X21894000Y-8100000I50000J0D01*
G01*
X22148000Y-4544000D02*
G75*
G02*
X22048000Y-4544000I-50000J0D01*
G01*
X22048000Y-4544000D02*
G75*
G02*
X22148000Y-4544000I50000J0D01*
G01*
X22148000Y-4798000D02*
G75*
G02*
X22048000Y-4798000I-50000J0D01*
G01*
X22048000Y-4798000D02*
G75*
G02*
X22148000Y-4798000I50000J0D01*
G01*
X22148000Y-7846000D02*
G75*
G02*
X22048000Y-7846000I-50000J0D01*
G01*
X22048000Y-7846000D02*
G75*
G02*
X22148000Y-7846000I50000J0D01*
G01*
X22148000Y-8100000D02*
G75*
G02*
X22048000Y-8100000I-50000J0D01*
G01*
X22048000Y-8100000D02*
G75*
G02*
X22148000Y-8100000I50000J0D01*
G01*
X22402000Y-4544000D02*
G75*
G02*
X22302000Y-4544000I-50000J0D01*
G01*
X22302000Y-4544000D02*
G75*
G02*
X22402000Y-4544000I50000J0D01*
G01*
X22402000Y-4798000D02*
G75*
G02*
X22302000Y-4798000I-50000J0D01*
G01*
X22302000Y-4798000D02*
G75*
G02*
X22402000Y-4798000I50000J0D01*
G01*
X22402000Y-7846000D02*
G75*
G02*
X22302000Y-7846000I-50000J0D01*
G01*
X22302000Y-7846000D02*
G75*
G02*
X22402000Y-7846000I50000J0D01*
G01*
X22402000Y-8100000D02*
G75*
G02*
X22302000Y-8100000I-50000J0D01*
G01*
X22302000Y-8100000D02*
G75*
G02*
X22402000Y-8100000I50000J0D01*
G01*
X22656000Y-4544000D02*
G75*
G02*
X22556000Y-4544000I-50000J0D01*
G01*
X22556000Y-4544000D02*
G75*
G02*
X22656000Y-4544000I50000J0D01*
G01*
X22656000Y-4798000D02*
G75*
G02*
X22556000Y-4798000I-50000J0D01*
G01*
X22556000Y-4798000D02*
G75*
G02*
X22656000Y-4798000I50000J0D01*
G01*
X22656000Y-7846000D02*
G75*
G02*
X22556000Y-7846000I-50000J0D01*
G01*
X22556000Y-7846000D02*
G75*
G02*
X22656000Y-7846000I50000J0D01*
G01*
X22656000Y-8100000D02*
G75*
G02*
X22556000Y-8100000I-50000J0D01*
G01*
X22556000Y-8100000D02*
G75*
G02*
X22656000Y-8100000I50000J0D01*
G01*
X22910000Y-4544000D02*
G75*
G02*
X22810000Y-4544000I-50000J0D01*
G01*
X22810000Y-4544000D02*
G75*
G02*
X22910000Y-4544000I50000J0D01*
G01*
X22910000Y-4798000D02*
G75*
G02*
X22810000Y-4798000I-50000J0D01*
G01*
X22810000Y-4798000D02*
G75*
G02*
X22910000Y-4798000I50000J0D01*
G01*
X22910000Y-7846000D02*
G75*
G02*
X22810000Y-7846000I-50000J0D01*
G01*
X22810000Y-7846000D02*
G75*
G02*
X22910000Y-7846000I50000J0D01*
G01*
X22910000Y-8100000D02*
G75*
G02*
X22810000Y-8100000I-50000J0D01*
G01*
X22810000Y-8100000D02*
G75*
G02*
X22910000Y-8100000I50000J0D01*
G01*
X23164000Y-4544000D02*
G75*
G02*
X23064000Y-4544000I-50000J0D01*
G01*
X23064000Y-4544000D02*
G75*
G02*
X23164000Y-4544000I50000J0D01*
G01*
X23164000Y-4798000D02*
G75*
G02*
X23064000Y-4798000I-50000J0D01*
G01*
X23064000Y-4798000D02*
G75*
G02*
X23164000Y-4798000I50000J0D01*
G01*
X23164000Y-7846000D02*
G75*
G02*
X23064000Y-7846000I-50000J0D01*
G01*
X23064000Y-7846000D02*
G75*
G02*
X23164000Y-7846000I50000J0D01*
G01*
X23164000Y-8100000D02*
G75*
G02*
X23064000Y-8100000I-50000J0D01*
G01*
X23064000Y-8100000D02*
G75*
G02*
X23164000Y-8100000I50000J0D01*
G01*
X23418000Y-4544000D02*
G75*
G02*
X23318000Y-4544000I-50000J0D01*
G01*
X23318000Y-4544000D02*
G75*
G02*
X23418000Y-4544000I50000J0D01*
G01*
X23418000Y-4798000D02*
G75*
G02*
X23318000Y-4798000I-50000J0D01*
G01*
X23318000Y-4798000D02*
G75*
G02*
X23418000Y-4798000I50000J0D01*
G01*
X23418000Y-7846000D02*
G75*
G02*
X23318000Y-7846000I-50000J0D01*
G01*
X23318000Y-7846000D02*
G75*
G02*
X23418000Y-7846000I50000J0D01*
G01*
X23418000Y-8100000D02*
G75*
G02*
X23318000Y-8100000I-50000J0D01*
G01*
X23318000Y-8100000D02*
G75*
G02*
X23418000Y-8100000I50000J0D01*
G01*
X23672000Y-4544000D02*
G75*
G02*
X23572000Y-4544000I-50000J0D01*
G01*
X23572000Y-4544000D02*
G75*
G02*
X23672000Y-4544000I50000J0D01*
G01*
X23672000Y-4798000D02*
G75*
G02*
X23572000Y-4798000I-50000J0D01*
G01*
X23572000Y-4798000D02*
G75*
G02*
X23672000Y-4798000I50000J0D01*
G01*
X23672000Y-7846000D02*
G75*
G02*
X23572000Y-7846000I-50000J0D01*
G01*
X23572000Y-7846000D02*
G75*
G02*
X23672000Y-7846000I50000J0D01*
G01*
X23672000Y-8100000D02*
G75*
G02*
X23572000Y-8100000I-50000J0D01*
G01*
X23572000Y-8100000D02*
G75*
G02*
X23672000Y-8100000I50000J0D01*
G01*
X23926000Y-4544000D02*
G75*
G02*
X23826000Y-4544000I-50000J0D01*
G01*
X23826000Y-4544000D02*
G75*
G02*
X23926000Y-4544000I50000J0D01*
G01*
X23926000Y-4798000D02*
G75*
G02*
X23826000Y-4798000I-50000J0D01*
G01*
X23826000Y-4798000D02*
G75*
G02*
X23926000Y-4798000I50000J0D01*
G01*
X23926000Y-5052000D02*
G75*
G02*
X23826000Y-5052000I-50000J0D01*
G01*
X23826000Y-5052000D02*
G75*
G02*
X23926000Y-5052000I50000J0D01*
G01*
X23926000Y-5306000D02*
G75*
G02*
X23826000Y-5306000I-50000J0D01*
G01*
X23826000Y-5306000D02*
G75*
G02*
X23926000Y-5306000I50000J0D01*
G01*
X23926000Y-5560000D02*
G75*
G02*
X23826000Y-5560000I-50000J0D01*
G01*
X23826000Y-5560000D02*
G75*
G02*
X23926000Y-5560000I50000J0D01*
G01*
X23926000Y-7846000D02*
G75*
G02*
X23826000Y-7846000I-50000J0D01*
G01*
X23826000Y-7846000D02*
G75*
G02*
X23926000Y-7846000I50000J0D01*
G01*
X23926000Y-8100000D02*
G75*
G02*
X23826000Y-8100000I-50000J0D01*
G01*
X23826000Y-8100000D02*
G75*
G02*
X23926000Y-8100000I50000J0D01*
G01*
X24180000Y-4544000D02*
G75*
G02*
X24080000Y-4544000I-50000J0D01*
G01*
X24080000Y-4544000D02*
G75*
G02*
X24180000Y-4544000I50000J0D01*
G01*
X24180000Y-4798000D02*
G75*
G02*
X24080000Y-4798000I-50000J0D01*
G01*
X24080000Y-4798000D02*
G75*
G02*
X24180000Y-4798000I50000J0D01*
G01*
X24180000Y-5052000D02*
G75*
G02*
X24080000Y-5052000I-50000J0D01*
G01*
X24080000Y-5052000D02*
G75*
G02*
X24180000Y-5052000I50000J0D01*
G01*
X24180000Y-5306000D02*
G75*
G02*
X24080000Y-5306000I-50000J0D01*
G01*
X24080000Y-5306000D02*
G75*
G02*
X24180000Y-5306000I50000J0D01*
G01*
X24180000Y-5560000D02*
G75*
G02*
X24080000Y-5560000I-50000J0D01*
G01*
X24080000Y-5560000D02*
G75*
G02*
X24180000Y-5560000I50000J0D01*
G01*
X24180000Y-7846000D02*
G75*
G02*
X24080000Y-7846000I-50000J0D01*
G01*
X24080000Y-7846000D02*
G75*
G02*
X24180000Y-7846000I50000J0D01*
G01*
X24180000Y-8100000D02*
G75*
G02*
X24080000Y-8100000I-50000J0D01*
G01*
X24080000Y-8100000D02*
G75*
G02*
X24180000Y-8100000I50000J0D01*
G01*
X24600000Y-5696000D02*
G75*
G02*
X24500000Y-5696000I-50000J0D01*
G01*
X24500000Y-5696000D02*
G75*
G02*
X24600000Y-5696000I50000J0D01*
G01*
X24600000Y-5950000D02*
G75*
G02*
X24500000Y-5950000I-50000J0D01*
G01*
X24500000Y-5950000D02*
G75*
G02*
X24600000Y-5950000I50000J0D01*
G01*
X24600000Y-6204000D02*
G75*
G02*
X24500000Y-6204000I-50000J0D01*
G01*
X24500000Y-6204000D02*
G75*
G02*
X24600000Y-6204000I50000J0D01*
G01*
X24950000Y-8750000D02*
G75*
G02*
X24850000Y-8750000I-50000J0D01*
G01*
X24850000Y-8750000D02*
G75*
G02*
X24950000Y-8750000I50000J0D01*
G01*
X24950000Y-9350000D02*
G75*
G02*
X24850000Y-9350000I-50000J0D01*
G01*
X24850000Y-9350000D02*
G75*
G02*
X24950000Y-9350000I50000J0D01*
G01*
X24950000Y-9950000D02*
G75*
G02*
X24850000Y-9950000I-50000J0D01*
G01*
X24850000Y-9950000D02*
G75*
G02*
X24950000Y-9950000I50000J0D01*
G01*
X24950000Y-10500000D02*
G75*
G02*
X24850000Y-10500000I-50000J0D01*
G01*
X24850000Y-10500000D02*
G75*
G02*
X24950000Y-10500000I50000J0D01*
G01*
X25204000Y-8750000D02*
G75*
G02*
X25104000Y-8750000I-50000J0D01*
G01*
X25104000Y-8750000D02*
G75*
G02*
X25204000Y-8750000I50000J0D01*
G01*
X25204000Y-9350000D02*
G75*
G02*
X25104000Y-9350000I-50000J0D01*
G01*
X25104000Y-9350000D02*
G75*
G02*
X25204000Y-9350000I50000J0D01*
G01*
X25204000Y-9950000D02*
G75*
G02*
X25104000Y-9950000I-50000J0D01*
G01*
X25104000Y-9950000D02*
G75*
G02*
X25204000Y-9950000I50000J0D01*
G01*
X25204000Y-10500000D02*
G75*
G02*
X25104000Y-10500000I-50000J0D01*
G01*
X25104000Y-10500000D02*
G75*
G02*
X25204000Y-10500000I50000J0D01*
G01*
X25458000Y-8750000D02*
G75*
G02*
X25358000Y-8750000I-50000J0D01*
G01*
X25358000Y-8750000D02*
G75*
G02*
X25458000Y-8750000I50000J0D01*
G01*
X25458000Y-9350000D02*
G75*
G02*
X25358000Y-9350000I-50000J0D01*
G01*
X25358000Y-9350000D02*
G75*
G02*
X25458000Y-9350000I50000J0D01*
G01*
X25458000Y-9950000D02*
G75*
G02*
X25358000Y-9950000I-50000J0D01*
G01*
X25358000Y-9950000D02*
G75*
G02*
X25458000Y-9950000I50000J0D01*
G01*
X25458000Y-10500000D02*
G75*
G02*
X25358000Y-10500000I-50000J0D01*
G01*
X25358000Y-10500000D02*
G75*
G02*
X25458000Y-10500000I50000J0D01*
G01*
D12*
X19660000Y-11575000D02*
X19660000Y-11705000D01*
X19595000Y-11640000D02*
X19725000Y-11640000D01*
X19660000Y-11925000D02*
X19660000Y-12055000D01*
X19595000Y-11990000D02*
X19725000Y-11990000D01*
X19660000Y-12275000D02*
X19660000Y-12405000D01*
X19595000Y-12340000D02*
X19725000Y-12340000D01*
X19660000Y-12625000D02*
X19660000Y-12755000D01*
X19595000Y-12690000D02*
X19725000Y-12690000D01*
X20350000Y-12435000D02*
X20350000Y-12565000D01*
X20285000Y-12500000D02*
X20415000Y-12500000D01*
X20700000Y-12435000D02*
X20700000Y-12565000D01*
X20635000Y-12500000D02*
X20765000Y-12500000D01*
X21050000Y-12435000D02*
X21050000Y-12565000D01*
X20985000Y-12500000D02*
X21115000Y-12500000D01*
X21400000Y-12435000D02*
X21400000Y-12565000D01*
X21335000Y-12500000D02*
X21465000Y-12500000D01*
X22050000Y-12435000D02*
X22050000Y-12565000D01*
X21985000Y-12500000D02*
X22115000Y-12500000D01*
X22400000Y-12435000D02*
X22400000Y-12565000D01*
X22335000Y-12500000D02*
X22465000Y-12500000D01*
X23000000Y-12435000D02*
X23000000Y-12565000D01*
X22935000Y-12500000D02*
X23065000Y-12500000D01*
X23350000Y-12435000D02*
X23350000Y-12565000D01*
X23285000Y-12500000D02*
X23415000Y-12500000D01*
X23700000Y-12435000D02*
X23700000Y-12565000D01*
X23635000Y-12500000D02*
X23765000Y-12500000D01*
X24050000Y-12435000D02*
X24050000Y-12565000D01*
X23985000Y-12500000D02*
X24115000Y-12500000D01*
X24810000Y-11575000D02*
X24810000Y-11705000D01*
X24745000Y-11640000D02*
X24875000Y-11640000D01*
X24810000Y-11925000D02*
X24810000Y-12055000D01*
X24745000Y-11990000D02*
X24875000Y-11990000D01*
X24810000Y-12275000D02*
X24810000Y-12405000D01*
X24745000Y-12340000D02*
X24875000Y-12340000D01*
X24810000Y-12625000D02*
X24810000Y-12755000D01*
X24745000Y-12690000D02*
X24875000Y-12690000D01*
D13*
X21290933Y-11642933D02*
X21290933Y-11517067D01*
X21165067Y-11517067D01*
X21165067Y-11642933D01*
X21290933Y-11642933D01*
X21290933Y-11982933D02*
X21290933Y-11857067D01*
X21165067Y-11857067D01*
X21165067Y-11982933D01*
X21290933Y-11982933D01*
X22282933Y-11642933D02*
X22282933Y-11517067D01*
X22157067Y-11517067D01*
X22157067Y-11642933D01*
X22282933Y-11642933D01*
X22282933Y-11982933D02*
X22282933Y-11857067D01*
X22157067Y-11857067D01*
X22157067Y-11982933D01*
X22282933Y-11982933D01*
D11*
X18811077Y-13566484D02*
X18811077Y-13366484D01*
X18811077Y-13366484D02*
X18858696Y-13366484D01*
X18858696Y-13366484D02*
X18887267Y-13376008D01*
X18887267Y-13376008D02*
X18906315Y-13395055D01*
X18906315Y-13395055D02*
X18915839Y-13414103D01*
X18915839Y-13414103D02*
X18925363Y-13452198D01*
X18925363Y-13452198D02*
X18925363Y-13480769D01*
X18925363Y-13480769D02*
X18915839Y-13518865D01*
X18915839Y-13518865D02*
X18906315Y-13537912D01*
X18906315Y-13537912D02*
X18887267Y-13556960D01*
X18887267Y-13556960D02*
X18858696Y-13566484D01*
X18858696Y-13566484D02*
X18811077Y-13566484D01*
X19011077Y-13566484D02*
X19011077Y-13433150D01*
X19011077Y-13471246D02*
X19020601Y-13452198D01*
X19020601Y-13452198D02*
X19030124Y-13442674D01*
X19030124Y-13442674D02*
X19049172Y-13433150D01*
X19049172Y-13433150D02*
X19068220Y-13433150D01*
X19134886Y-13566484D02*
X19134886Y-13433150D01*
X19134886Y-13366484D02*
X19125363Y-13376008D01*
X19125363Y-13376008D02*
X19134886Y-13385531D01*
X19134886Y-13385531D02*
X19144410Y-13376008D01*
X19144410Y-13376008D02*
X19134886Y-13366484D01*
X19134886Y-13366484D02*
X19134886Y-13385531D01*
X19258696Y-13566484D02*
X19239648Y-13556960D01*
X19239648Y-13556960D02*
X19230124Y-13537912D01*
X19230124Y-13537912D02*
X19230124Y-13366484D01*
X19363458Y-13566484D02*
X19344410Y-13556960D01*
X19344410Y-13556960D02*
X19334886Y-13537912D01*
X19334886Y-13537912D02*
X19334886Y-13366484D01*
X19592029Y-13566484D02*
X19592029Y-13366484D01*
X19592029Y-13366484D02*
X19658696Y-13509341D01*
X19658696Y-13509341D02*
X19725363Y-13366484D01*
X19725363Y-13366484D02*
X19725363Y-13566484D01*
X19906315Y-13566484D02*
X19906315Y-13461722D01*
X19906315Y-13461722D02*
X19896791Y-13442674D01*
X19896791Y-13442674D02*
X19877744Y-13433150D01*
X19877744Y-13433150D02*
X19839648Y-13433150D01*
X19839648Y-13433150D02*
X19820601Y-13442674D01*
X19906315Y-13556960D02*
X19887267Y-13566484D01*
X19887267Y-13566484D02*
X19839648Y-13566484D01*
X19839648Y-13566484D02*
X19820601Y-13556960D01*
X19820601Y-13556960D02*
X19811077Y-13537912D01*
X19811077Y-13537912D02*
X19811077Y-13518865D01*
X19811077Y-13518865D02*
X19820601Y-13499817D01*
X19820601Y-13499817D02*
X19839648Y-13490293D01*
X19839648Y-13490293D02*
X19887267Y-13490293D01*
X19887267Y-13490293D02*
X19906315Y-13480769D01*
X20001553Y-13433150D02*
X20001553Y-13633150D01*
X20001553Y-13442674D02*
X20020601Y-13433150D01*
X20020601Y-13433150D02*
X20058696Y-13433150D01*
X20058696Y-13433150D02*
X20077744Y-13442674D01*
X20077744Y-13442674D02*
X20087267Y-13452198D01*
X20087267Y-13452198D02*
X20096791Y-13471246D01*
X20096791Y-13471246D02*
X20096791Y-13528388D01*
X20096791Y-13528388D02*
X20087267Y-13547436D01*
X20087267Y-13547436D02*
X20077744Y-13556960D01*
X20077744Y-13556960D02*
X20058696Y-13566484D01*
X20058696Y-13566484D02*
X20020601Y-13566484D01*
X20020601Y-13566484D02*
X20001553Y-13556960D01*
X20182505Y-13547436D02*
X20192029Y-13556960D01*
X20192029Y-13556960D02*
X20182505Y-13566484D01*
X20182505Y-13566484D02*
X20172982Y-13556960D01*
X20172982Y-13556960D02*
X20182505Y-13547436D01*
X20182505Y-13547436D02*
X20182505Y-13566484D01*
X20182505Y-13442674D02*
X20192029Y-13452198D01*
X20192029Y-13452198D02*
X20182505Y-13461722D01*
X20182505Y-13461722D02*
X20172982Y-13452198D01*
X20172982Y-13452198D02*
X20182505Y-13442674D01*
X20182505Y-13442674D02*
X20182505Y-13461722D01*
D10*
X18520300Y-13880000D02*
X18550300Y-13910000D01*
X18550300Y-13880000D02*
X18520300Y-13910000D01*
D11*
X18849172Y-13786484D02*
X18868220Y-13786484D01*
X18868220Y-13786484D02*
X18887267Y-13796008D01*
X18887267Y-13796008D02*
X18896791Y-13805531D01*
X18896791Y-13805531D02*
X18906315Y-13824579D01*
X18906315Y-13824579D02*
X18915839Y-13862674D01*
X18915839Y-13862674D02*
X18915839Y-13910293D01*
X18915839Y-13910293D02*
X18906315Y-13948388D01*
X18906315Y-13948388D02*
X18896791Y-13967436D01*
X18896791Y-13967436D02*
X18887267Y-13976960D01*
X18887267Y-13976960D02*
X18868220Y-13986484D01*
X18868220Y-13986484D02*
X18849172Y-13986484D01*
X18849172Y-13986484D02*
X18830124Y-13976960D01*
X18830124Y-13976960D02*
X18820601Y-13967436D01*
X18820601Y-13967436D02*
X18811077Y-13948388D01*
X18811077Y-13948388D02*
X18801553Y-13910293D01*
X18801553Y-13910293D02*
X18801553Y-13862674D01*
X18801553Y-13862674D02*
X18811077Y-13824579D01*
X18811077Y-13824579D02*
X18820601Y-13805531D01*
X18820601Y-13805531D02*
X18830124Y-13796008D01*
X18830124Y-13796008D02*
X18849172Y-13786484D01*
X19001553Y-13967436D02*
X19011077Y-13976960D01*
X19011077Y-13976960D02*
X19001553Y-13986484D01*
X19001553Y-13986484D02*
X18992029Y-13976960D01*
X18992029Y-13976960D02*
X19001553Y-13967436D01*
X19001553Y-13967436D02*
X19001553Y-13986484D01*
X19077744Y-13786484D02*
X19201553Y-13786484D01*
X19201553Y-13786484D02*
X19134886Y-13862674D01*
X19134886Y-13862674D02*
X19163458Y-13862674D01*
X19163458Y-13862674D02*
X19182505Y-13872198D01*
X19182505Y-13872198D02*
X19192029Y-13881722D01*
X19192029Y-13881722D02*
X19201553Y-13900769D01*
X19201553Y-13900769D02*
X19201553Y-13948388D01*
X19201553Y-13948388D02*
X19192029Y-13967436D01*
X19192029Y-13967436D02*
X19182505Y-13976960D01*
X19182505Y-13976960D02*
X19163458Y-13986484D01*
X19163458Y-13986484D02*
X19106315Y-13986484D01*
X19106315Y-13986484D02*
X19087267Y-13976960D01*
X19087267Y-13976960D02*
X19077744Y-13967436D01*
X19325363Y-13786484D02*
X19344410Y-13786484D01*
X19344410Y-13786484D02*
X19363458Y-13796008D01*
X19363458Y-13796008D02*
X19372982Y-13805531D01*
X19372982Y-13805531D02*
X19382505Y-13824579D01*
X19382505Y-13824579D02*
X19392029Y-13862674D01*
X19392029Y-13862674D02*
X19392029Y-13910293D01*
X19392029Y-13910293D02*
X19382505Y-13948388D01*
X19382505Y-13948388D02*
X19372982Y-13967436D01*
X19372982Y-13967436D02*
X19363458Y-13976960D01*
X19363458Y-13976960D02*
X19344410Y-13986484D01*
X19344410Y-13986484D02*
X19325363Y-13986484D01*
X19325363Y-13986484D02*
X19306315Y-13976960D01*
X19306315Y-13976960D02*
X19296791Y-13967436D01*
X19296791Y-13967436D02*
X19287267Y-13948388D01*
X19287267Y-13948388D02*
X19277744Y-13910293D01*
X19277744Y-13910293D02*
X19277744Y-13862674D01*
X19277744Y-13862674D02*
X19287267Y-13824579D01*
X19287267Y-13824579D02*
X19296791Y-13805531D01*
X19296791Y-13805531D02*
X19306315Y-13796008D01*
X19306315Y-13796008D02*
X19325363Y-13786484D01*
X19515839Y-13786484D02*
X19534886Y-13786484D01*
X19534886Y-13786484D02*
X19553934Y-13796008D01*
X19553934Y-13796008D02*
X19563458Y-13805531D01*
X19563458Y-13805531D02*
X19572982Y-13824579D01*
X19572982Y-13824579D02*
X19582505Y-13862674D01*
X19582505Y-13862674D02*
X19582505Y-13910293D01*
X19582505Y-13910293D02*
X19572982Y-13948388D01*
X19572982Y-13948388D02*
X19563458Y-13967436D01*
X19563458Y-13967436D02*
X19553934Y-13976960D01*
X19553934Y-13976960D02*
X19534886Y-13986484D01*
X19534886Y-13986484D02*
X19515839Y-13986484D01*
X19515839Y-13986484D02*
X19496791Y-13976960D01*
X19496791Y-13976960D02*
X19487267Y-13967436D01*
X19487267Y-13967436D02*
X19477744Y-13948388D01*
X19477744Y-13948388D02*
X19468220Y-13910293D01*
X19468220Y-13910293D02*
X19468220Y-13862674D01*
X19468220Y-13862674D02*
X19477744Y-13824579D01*
X19477744Y-13824579D02*
X19487267Y-13805531D01*
X19487267Y-13805531D02*
X19496791Y-13796008D01*
X19496791Y-13796008D02*
X19515839Y-13786484D01*
X19668220Y-13986484D02*
X19668220Y-13853150D01*
X19668220Y-13872198D02*
X19677744Y-13862674D01*
X19677744Y-13862674D02*
X19696791Y-13853150D01*
X19696791Y-13853150D02*
X19725363Y-13853150D01*
X19725363Y-13853150D02*
X19744410Y-13862674D01*
X19744410Y-13862674D02*
X19753934Y-13881722D01*
X19753934Y-13881722D02*
X19753934Y-13986484D01*
X19753934Y-13881722D02*
X19763458Y-13862674D01*
X19763458Y-13862674D02*
X19782505Y-13853150D01*
X19782505Y-13853150D02*
X19811077Y-13853150D01*
X19811077Y-13853150D02*
X19830125Y-13862674D01*
X19830125Y-13862674D02*
X19839648Y-13881722D01*
X19839648Y-13881722D02*
X19839648Y-13986484D01*
X19934886Y-13986484D02*
X19934886Y-13853150D01*
X19934886Y-13872198D02*
X19944410Y-13862674D01*
X19944410Y-13862674D02*
X19963458Y-13853150D01*
X19963458Y-13853150D02*
X19992029Y-13853150D01*
X19992029Y-13853150D02*
X20011077Y-13862674D01*
X20011077Y-13862674D02*
X20020601Y-13881722D01*
X20020601Y-13881722D02*
X20020601Y-13986484D01*
X20020601Y-13881722D02*
X20030125Y-13862674D01*
X20030125Y-13862674D02*
X20049172Y-13853150D01*
X20049172Y-13853150D02*
X20077744Y-13853150D01*
X20077744Y-13853150D02*
X20096791Y-13862674D01*
X20096791Y-13862674D02*
X20106315Y-13881722D01*
X20106315Y-13881722D02*
X20106315Y-13986484D01*
X20496791Y-13776960D02*
X20325363Y-14034103D01*
X20753934Y-13786484D02*
X20772982Y-13786484D01*
X20772982Y-13786484D02*
X20792029Y-13796008D01*
X20792029Y-13796008D02*
X20801553Y-13805531D01*
X20801553Y-13805531D02*
X20811077Y-13824579D01*
X20811077Y-13824579D02*
X20820601Y-13862674D01*
X20820601Y-13862674D02*
X20820601Y-13910293D01*
X20820601Y-13910293D02*
X20811077Y-13948388D01*
X20811077Y-13948388D02*
X20801553Y-13967436D01*
X20801553Y-13967436D02*
X20792029Y-13976960D01*
X20792029Y-13976960D02*
X20772982Y-13986484D01*
X20772982Y-13986484D02*
X20753934Y-13986484D01*
X20753934Y-13986484D02*
X20734887Y-13976960D01*
X20734887Y-13976960D02*
X20725363Y-13967436D01*
X20725363Y-13967436D02*
X20715839Y-13948388D01*
X20715839Y-13948388D02*
X20706315Y-13910293D01*
X20706315Y-13910293D02*
X20706315Y-13862674D01*
X20706315Y-13862674D02*
X20715839Y-13824579D01*
X20715839Y-13824579D02*
X20725363Y-13805531D01*
X20725363Y-13805531D02*
X20734887Y-13796008D01*
X20734887Y-13796008D02*
X20753934Y-13786484D01*
X20906315Y-13967436D02*
X20915839Y-13976960D01*
X20915839Y-13976960D02*
X20906315Y-13986484D01*
X20906315Y-13986484D02*
X20896791Y-13976960D01*
X20896791Y-13976960D02*
X20906315Y-13967436D01*
X20906315Y-13967436D02*
X20906315Y-13986484D01*
X21039648Y-13786484D02*
X21058696Y-13786484D01*
X21058696Y-13786484D02*
X21077744Y-13796008D01*
X21077744Y-13796008D02*
X21087268Y-13805531D01*
X21087268Y-13805531D02*
X21096791Y-13824579D01*
X21096791Y-13824579D02*
X21106315Y-13862674D01*
X21106315Y-13862674D02*
X21106315Y-13910293D01*
X21106315Y-13910293D02*
X21096791Y-13948388D01*
X21096791Y-13948388D02*
X21087268Y-13967436D01*
X21087268Y-13967436D02*
X21077744Y-13976960D01*
X21077744Y-13976960D02*
X21058696Y-13986484D01*
X21058696Y-13986484D02*
X21039648Y-13986484D01*
X21039648Y-13986484D02*
X21020601Y-13976960D01*
X21020601Y-13976960D02*
X21011077Y-13967436D01*
X21011077Y-13967436D02*
X21001553Y-13948388D01*
X21001553Y-13948388D02*
X20992029Y-13910293D01*
X20992029Y-13910293D02*
X20992029Y-13862674D01*
X20992029Y-13862674D02*
X21001553Y-13824579D01*
X21001553Y-13824579D02*
X21011077Y-13805531D01*
X21011077Y-13805531D02*
X21020601Y-13796008D01*
X21020601Y-13796008D02*
X21039648Y-13786484D01*
X21296791Y-13986484D02*
X21182506Y-13986484D01*
X21239648Y-13986484D02*
X21239648Y-13786484D01*
X21239648Y-13786484D02*
X21220601Y-13815055D01*
X21220601Y-13815055D02*
X21201553Y-13834103D01*
X21201553Y-13834103D02*
X21182506Y-13843627D01*
X21487268Y-13986484D02*
X21372982Y-13986484D01*
X21430125Y-13986484D02*
X21430125Y-13786484D01*
X21430125Y-13786484D02*
X21411077Y-13815055D01*
X21411077Y-13815055D02*
X21392029Y-13834103D01*
X21392029Y-13834103D02*
X21372982Y-13843627D01*
X21601553Y-13872198D02*
X21582506Y-13862674D01*
X21582506Y-13862674D02*
X21572982Y-13853150D01*
X21572982Y-13853150D02*
X21563458Y-13834103D01*
X21563458Y-13834103D02*
X21563458Y-13824579D01*
X21563458Y-13824579D02*
X21572982Y-13805531D01*
X21572982Y-13805531D02*
X21582506Y-13796008D01*
X21582506Y-13796008D02*
X21601553Y-13786484D01*
X21601553Y-13786484D02*
X21639649Y-13786484D01*
X21639649Y-13786484D02*
X21658696Y-13796008D01*
X21658696Y-13796008D02*
X21668220Y-13805531D01*
X21668220Y-13805531D02*
X21677744Y-13824579D01*
X21677744Y-13824579D02*
X21677744Y-13834103D01*
X21677744Y-13834103D02*
X21668220Y-13853150D01*
X21668220Y-13853150D02*
X21658696Y-13862674D01*
X21658696Y-13862674D02*
X21639649Y-13872198D01*
X21639649Y-13872198D02*
X21601553Y-13872198D01*
X21601553Y-13872198D02*
X21582506Y-13881722D01*
X21582506Y-13881722D02*
X21572982Y-13891246D01*
X21572982Y-13891246D02*
X21563458Y-13910293D01*
X21563458Y-13910293D02*
X21563458Y-13948388D01*
X21563458Y-13948388D02*
X21572982Y-13967436D01*
X21572982Y-13967436D02*
X21582506Y-13976960D01*
X21582506Y-13976960D02*
X21601553Y-13986484D01*
X21601553Y-13986484D02*
X21639649Y-13986484D01*
X21639649Y-13986484D02*
X21658696Y-13976960D01*
X21658696Y-13976960D02*
X21668220Y-13967436D01*
X21668220Y-13967436D02*
X21677744Y-13948388D01*
X21677744Y-13948388D02*
X21677744Y-13910293D01*
X21677744Y-13910293D02*
X21668220Y-13891246D01*
X21668220Y-13891246D02*
X21658696Y-13881722D01*
X21658696Y-13881722D02*
X21639649Y-13872198D01*
X21753934Y-13786484D02*
X21753934Y-13824579D01*
X21830125Y-13786484D02*
X21830125Y-13824579D01*
X22125363Y-14062674D02*
X22115839Y-14053150D01*
X22115839Y-14053150D02*
X22096791Y-14024579D01*
X22096791Y-14024579D02*
X22087268Y-14005531D01*
X22087268Y-14005531D02*
X22077744Y-13976960D01*
X22077744Y-13976960D02*
X22068220Y-13929341D01*
X22068220Y-13929341D02*
X22068220Y-13891246D01*
X22068220Y-13891246D02*
X22077744Y-13843627D01*
X22077744Y-13843627D02*
X22087268Y-13815055D01*
X22087268Y-13815055D02*
X22096791Y-13796008D01*
X22096791Y-13796008D02*
X22115839Y-13767436D01*
X22115839Y-13767436D02*
X22125363Y-13757912D01*
X22182506Y-13786484D02*
X22306315Y-13786484D01*
X22306315Y-13786484D02*
X22239649Y-13862674D01*
X22239649Y-13862674D02*
X22268220Y-13862674D01*
X22268220Y-13862674D02*
X22287268Y-13872198D01*
X22287268Y-13872198D02*
X22296791Y-13881722D01*
X22296791Y-13881722D02*
X22306315Y-13900769D01*
X22306315Y-13900769D02*
X22306315Y-13948388D01*
X22306315Y-13948388D02*
X22296791Y-13967436D01*
X22296791Y-13967436D02*
X22287268Y-13976960D01*
X22287268Y-13976960D02*
X22268220Y-13986484D01*
X22268220Y-13986484D02*
X22211077Y-13986484D01*
X22211077Y-13986484D02*
X22192030Y-13976960D01*
X22192030Y-13976960D02*
X22182506Y-13967436D01*
X22487268Y-13786484D02*
X22392029Y-13786484D01*
X22392029Y-13786484D02*
X22382506Y-13881722D01*
X22382506Y-13881722D02*
X22392029Y-13872198D01*
X22392029Y-13872198D02*
X22411077Y-13862674D01*
X22411077Y-13862674D02*
X22458696Y-13862674D01*
X22458696Y-13862674D02*
X22477744Y-13872198D01*
X22477744Y-13872198D02*
X22487268Y-13881722D01*
X22487268Y-13881722D02*
X22496791Y-13900769D01*
X22496791Y-13900769D02*
X22496791Y-13948388D01*
X22496791Y-13948388D02*
X22487268Y-13967436D01*
X22487268Y-13967436D02*
X22477744Y-13976960D01*
X22477744Y-13976960D02*
X22458696Y-13986484D01*
X22458696Y-13986484D02*
X22411077Y-13986484D01*
X22411077Y-13986484D02*
X22392029Y-13976960D01*
X22392029Y-13976960D02*
X22382506Y-13967436D01*
X22668220Y-13786484D02*
X22630125Y-13786484D01*
X22630125Y-13786484D02*
X22611077Y-13796008D01*
X22611077Y-13796008D02*
X22601553Y-13805531D01*
X22601553Y-13805531D02*
X22582506Y-13834103D01*
X22582506Y-13834103D02*
X22572982Y-13872198D01*
X22572982Y-13872198D02*
X22572982Y-13948388D01*
X22572982Y-13948388D02*
X22582506Y-13967436D01*
X22582506Y-13967436D02*
X22592029Y-13976960D01*
X22592029Y-13976960D02*
X22611077Y-13986484D01*
X22611077Y-13986484D02*
X22649172Y-13986484D01*
X22649172Y-13986484D02*
X22668220Y-13976960D01*
X22668220Y-13976960D02*
X22677744Y-13967436D01*
X22677744Y-13967436D02*
X22687268Y-13948388D01*
X22687268Y-13948388D02*
X22687268Y-13900769D01*
X22687268Y-13900769D02*
X22677744Y-13881722D01*
X22677744Y-13881722D02*
X22668220Y-13872198D01*
X22668220Y-13872198D02*
X22649172Y-13862674D01*
X22649172Y-13862674D02*
X22611077Y-13862674D01*
X22611077Y-13862674D02*
X22592029Y-13872198D01*
X22592029Y-13872198D02*
X22582506Y-13881722D01*
X22582506Y-13881722D02*
X22572982Y-13900769D01*
X22925363Y-13986484D02*
X22925363Y-13786484D01*
X23011077Y-13986484D02*
X23011077Y-13881722D01*
X23011077Y-13881722D02*
X23001553Y-13862674D01*
X23001553Y-13862674D02*
X22982506Y-13853150D01*
X22982506Y-13853150D02*
X22953934Y-13853150D01*
X22953934Y-13853150D02*
X22934887Y-13862674D01*
X22934887Y-13862674D02*
X22925363Y-13872198D01*
X23134887Y-13986484D02*
X23115839Y-13976960D01*
X23115839Y-13976960D02*
X23106315Y-13967436D01*
X23106315Y-13967436D02*
X23096791Y-13948388D01*
X23096791Y-13948388D02*
X23096791Y-13891246D01*
X23096791Y-13891246D02*
X23106315Y-13872198D01*
X23106315Y-13872198D02*
X23115839Y-13862674D01*
X23115839Y-13862674D02*
X23134887Y-13853150D01*
X23134887Y-13853150D02*
X23163458Y-13853150D01*
X23163458Y-13853150D02*
X23182506Y-13862674D01*
X23182506Y-13862674D02*
X23192030Y-13872198D01*
X23192030Y-13872198D02*
X23201553Y-13891246D01*
X23201553Y-13891246D02*
X23201553Y-13948388D01*
X23201553Y-13948388D02*
X23192030Y-13967436D01*
X23192030Y-13967436D02*
X23182506Y-13976960D01*
X23182506Y-13976960D02*
X23163458Y-13986484D01*
X23163458Y-13986484D02*
X23134887Y-13986484D01*
X23315839Y-13986484D02*
X23296791Y-13976960D01*
X23296791Y-13976960D02*
X23287268Y-13957912D01*
X23287268Y-13957912D02*
X23287268Y-13786484D01*
X23468220Y-13976960D02*
X23449172Y-13986484D01*
X23449172Y-13986484D02*
X23411077Y-13986484D01*
X23411077Y-13986484D02*
X23392030Y-13976960D01*
X23392030Y-13976960D02*
X23382506Y-13957912D01*
X23382506Y-13957912D02*
X23382506Y-13881722D01*
X23382506Y-13881722D02*
X23392030Y-13862674D01*
X23392030Y-13862674D02*
X23411077Y-13853150D01*
X23411077Y-13853150D02*
X23449172Y-13853150D01*
X23449172Y-13853150D02*
X23468220Y-13862674D01*
X23468220Y-13862674D02*
X23477744Y-13881722D01*
X23477744Y-13881722D02*
X23477744Y-13900769D01*
X23477744Y-13900769D02*
X23382506Y-13919817D01*
X23553934Y-13976960D02*
X23572982Y-13986484D01*
X23572982Y-13986484D02*
X23611077Y-13986484D01*
X23611077Y-13986484D02*
X23630125Y-13976960D01*
X23630125Y-13976960D02*
X23639649Y-13957912D01*
X23639649Y-13957912D02*
X23639649Y-13948388D01*
X23639649Y-13948388D02*
X23630125Y-13929341D01*
X23630125Y-13929341D02*
X23611077Y-13919817D01*
X23611077Y-13919817D02*
X23582506Y-13919817D01*
X23582506Y-13919817D02*
X23563458Y-13910293D01*
X23563458Y-13910293D02*
X23553934Y-13891246D01*
X23553934Y-13891246D02*
X23553934Y-13881722D01*
X23553934Y-13881722D02*
X23563458Y-13862674D01*
X23563458Y-13862674D02*
X23582506Y-13853150D01*
X23582506Y-13853150D02*
X23611077Y-13853150D01*
X23611077Y-13853150D02*
X23630125Y-13862674D01*
X23706315Y-14062674D02*
X23715839Y-14053150D01*
X23715839Y-14053150D02*
X23734887Y-14024579D01*
X23734887Y-14024579D02*
X23744411Y-14005531D01*
X23744411Y-14005531D02*
X23753934Y-13976960D01*
X23753934Y-13976960D02*
X23763458Y-13929341D01*
X23763458Y-13929341D02*
X23763458Y-13891246D01*
X23763458Y-13891246D02*
X23753934Y-13843627D01*
X23753934Y-13843627D02*
X23744411Y-13815055D01*
X23744411Y-13815055D02*
X23734887Y-13796008D01*
X23734887Y-13796008D02*
X23715839Y-13767436D01*
X23715839Y-13767436D02*
X23706315Y-13757912D01*
D10*
X18550300Y-14159000D02*
G75*
G02*
X18450300Y-14159000I-50000J0D01*
G01*
X18450300Y-14159000D02*
G75*
G02*
X18550300Y-14159000I50000J0D01*
G01*
D11*
X18915839Y-14250484D02*
X18801553Y-14250484D01*
X18858696Y-14250484D02*
X18858696Y-14050484D01*
X18858696Y-14050484D02*
X18839648Y-14079055D01*
X18839648Y-14079055D02*
X18820601Y-14098103D01*
X18820601Y-14098103D02*
X18801553Y-14107627D01*
X19001553Y-14231436D02*
X19011077Y-14240960D01*
X19011077Y-14240960D02*
X19001553Y-14250484D01*
X19001553Y-14250484D02*
X18992029Y-14240960D01*
X18992029Y-14240960D02*
X19001553Y-14231436D01*
X19001553Y-14231436D02*
X19001553Y-14250484D01*
X19134886Y-14050484D02*
X19153934Y-14050484D01*
X19153934Y-14050484D02*
X19172982Y-14060008D01*
X19172982Y-14060008D02*
X19182505Y-14069531D01*
X19182505Y-14069531D02*
X19192029Y-14088579D01*
X19192029Y-14088579D02*
X19201553Y-14126674D01*
X19201553Y-14126674D02*
X19201553Y-14174293D01*
X19201553Y-14174293D02*
X19192029Y-14212388D01*
X19192029Y-14212388D02*
X19182505Y-14231436D01*
X19182505Y-14231436D02*
X19172982Y-14240960D01*
X19172982Y-14240960D02*
X19153934Y-14250484D01*
X19153934Y-14250484D02*
X19134886Y-14250484D01*
X19134886Y-14250484D02*
X19115839Y-14240960D01*
X19115839Y-14240960D02*
X19106315Y-14231436D01*
X19106315Y-14231436D02*
X19096791Y-14212388D01*
X19096791Y-14212388D02*
X19087267Y-14174293D01*
X19087267Y-14174293D02*
X19087267Y-14126674D01*
X19087267Y-14126674D02*
X19096791Y-14088579D01*
X19096791Y-14088579D02*
X19106315Y-14069531D01*
X19106315Y-14069531D02*
X19115839Y-14060008D01*
X19115839Y-14060008D02*
X19134886Y-14050484D01*
X19325363Y-14050484D02*
X19344410Y-14050484D01*
X19344410Y-14050484D02*
X19363458Y-14060008D01*
X19363458Y-14060008D02*
X19372982Y-14069531D01*
X19372982Y-14069531D02*
X19382505Y-14088579D01*
X19382505Y-14088579D02*
X19392029Y-14126674D01*
X19392029Y-14126674D02*
X19392029Y-14174293D01*
X19392029Y-14174293D02*
X19382505Y-14212388D01*
X19382505Y-14212388D02*
X19372982Y-14231436D01*
X19372982Y-14231436D02*
X19363458Y-14240960D01*
X19363458Y-14240960D02*
X19344410Y-14250484D01*
X19344410Y-14250484D02*
X19325363Y-14250484D01*
X19325363Y-14250484D02*
X19306315Y-14240960D01*
X19306315Y-14240960D02*
X19296791Y-14231436D01*
X19296791Y-14231436D02*
X19287267Y-14212388D01*
X19287267Y-14212388D02*
X19277744Y-14174293D01*
X19277744Y-14174293D02*
X19277744Y-14126674D01*
X19277744Y-14126674D02*
X19287267Y-14088579D01*
X19287267Y-14088579D02*
X19296791Y-14069531D01*
X19296791Y-14069531D02*
X19306315Y-14060008D01*
X19306315Y-14060008D02*
X19325363Y-14050484D01*
X19515839Y-14050484D02*
X19534886Y-14050484D01*
X19534886Y-14050484D02*
X19553934Y-14060008D01*
X19553934Y-14060008D02*
X19563458Y-14069531D01*
X19563458Y-14069531D02*
X19572982Y-14088579D01*
X19572982Y-14088579D02*
X19582505Y-14126674D01*
X19582505Y-14126674D02*
X19582505Y-14174293D01*
X19582505Y-14174293D02*
X19572982Y-14212388D01*
X19572982Y-14212388D02*
X19563458Y-14231436D01*
X19563458Y-14231436D02*
X19553934Y-14240960D01*
X19553934Y-14240960D02*
X19534886Y-14250484D01*
X19534886Y-14250484D02*
X19515839Y-14250484D01*
X19515839Y-14250484D02*
X19496791Y-14240960D01*
X19496791Y-14240960D02*
X19487267Y-14231436D01*
X19487267Y-14231436D02*
X19477744Y-14212388D01*
X19477744Y-14212388D02*
X19468220Y-14174293D01*
X19468220Y-14174293D02*
X19468220Y-14126674D01*
X19468220Y-14126674D02*
X19477744Y-14088579D01*
X19477744Y-14088579D02*
X19487267Y-14069531D01*
X19487267Y-14069531D02*
X19496791Y-14060008D01*
X19496791Y-14060008D02*
X19515839Y-14050484D01*
X19668220Y-14250484D02*
X19668220Y-14117150D01*
X19668220Y-14136198D02*
X19677744Y-14126674D01*
X19677744Y-14126674D02*
X19696791Y-14117150D01*
X19696791Y-14117150D02*
X19725363Y-14117150D01*
X19725363Y-14117150D02*
X19744410Y-14126674D01*
X19744410Y-14126674D02*
X19753934Y-14145722D01*
X19753934Y-14145722D02*
X19753934Y-14250484D01*
X19753934Y-14145722D02*
X19763458Y-14126674D01*
X19763458Y-14126674D02*
X19782505Y-14117150D01*
X19782505Y-14117150D02*
X19811077Y-14117150D01*
X19811077Y-14117150D02*
X19830125Y-14126674D01*
X19830125Y-14126674D02*
X19839648Y-14145722D01*
X19839648Y-14145722D02*
X19839648Y-14250484D01*
X19934886Y-14250484D02*
X19934886Y-14117150D01*
X19934886Y-14136198D02*
X19944410Y-14126674D01*
X19944410Y-14126674D02*
X19963458Y-14117150D01*
X19963458Y-14117150D02*
X19992029Y-14117150D01*
X19992029Y-14117150D02*
X20011077Y-14126674D01*
X20011077Y-14126674D02*
X20020601Y-14145722D01*
X20020601Y-14145722D02*
X20020601Y-14250484D01*
X20020601Y-14145722D02*
X20030125Y-14126674D01*
X20030125Y-14126674D02*
X20049172Y-14117150D01*
X20049172Y-14117150D02*
X20077744Y-14117150D01*
X20077744Y-14117150D02*
X20096791Y-14126674D01*
X20096791Y-14126674D02*
X20106315Y-14145722D01*
X20106315Y-14145722D02*
X20106315Y-14250484D01*
X20496791Y-14040960D02*
X20325363Y-14298103D01*
X20753934Y-14050484D02*
X20772982Y-14050484D01*
X20772982Y-14050484D02*
X20792029Y-14060008D01*
X20792029Y-14060008D02*
X20801553Y-14069531D01*
X20801553Y-14069531D02*
X20811077Y-14088579D01*
X20811077Y-14088579D02*
X20820601Y-14126674D01*
X20820601Y-14126674D02*
X20820601Y-14174293D01*
X20820601Y-14174293D02*
X20811077Y-14212388D01*
X20811077Y-14212388D02*
X20801553Y-14231436D01*
X20801553Y-14231436D02*
X20792029Y-14240960D01*
X20792029Y-14240960D02*
X20772982Y-14250484D01*
X20772982Y-14250484D02*
X20753934Y-14250484D01*
X20753934Y-14250484D02*
X20734887Y-14240960D01*
X20734887Y-14240960D02*
X20725363Y-14231436D01*
X20725363Y-14231436D02*
X20715839Y-14212388D01*
X20715839Y-14212388D02*
X20706315Y-14174293D01*
X20706315Y-14174293D02*
X20706315Y-14126674D01*
X20706315Y-14126674D02*
X20715839Y-14088579D01*
X20715839Y-14088579D02*
X20725363Y-14069531D01*
X20725363Y-14069531D02*
X20734887Y-14060008D01*
X20734887Y-14060008D02*
X20753934Y-14050484D01*
X20906315Y-14231436D02*
X20915839Y-14240960D01*
X20915839Y-14240960D02*
X20906315Y-14250484D01*
X20906315Y-14250484D02*
X20896791Y-14240960D01*
X20896791Y-14240960D02*
X20906315Y-14231436D01*
X20906315Y-14231436D02*
X20906315Y-14250484D01*
X21039648Y-14050484D02*
X21058696Y-14050484D01*
X21058696Y-14050484D02*
X21077744Y-14060008D01*
X21077744Y-14060008D02*
X21087268Y-14069531D01*
X21087268Y-14069531D02*
X21096791Y-14088579D01*
X21096791Y-14088579D02*
X21106315Y-14126674D01*
X21106315Y-14126674D02*
X21106315Y-14174293D01*
X21106315Y-14174293D02*
X21096791Y-14212388D01*
X21096791Y-14212388D02*
X21087268Y-14231436D01*
X21087268Y-14231436D02*
X21077744Y-14240960D01*
X21077744Y-14240960D02*
X21058696Y-14250484D01*
X21058696Y-14250484D02*
X21039648Y-14250484D01*
X21039648Y-14250484D02*
X21020601Y-14240960D01*
X21020601Y-14240960D02*
X21011077Y-14231436D01*
X21011077Y-14231436D02*
X21001553Y-14212388D01*
X21001553Y-14212388D02*
X20992029Y-14174293D01*
X20992029Y-14174293D02*
X20992029Y-14126674D01*
X20992029Y-14126674D02*
X21001553Y-14088579D01*
X21001553Y-14088579D02*
X21011077Y-14069531D01*
X21011077Y-14069531D02*
X21020601Y-14060008D01*
X21020601Y-14060008D02*
X21039648Y-14050484D01*
X21172982Y-14050484D02*
X21296791Y-14050484D01*
X21296791Y-14050484D02*
X21230125Y-14126674D01*
X21230125Y-14126674D02*
X21258696Y-14126674D01*
X21258696Y-14126674D02*
X21277744Y-14136198D01*
X21277744Y-14136198D02*
X21287268Y-14145722D01*
X21287268Y-14145722D02*
X21296791Y-14164769D01*
X21296791Y-14164769D02*
X21296791Y-14212388D01*
X21296791Y-14212388D02*
X21287268Y-14231436D01*
X21287268Y-14231436D02*
X21277744Y-14240960D01*
X21277744Y-14240960D02*
X21258696Y-14250484D01*
X21258696Y-14250484D02*
X21201553Y-14250484D01*
X21201553Y-14250484D02*
X21182506Y-14240960D01*
X21182506Y-14240960D02*
X21172982Y-14231436D01*
X21392029Y-14250484D02*
X21430125Y-14250484D01*
X21430125Y-14250484D02*
X21449172Y-14240960D01*
X21449172Y-14240960D02*
X21458696Y-14231436D01*
X21458696Y-14231436D02*
X21477744Y-14202865D01*
X21477744Y-14202865D02*
X21487268Y-14164769D01*
X21487268Y-14164769D02*
X21487268Y-14088579D01*
X21487268Y-14088579D02*
X21477744Y-14069531D01*
X21477744Y-14069531D02*
X21468220Y-14060008D01*
X21468220Y-14060008D02*
X21449172Y-14050484D01*
X21449172Y-14050484D02*
X21411077Y-14050484D01*
X21411077Y-14050484D02*
X21392029Y-14060008D01*
X21392029Y-14060008D02*
X21382506Y-14069531D01*
X21382506Y-14069531D02*
X21372982Y-14088579D01*
X21372982Y-14088579D02*
X21372982Y-14136198D01*
X21372982Y-14136198D02*
X21382506Y-14155246D01*
X21382506Y-14155246D02*
X21392029Y-14164769D01*
X21392029Y-14164769D02*
X21411077Y-14174293D01*
X21411077Y-14174293D02*
X21449172Y-14174293D01*
X21449172Y-14174293D02*
X21468220Y-14164769D01*
X21468220Y-14164769D02*
X21477744Y-14155246D01*
X21477744Y-14155246D02*
X21487268Y-14136198D01*
X21658696Y-14117150D02*
X21658696Y-14250484D01*
X21611077Y-14040960D02*
X21563458Y-14183817D01*
X21563458Y-14183817D02*
X21687268Y-14183817D01*
X21753934Y-14050484D02*
X21753934Y-14088579D01*
X21830125Y-14050484D02*
X21830125Y-14088579D01*
X22125363Y-14326674D02*
X22115839Y-14317150D01*
X22115839Y-14317150D02*
X22096791Y-14288579D01*
X22096791Y-14288579D02*
X22087268Y-14269531D01*
X22087268Y-14269531D02*
X22077744Y-14240960D01*
X22077744Y-14240960D02*
X22068220Y-14193341D01*
X22068220Y-14193341D02*
X22068220Y-14155246D01*
X22068220Y-14155246D02*
X22077744Y-14107627D01*
X22077744Y-14107627D02*
X22087268Y-14079055D01*
X22087268Y-14079055D02*
X22096791Y-14060008D01*
X22096791Y-14060008D02*
X22115839Y-14031436D01*
X22115839Y-14031436D02*
X22125363Y-14021912D01*
X22211077Y-14250484D02*
X22249172Y-14250484D01*
X22249172Y-14250484D02*
X22268220Y-14240960D01*
X22268220Y-14240960D02*
X22277744Y-14231436D01*
X22277744Y-14231436D02*
X22296791Y-14202865D01*
X22296791Y-14202865D02*
X22306315Y-14164769D01*
X22306315Y-14164769D02*
X22306315Y-14088579D01*
X22306315Y-14088579D02*
X22296791Y-14069531D01*
X22296791Y-14069531D02*
X22287268Y-14060008D01*
X22287268Y-14060008D02*
X22268220Y-14050484D01*
X22268220Y-14050484D02*
X22230125Y-14050484D01*
X22230125Y-14050484D02*
X22211077Y-14060008D01*
X22211077Y-14060008D02*
X22201553Y-14069531D01*
X22201553Y-14069531D02*
X22192030Y-14088579D01*
X22192030Y-14088579D02*
X22192030Y-14136198D01*
X22192030Y-14136198D02*
X22201553Y-14155246D01*
X22201553Y-14155246D02*
X22211077Y-14164769D01*
X22211077Y-14164769D02*
X22230125Y-14174293D01*
X22230125Y-14174293D02*
X22268220Y-14174293D01*
X22268220Y-14174293D02*
X22287268Y-14164769D01*
X22287268Y-14164769D02*
X22296791Y-14155246D01*
X22296791Y-14155246D02*
X22306315Y-14136198D01*
X22487268Y-14050484D02*
X22392029Y-14050484D01*
X22392029Y-14050484D02*
X22382506Y-14145722D01*
X22382506Y-14145722D02*
X22392029Y-14136198D01*
X22392029Y-14136198D02*
X22411077Y-14126674D01*
X22411077Y-14126674D02*
X22458696Y-14126674D01*
X22458696Y-14126674D02*
X22477744Y-14136198D01*
X22477744Y-14136198D02*
X22487268Y-14145722D01*
X22487268Y-14145722D02*
X22496791Y-14164769D01*
X22496791Y-14164769D02*
X22496791Y-14212388D01*
X22496791Y-14212388D02*
X22487268Y-14231436D01*
X22487268Y-14231436D02*
X22477744Y-14240960D01*
X22477744Y-14240960D02*
X22458696Y-14250484D01*
X22458696Y-14250484D02*
X22411077Y-14250484D01*
X22411077Y-14250484D02*
X22392029Y-14240960D01*
X22392029Y-14240960D02*
X22382506Y-14231436D01*
X22734887Y-14250484D02*
X22734887Y-14050484D01*
X22820601Y-14250484D02*
X22820601Y-14145722D01*
X22820601Y-14145722D02*
X22811077Y-14126674D01*
X22811077Y-14126674D02*
X22792030Y-14117150D01*
X22792030Y-14117150D02*
X22763458Y-14117150D01*
X22763458Y-14117150D02*
X22744410Y-14126674D01*
X22744410Y-14126674D02*
X22734887Y-14136198D01*
X22944410Y-14250484D02*
X22925363Y-14240960D01*
X22925363Y-14240960D02*
X22915839Y-14231436D01*
X22915839Y-14231436D02*
X22906315Y-14212388D01*
X22906315Y-14212388D02*
X22906315Y-14155246D01*
X22906315Y-14155246D02*
X22915839Y-14136198D01*
X22915839Y-14136198D02*
X22925363Y-14126674D01*
X22925363Y-14126674D02*
X22944410Y-14117150D01*
X22944410Y-14117150D02*
X22972982Y-14117150D01*
X22972982Y-14117150D02*
X22992030Y-14126674D01*
X22992030Y-14126674D02*
X23001553Y-14136198D01*
X23001553Y-14136198D02*
X23011077Y-14155246D01*
X23011077Y-14155246D02*
X23011077Y-14212388D01*
X23011077Y-14212388D02*
X23001553Y-14231436D01*
X23001553Y-14231436D02*
X22992030Y-14240960D01*
X22992030Y-14240960D02*
X22972982Y-14250484D01*
X22972982Y-14250484D02*
X22944410Y-14250484D01*
X23125363Y-14250484D02*
X23106315Y-14240960D01*
X23106315Y-14240960D02*
X23096791Y-14221912D01*
X23096791Y-14221912D02*
X23096791Y-14050484D01*
X23277744Y-14240960D02*
X23258696Y-14250484D01*
X23258696Y-14250484D02*
X23220601Y-14250484D01*
X23220601Y-14250484D02*
X23201553Y-14240960D01*
X23201553Y-14240960D02*
X23192030Y-14221912D01*
X23192030Y-14221912D02*
X23192030Y-14145722D01*
X23192030Y-14145722D02*
X23201553Y-14126674D01*
X23201553Y-14126674D02*
X23220601Y-14117150D01*
X23220601Y-14117150D02*
X23258696Y-14117150D01*
X23258696Y-14117150D02*
X23277744Y-14126674D01*
X23277744Y-14126674D02*
X23287268Y-14145722D01*
X23287268Y-14145722D02*
X23287268Y-14164769D01*
X23287268Y-14164769D02*
X23192030Y-14183817D01*
X23363458Y-14240960D02*
X23382506Y-14250484D01*
X23382506Y-14250484D02*
X23420601Y-14250484D01*
X23420601Y-14250484D02*
X23439649Y-14240960D01*
X23439649Y-14240960D02*
X23449172Y-14221912D01*
X23449172Y-14221912D02*
X23449172Y-14212388D01*
X23449172Y-14212388D02*
X23439649Y-14193341D01*
X23439649Y-14193341D02*
X23420601Y-14183817D01*
X23420601Y-14183817D02*
X23392030Y-14183817D01*
X23392030Y-14183817D02*
X23372982Y-14174293D01*
X23372982Y-14174293D02*
X23363458Y-14155246D01*
X23363458Y-14155246D02*
X23363458Y-14145722D01*
X23363458Y-14145722D02*
X23372982Y-14126674D01*
X23372982Y-14126674D02*
X23392030Y-14117150D01*
X23392030Y-14117150D02*
X23420601Y-14117150D01*
X23420601Y-14117150D02*
X23439649Y-14126674D01*
X23515839Y-14326674D02*
X23525363Y-14317150D01*
X23525363Y-14317150D02*
X23544411Y-14288579D01*
X23544411Y-14288579D02*
X23553934Y-14269531D01*
X23553934Y-14269531D02*
X23563458Y-14240960D01*
X23563458Y-14240960D02*
X23572982Y-14193341D01*
X23572982Y-14193341D02*
X23572982Y-14155246D01*
X23572982Y-14155246D02*
X23563458Y-14107627D01*
X23563458Y-14107627D02*
X23553934Y-14079055D01*
X23553934Y-14079055D02*
X23544411Y-14060008D01*
X23544411Y-14060008D02*
X23525363Y-14031436D01*
X23525363Y-14031436D02*
X23515839Y-14021912D01*
D12*
X18485300Y-14358000D02*
X18485300Y-14488000D01*
X18420300Y-14423000D02*
X18550300Y-14423000D01*
D11*
X18915839Y-14514484D02*
X18801553Y-14514484D01*
X18858696Y-14514484D02*
X18858696Y-14314484D01*
X18858696Y-14314484D02*
X18839648Y-14343055D01*
X18839648Y-14343055D02*
X18820601Y-14362103D01*
X18820601Y-14362103D02*
X18801553Y-14371627D01*
X19001553Y-14495436D02*
X19011077Y-14504960D01*
X19011077Y-14504960D02*
X19001553Y-14514484D01*
X19001553Y-14514484D02*
X18992029Y-14504960D01*
X18992029Y-14504960D02*
X19001553Y-14495436D01*
X19001553Y-14495436D02*
X19001553Y-14514484D01*
X19077744Y-14314484D02*
X19201553Y-14314484D01*
X19201553Y-14314484D02*
X19134886Y-14390674D01*
X19134886Y-14390674D02*
X19163458Y-14390674D01*
X19163458Y-14390674D02*
X19182505Y-14400198D01*
X19182505Y-14400198D02*
X19192029Y-14409722D01*
X19192029Y-14409722D02*
X19201553Y-14428769D01*
X19201553Y-14428769D02*
X19201553Y-14476388D01*
X19201553Y-14476388D02*
X19192029Y-14495436D01*
X19192029Y-14495436D02*
X19182505Y-14504960D01*
X19182505Y-14504960D02*
X19163458Y-14514484D01*
X19163458Y-14514484D02*
X19106315Y-14514484D01*
X19106315Y-14514484D02*
X19087267Y-14504960D01*
X19087267Y-14504960D02*
X19077744Y-14495436D01*
X19325363Y-14314484D02*
X19344410Y-14314484D01*
X19344410Y-14314484D02*
X19363458Y-14324008D01*
X19363458Y-14324008D02*
X19372982Y-14333531D01*
X19372982Y-14333531D02*
X19382505Y-14352579D01*
X19382505Y-14352579D02*
X19392029Y-14390674D01*
X19392029Y-14390674D02*
X19392029Y-14438293D01*
X19392029Y-14438293D02*
X19382505Y-14476388D01*
X19382505Y-14476388D02*
X19372982Y-14495436D01*
X19372982Y-14495436D02*
X19363458Y-14504960D01*
X19363458Y-14504960D02*
X19344410Y-14514484D01*
X19344410Y-14514484D02*
X19325363Y-14514484D01*
X19325363Y-14514484D02*
X19306315Y-14504960D01*
X19306315Y-14504960D02*
X19296791Y-14495436D01*
X19296791Y-14495436D02*
X19287267Y-14476388D01*
X19287267Y-14476388D02*
X19277744Y-14438293D01*
X19277744Y-14438293D02*
X19277744Y-14390674D01*
X19277744Y-14390674D02*
X19287267Y-14352579D01*
X19287267Y-14352579D02*
X19296791Y-14333531D01*
X19296791Y-14333531D02*
X19306315Y-14324008D01*
X19306315Y-14324008D02*
X19325363Y-14314484D01*
X19515839Y-14314484D02*
X19534886Y-14314484D01*
X19534886Y-14314484D02*
X19553934Y-14324008D01*
X19553934Y-14324008D02*
X19563458Y-14333531D01*
X19563458Y-14333531D02*
X19572982Y-14352579D01*
X19572982Y-14352579D02*
X19582505Y-14390674D01*
X19582505Y-14390674D02*
X19582505Y-14438293D01*
X19582505Y-14438293D02*
X19572982Y-14476388D01*
X19572982Y-14476388D02*
X19563458Y-14495436D01*
X19563458Y-14495436D02*
X19553934Y-14504960D01*
X19553934Y-14504960D02*
X19534886Y-14514484D01*
X19534886Y-14514484D02*
X19515839Y-14514484D01*
X19515839Y-14514484D02*
X19496791Y-14504960D01*
X19496791Y-14504960D02*
X19487267Y-14495436D01*
X19487267Y-14495436D02*
X19477744Y-14476388D01*
X19477744Y-14476388D02*
X19468220Y-14438293D01*
X19468220Y-14438293D02*
X19468220Y-14390674D01*
X19468220Y-14390674D02*
X19477744Y-14352579D01*
X19477744Y-14352579D02*
X19487267Y-14333531D01*
X19487267Y-14333531D02*
X19496791Y-14324008D01*
X19496791Y-14324008D02*
X19515839Y-14314484D01*
X19668220Y-14514484D02*
X19668220Y-14381150D01*
X19668220Y-14400198D02*
X19677744Y-14390674D01*
X19677744Y-14390674D02*
X19696791Y-14381150D01*
X19696791Y-14381150D02*
X19725363Y-14381150D01*
X19725363Y-14381150D02*
X19744410Y-14390674D01*
X19744410Y-14390674D02*
X19753934Y-14409722D01*
X19753934Y-14409722D02*
X19753934Y-14514484D01*
X19753934Y-14409722D02*
X19763458Y-14390674D01*
X19763458Y-14390674D02*
X19782505Y-14381150D01*
X19782505Y-14381150D02*
X19811077Y-14381150D01*
X19811077Y-14381150D02*
X19830125Y-14390674D01*
X19830125Y-14390674D02*
X19839648Y-14409722D01*
X19839648Y-14409722D02*
X19839648Y-14514484D01*
X19934886Y-14514484D02*
X19934886Y-14381150D01*
X19934886Y-14400198D02*
X19944410Y-14390674D01*
X19944410Y-14390674D02*
X19963458Y-14381150D01*
X19963458Y-14381150D02*
X19992029Y-14381150D01*
X19992029Y-14381150D02*
X20011077Y-14390674D01*
X20011077Y-14390674D02*
X20020601Y-14409722D01*
X20020601Y-14409722D02*
X20020601Y-14514484D01*
X20020601Y-14409722D02*
X20030125Y-14390674D01*
X20030125Y-14390674D02*
X20049172Y-14381150D01*
X20049172Y-14381150D02*
X20077744Y-14381150D01*
X20077744Y-14381150D02*
X20096791Y-14390674D01*
X20096791Y-14390674D02*
X20106315Y-14409722D01*
X20106315Y-14409722D02*
X20106315Y-14514484D01*
X20496791Y-14304960D02*
X20325363Y-14562103D01*
X20753934Y-14314484D02*
X20772982Y-14314484D01*
X20772982Y-14314484D02*
X20792029Y-14324008D01*
X20792029Y-14324008D02*
X20801553Y-14333531D01*
X20801553Y-14333531D02*
X20811077Y-14352579D01*
X20811077Y-14352579D02*
X20820601Y-14390674D01*
X20820601Y-14390674D02*
X20820601Y-14438293D01*
X20820601Y-14438293D02*
X20811077Y-14476388D01*
X20811077Y-14476388D02*
X20801553Y-14495436D01*
X20801553Y-14495436D02*
X20792029Y-14504960D01*
X20792029Y-14504960D02*
X20772982Y-14514484D01*
X20772982Y-14514484D02*
X20753934Y-14514484D01*
X20753934Y-14514484D02*
X20734887Y-14504960D01*
X20734887Y-14504960D02*
X20725363Y-14495436D01*
X20725363Y-14495436D02*
X20715839Y-14476388D01*
X20715839Y-14476388D02*
X20706315Y-14438293D01*
X20706315Y-14438293D02*
X20706315Y-14390674D01*
X20706315Y-14390674D02*
X20715839Y-14352579D01*
X20715839Y-14352579D02*
X20725363Y-14333531D01*
X20725363Y-14333531D02*
X20734887Y-14324008D01*
X20734887Y-14324008D02*
X20753934Y-14314484D01*
X20906315Y-14495436D02*
X20915839Y-14504960D01*
X20915839Y-14504960D02*
X20906315Y-14514484D01*
X20906315Y-14514484D02*
X20896791Y-14504960D01*
X20896791Y-14504960D02*
X20906315Y-14495436D01*
X20906315Y-14495436D02*
X20906315Y-14514484D01*
X21039648Y-14314484D02*
X21058696Y-14314484D01*
X21058696Y-14314484D02*
X21077744Y-14324008D01*
X21077744Y-14324008D02*
X21087268Y-14333531D01*
X21087268Y-14333531D02*
X21096791Y-14352579D01*
X21096791Y-14352579D02*
X21106315Y-14390674D01*
X21106315Y-14390674D02*
X21106315Y-14438293D01*
X21106315Y-14438293D02*
X21096791Y-14476388D01*
X21096791Y-14476388D02*
X21087268Y-14495436D01*
X21087268Y-14495436D02*
X21077744Y-14504960D01*
X21077744Y-14504960D02*
X21058696Y-14514484D01*
X21058696Y-14514484D02*
X21039648Y-14514484D01*
X21039648Y-14514484D02*
X21020601Y-14504960D01*
X21020601Y-14504960D02*
X21011077Y-14495436D01*
X21011077Y-14495436D02*
X21001553Y-14476388D01*
X21001553Y-14476388D02*
X20992029Y-14438293D01*
X20992029Y-14438293D02*
X20992029Y-14390674D01*
X20992029Y-14390674D02*
X21001553Y-14352579D01*
X21001553Y-14352579D02*
X21011077Y-14333531D01*
X21011077Y-14333531D02*
X21020601Y-14324008D01*
X21020601Y-14324008D02*
X21039648Y-14314484D01*
X21287268Y-14314484D02*
X21192029Y-14314484D01*
X21192029Y-14314484D02*
X21182506Y-14409722D01*
X21182506Y-14409722D02*
X21192029Y-14400198D01*
X21192029Y-14400198D02*
X21211077Y-14390674D01*
X21211077Y-14390674D02*
X21258696Y-14390674D01*
X21258696Y-14390674D02*
X21277744Y-14400198D01*
X21277744Y-14400198D02*
X21287268Y-14409722D01*
X21287268Y-14409722D02*
X21296791Y-14428769D01*
X21296791Y-14428769D02*
X21296791Y-14476388D01*
X21296791Y-14476388D02*
X21287268Y-14495436D01*
X21287268Y-14495436D02*
X21277744Y-14504960D01*
X21277744Y-14504960D02*
X21258696Y-14514484D01*
X21258696Y-14514484D02*
X21211077Y-14514484D01*
X21211077Y-14514484D02*
X21192029Y-14504960D01*
X21192029Y-14504960D02*
X21182506Y-14495436D01*
X21487268Y-14514484D02*
X21372982Y-14514484D01*
X21430125Y-14514484D02*
X21430125Y-14314484D01*
X21430125Y-14314484D02*
X21411077Y-14343055D01*
X21411077Y-14343055D02*
X21392029Y-14362103D01*
X21392029Y-14362103D02*
X21372982Y-14371627D01*
X21563458Y-14333531D02*
X21572982Y-14324008D01*
X21572982Y-14324008D02*
X21592029Y-14314484D01*
X21592029Y-14314484D02*
X21639649Y-14314484D01*
X21639649Y-14314484D02*
X21658696Y-14324008D01*
X21658696Y-14324008D02*
X21668220Y-14333531D01*
X21668220Y-14333531D02*
X21677744Y-14352579D01*
X21677744Y-14352579D02*
X21677744Y-14371627D01*
X21677744Y-14371627D02*
X21668220Y-14400198D01*
X21668220Y-14400198D02*
X21553934Y-14514484D01*
X21553934Y-14514484D02*
X21677744Y-14514484D01*
X21753934Y-14314484D02*
X21753934Y-14352579D01*
X21830125Y-14314484D02*
X21830125Y-14352579D01*
X22125363Y-14590674D02*
X22115839Y-14581150D01*
X22115839Y-14581150D02*
X22096791Y-14552579D01*
X22096791Y-14552579D02*
X22087268Y-14533531D01*
X22087268Y-14533531D02*
X22077744Y-14504960D01*
X22077744Y-14504960D02*
X22068220Y-14457341D01*
X22068220Y-14457341D02*
X22068220Y-14419246D01*
X22068220Y-14419246D02*
X22077744Y-14371627D01*
X22077744Y-14371627D02*
X22087268Y-14343055D01*
X22087268Y-14343055D02*
X22096791Y-14324008D01*
X22096791Y-14324008D02*
X22115839Y-14295436D01*
X22115839Y-14295436D02*
X22125363Y-14285912D01*
X22306315Y-14514484D02*
X22192030Y-14514484D01*
X22249172Y-14514484D02*
X22249172Y-14314484D01*
X22249172Y-14314484D02*
X22230125Y-14343055D01*
X22230125Y-14343055D02*
X22211077Y-14362103D01*
X22211077Y-14362103D02*
X22192030Y-14371627D01*
X22420601Y-14400198D02*
X22401553Y-14390674D01*
X22401553Y-14390674D02*
X22392029Y-14381150D01*
X22392029Y-14381150D02*
X22382506Y-14362103D01*
X22382506Y-14362103D02*
X22382506Y-14352579D01*
X22382506Y-14352579D02*
X22392029Y-14333531D01*
X22392029Y-14333531D02*
X22401553Y-14324008D01*
X22401553Y-14324008D02*
X22420601Y-14314484D01*
X22420601Y-14314484D02*
X22458696Y-14314484D01*
X22458696Y-14314484D02*
X22477744Y-14324008D01*
X22477744Y-14324008D02*
X22487268Y-14333531D01*
X22487268Y-14333531D02*
X22496791Y-14352579D01*
X22496791Y-14352579D02*
X22496791Y-14362103D01*
X22496791Y-14362103D02*
X22487268Y-14381150D01*
X22487268Y-14381150D02*
X22477744Y-14390674D01*
X22477744Y-14390674D02*
X22458696Y-14400198D01*
X22458696Y-14400198D02*
X22420601Y-14400198D01*
X22420601Y-14400198D02*
X22401553Y-14409722D01*
X22401553Y-14409722D02*
X22392029Y-14419246D01*
X22392029Y-14419246D02*
X22382506Y-14438293D01*
X22382506Y-14438293D02*
X22382506Y-14476388D01*
X22382506Y-14476388D02*
X22392029Y-14495436D01*
X22392029Y-14495436D02*
X22401553Y-14504960D01*
X22401553Y-14504960D02*
X22420601Y-14514484D01*
X22420601Y-14514484D02*
X22458696Y-14514484D01*
X22458696Y-14514484D02*
X22477744Y-14504960D01*
X22477744Y-14504960D02*
X22487268Y-14495436D01*
X22487268Y-14495436D02*
X22496791Y-14476388D01*
X22496791Y-14476388D02*
X22496791Y-14438293D01*
X22496791Y-14438293D02*
X22487268Y-14419246D01*
X22487268Y-14419246D02*
X22477744Y-14409722D01*
X22477744Y-14409722D02*
X22458696Y-14400198D01*
X22734887Y-14514484D02*
X22734887Y-14314484D01*
X22820601Y-14514484D02*
X22820601Y-14409722D01*
X22820601Y-14409722D02*
X22811077Y-14390674D01*
X22811077Y-14390674D02*
X22792030Y-14381150D01*
X22792030Y-14381150D02*
X22763458Y-14381150D01*
X22763458Y-14381150D02*
X22744410Y-14390674D01*
X22744410Y-14390674D02*
X22734887Y-14400198D01*
X22944410Y-14514484D02*
X22925363Y-14504960D01*
X22925363Y-14504960D02*
X22915839Y-14495436D01*
X22915839Y-14495436D02*
X22906315Y-14476388D01*
X22906315Y-14476388D02*
X22906315Y-14419246D01*
X22906315Y-14419246D02*
X22915839Y-14400198D01*
X22915839Y-14400198D02*
X22925363Y-14390674D01*
X22925363Y-14390674D02*
X22944410Y-14381150D01*
X22944410Y-14381150D02*
X22972982Y-14381150D01*
X22972982Y-14381150D02*
X22992030Y-14390674D01*
X22992030Y-14390674D02*
X23001553Y-14400198D01*
X23001553Y-14400198D02*
X23011077Y-14419246D01*
X23011077Y-14419246D02*
X23011077Y-14476388D01*
X23011077Y-14476388D02*
X23001553Y-14495436D01*
X23001553Y-14495436D02*
X22992030Y-14504960D01*
X22992030Y-14504960D02*
X22972982Y-14514484D01*
X22972982Y-14514484D02*
X22944410Y-14514484D01*
X23125363Y-14514484D02*
X23106315Y-14504960D01*
X23106315Y-14504960D02*
X23096791Y-14485912D01*
X23096791Y-14485912D02*
X23096791Y-14314484D01*
X23277744Y-14504960D02*
X23258696Y-14514484D01*
X23258696Y-14514484D02*
X23220601Y-14514484D01*
X23220601Y-14514484D02*
X23201553Y-14504960D01*
X23201553Y-14504960D02*
X23192030Y-14485912D01*
X23192030Y-14485912D02*
X23192030Y-14409722D01*
X23192030Y-14409722D02*
X23201553Y-14390674D01*
X23201553Y-14390674D02*
X23220601Y-14381150D01*
X23220601Y-14381150D02*
X23258696Y-14381150D01*
X23258696Y-14381150D02*
X23277744Y-14390674D01*
X23277744Y-14390674D02*
X23287268Y-14409722D01*
X23287268Y-14409722D02*
X23287268Y-14428769D01*
X23287268Y-14428769D02*
X23192030Y-14447817D01*
X23363458Y-14504960D02*
X23382506Y-14514484D01*
X23382506Y-14514484D02*
X23420601Y-14514484D01*
X23420601Y-14514484D02*
X23439649Y-14504960D01*
X23439649Y-14504960D02*
X23449172Y-14485912D01*
X23449172Y-14485912D02*
X23449172Y-14476388D01*
X23449172Y-14476388D02*
X23439649Y-14457341D01*
X23439649Y-14457341D02*
X23420601Y-14447817D01*
X23420601Y-14447817D02*
X23392030Y-14447817D01*
X23392030Y-14447817D02*
X23372982Y-14438293D01*
X23372982Y-14438293D02*
X23363458Y-14419246D01*
X23363458Y-14419246D02*
X23363458Y-14409722D01*
X23363458Y-14409722D02*
X23372982Y-14390674D01*
X23372982Y-14390674D02*
X23392030Y-14381150D01*
X23392030Y-14381150D02*
X23420601Y-14381150D01*
X23420601Y-14381150D02*
X23439649Y-14390674D01*
X23515839Y-14590674D02*
X23525363Y-14581150D01*
X23525363Y-14581150D02*
X23544411Y-14552579D01*
X23544411Y-14552579D02*
X23553934Y-14533531D01*
X23553934Y-14533531D02*
X23563458Y-14504960D01*
X23563458Y-14504960D02*
X23572982Y-14457341D01*
X23572982Y-14457341D02*
X23572982Y-14419246D01*
X23572982Y-14419246D02*
X23563458Y-14371627D01*
X23563458Y-14371627D02*
X23553934Y-14343055D01*
X23553934Y-14343055D02*
X23544411Y-14324008D01*
X23544411Y-14324008D02*
X23525363Y-14295436D01*
X23525363Y-14295436D02*
X23515839Y-14285912D01*
D13*
X18524233Y-14749933D02*
X18524233Y-14624067D01*
X18398367Y-14624067D01*
X18398367Y-14749933D01*
X18524233Y-14749933D01*
D11*
X18915839Y-14778484D02*
X18801553Y-14778484D01*
X18858696Y-14778484D02*
X18858696Y-14578484D01*
X18858696Y-14578484D02*
X18839648Y-14607055D01*
X18839648Y-14607055D02*
X18820601Y-14626103D01*
X18820601Y-14626103D02*
X18801553Y-14635627D01*
X19001553Y-14759436D02*
X19011077Y-14768960D01*
X19011077Y-14768960D02*
X19001553Y-14778484D01*
X19001553Y-14778484D02*
X18992029Y-14768960D01*
X18992029Y-14768960D02*
X19001553Y-14759436D01*
X19001553Y-14759436D02*
X19001553Y-14778484D01*
X19077744Y-14578484D02*
X19211077Y-14578484D01*
X19211077Y-14578484D02*
X19125363Y-14778484D01*
X19315839Y-14664198D02*
X19296791Y-14654674D01*
X19296791Y-14654674D02*
X19287267Y-14645150D01*
X19287267Y-14645150D02*
X19277744Y-14626103D01*
X19277744Y-14626103D02*
X19277744Y-14616579D01*
X19277744Y-14616579D02*
X19287267Y-14597531D01*
X19287267Y-14597531D02*
X19296791Y-14588008D01*
X19296791Y-14588008D02*
X19315839Y-14578484D01*
X19315839Y-14578484D02*
X19353934Y-14578484D01*
X19353934Y-14578484D02*
X19372982Y-14588008D01*
X19372982Y-14588008D02*
X19382505Y-14597531D01*
X19382505Y-14597531D02*
X19392029Y-14616579D01*
X19392029Y-14616579D02*
X19392029Y-14626103D01*
X19392029Y-14626103D02*
X19382505Y-14645150D01*
X19382505Y-14645150D02*
X19372982Y-14654674D01*
X19372982Y-14654674D02*
X19353934Y-14664198D01*
X19353934Y-14664198D02*
X19315839Y-14664198D01*
X19315839Y-14664198D02*
X19296791Y-14673722D01*
X19296791Y-14673722D02*
X19287267Y-14683246D01*
X19287267Y-14683246D02*
X19277744Y-14702293D01*
X19277744Y-14702293D02*
X19277744Y-14740388D01*
X19277744Y-14740388D02*
X19287267Y-14759436D01*
X19287267Y-14759436D02*
X19296791Y-14768960D01*
X19296791Y-14768960D02*
X19315839Y-14778484D01*
X19315839Y-14778484D02*
X19353934Y-14778484D01*
X19353934Y-14778484D02*
X19372982Y-14768960D01*
X19372982Y-14768960D02*
X19382505Y-14759436D01*
X19382505Y-14759436D02*
X19392029Y-14740388D01*
X19392029Y-14740388D02*
X19392029Y-14702293D01*
X19392029Y-14702293D02*
X19382505Y-14683246D01*
X19382505Y-14683246D02*
X19372982Y-14673722D01*
X19372982Y-14673722D02*
X19353934Y-14664198D01*
X19515839Y-14578484D02*
X19534886Y-14578484D01*
X19534886Y-14578484D02*
X19553934Y-14588008D01*
X19553934Y-14588008D02*
X19563458Y-14597531D01*
X19563458Y-14597531D02*
X19572982Y-14616579D01*
X19572982Y-14616579D02*
X19582505Y-14654674D01*
X19582505Y-14654674D02*
X19582505Y-14702293D01*
X19582505Y-14702293D02*
X19572982Y-14740388D01*
X19572982Y-14740388D02*
X19563458Y-14759436D01*
X19563458Y-14759436D02*
X19553934Y-14768960D01*
X19553934Y-14768960D02*
X19534886Y-14778484D01*
X19534886Y-14778484D02*
X19515839Y-14778484D01*
X19515839Y-14778484D02*
X19496791Y-14768960D01*
X19496791Y-14768960D02*
X19487267Y-14759436D01*
X19487267Y-14759436D02*
X19477744Y-14740388D01*
X19477744Y-14740388D02*
X19468220Y-14702293D01*
X19468220Y-14702293D02*
X19468220Y-14654674D01*
X19468220Y-14654674D02*
X19477744Y-14616579D01*
X19477744Y-14616579D02*
X19487267Y-14597531D01*
X19487267Y-14597531D02*
X19496791Y-14588008D01*
X19496791Y-14588008D02*
X19515839Y-14578484D01*
X19668220Y-14778484D02*
X19668220Y-14645150D01*
X19668220Y-14664198D02*
X19677744Y-14654674D01*
X19677744Y-14654674D02*
X19696791Y-14645150D01*
X19696791Y-14645150D02*
X19725363Y-14645150D01*
X19725363Y-14645150D02*
X19744410Y-14654674D01*
X19744410Y-14654674D02*
X19753934Y-14673722D01*
X19753934Y-14673722D02*
X19753934Y-14778484D01*
X19753934Y-14673722D02*
X19763458Y-14654674D01*
X19763458Y-14654674D02*
X19782505Y-14645150D01*
X19782505Y-14645150D02*
X19811077Y-14645150D01*
X19811077Y-14645150D02*
X19830125Y-14654674D01*
X19830125Y-14654674D02*
X19839648Y-14673722D01*
X19839648Y-14673722D02*
X19839648Y-14778484D01*
X19934886Y-14778484D02*
X19934886Y-14645150D01*
X19934886Y-14664198D02*
X19944410Y-14654674D01*
X19944410Y-14654674D02*
X19963458Y-14645150D01*
X19963458Y-14645150D02*
X19992029Y-14645150D01*
X19992029Y-14645150D02*
X20011077Y-14654674D01*
X20011077Y-14654674D02*
X20020601Y-14673722D01*
X20020601Y-14673722D02*
X20020601Y-14778484D01*
X20020601Y-14673722D02*
X20030125Y-14654674D01*
X20030125Y-14654674D02*
X20049172Y-14645150D01*
X20049172Y-14645150D02*
X20077744Y-14645150D01*
X20077744Y-14645150D02*
X20096791Y-14654674D01*
X20096791Y-14654674D02*
X20106315Y-14673722D01*
X20106315Y-14673722D02*
X20106315Y-14778484D01*
X20496791Y-14568960D02*
X20325363Y-14826103D01*
X20753934Y-14578484D02*
X20772982Y-14578484D01*
X20772982Y-14578484D02*
X20792029Y-14588008D01*
X20792029Y-14588008D02*
X20801553Y-14597531D01*
X20801553Y-14597531D02*
X20811077Y-14616579D01*
X20811077Y-14616579D02*
X20820601Y-14654674D01*
X20820601Y-14654674D02*
X20820601Y-14702293D01*
X20820601Y-14702293D02*
X20811077Y-14740388D01*
X20811077Y-14740388D02*
X20801553Y-14759436D01*
X20801553Y-14759436D02*
X20792029Y-14768960D01*
X20792029Y-14768960D02*
X20772982Y-14778484D01*
X20772982Y-14778484D02*
X20753934Y-14778484D01*
X20753934Y-14778484D02*
X20734887Y-14768960D01*
X20734887Y-14768960D02*
X20725363Y-14759436D01*
X20725363Y-14759436D02*
X20715839Y-14740388D01*
X20715839Y-14740388D02*
X20706315Y-14702293D01*
X20706315Y-14702293D02*
X20706315Y-14654674D01*
X20706315Y-14654674D02*
X20715839Y-14616579D01*
X20715839Y-14616579D02*
X20725363Y-14597531D01*
X20725363Y-14597531D02*
X20734887Y-14588008D01*
X20734887Y-14588008D02*
X20753934Y-14578484D01*
X20906315Y-14759436D02*
X20915839Y-14768960D01*
X20915839Y-14768960D02*
X20906315Y-14778484D01*
X20906315Y-14778484D02*
X20896791Y-14768960D01*
X20896791Y-14768960D02*
X20906315Y-14759436D01*
X20906315Y-14759436D02*
X20906315Y-14778484D01*
X21039648Y-14578484D02*
X21058696Y-14578484D01*
X21058696Y-14578484D02*
X21077744Y-14588008D01*
X21077744Y-14588008D02*
X21087268Y-14597531D01*
X21087268Y-14597531D02*
X21096791Y-14616579D01*
X21096791Y-14616579D02*
X21106315Y-14654674D01*
X21106315Y-14654674D02*
X21106315Y-14702293D01*
X21106315Y-14702293D02*
X21096791Y-14740388D01*
X21096791Y-14740388D02*
X21087268Y-14759436D01*
X21087268Y-14759436D02*
X21077744Y-14768960D01*
X21077744Y-14768960D02*
X21058696Y-14778484D01*
X21058696Y-14778484D02*
X21039648Y-14778484D01*
X21039648Y-14778484D02*
X21020601Y-14768960D01*
X21020601Y-14768960D02*
X21011077Y-14759436D01*
X21011077Y-14759436D02*
X21001553Y-14740388D01*
X21001553Y-14740388D02*
X20992029Y-14702293D01*
X20992029Y-14702293D02*
X20992029Y-14654674D01*
X20992029Y-14654674D02*
X21001553Y-14616579D01*
X21001553Y-14616579D02*
X21011077Y-14597531D01*
X21011077Y-14597531D02*
X21020601Y-14588008D01*
X21020601Y-14588008D02*
X21039648Y-14578484D01*
X21172982Y-14578484D02*
X21306315Y-14578484D01*
X21306315Y-14578484D02*
X21220601Y-14778484D01*
X21420601Y-14578484D02*
X21439649Y-14578484D01*
X21439649Y-14578484D02*
X21458696Y-14588008D01*
X21458696Y-14588008D02*
X21468220Y-14597531D01*
X21468220Y-14597531D02*
X21477744Y-14616579D01*
X21477744Y-14616579D02*
X21487268Y-14654674D01*
X21487268Y-14654674D02*
X21487268Y-14702293D01*
X21487268Y-14702293D02*
X21477744Y-14740388D01*
X21477744Y-14740388D02*
X21468220Y-14759436D01*
X21468220Y-14759436D02*
X21458696Y-14768960D01*
X21458696Y-14768960D02*
X21439649Y-14778484D01*
X21439649Y-14778484D02*
X21420601Y-14778484D01*
X21420601Y-14778484D02*
X21401553Y-14768960D01*
X21401553Y-14768960D02*
X21392029Y-14759436D01*
X21392029Y-14759436D02*
X21382506Y-14740388D01*
X21382506Y-14740388D02*
X21372982Y-14702293D01*
X21372982Y-14702293D02*
X21372982Y-14654674D01*
X21372982Y-14654674D02*
X21382506Y-14616579D01*
X21382506Y-14616579D02*
X21392029Y-14597531D01*
X21392029Y-14597531D02*
X21401553Y-14588008D01*
X21401553Y-14588008D02*
X21420601Y-14578484D01*
X21677744Y-14778484D02*
X21563458Y-14778484D01*
X21620601Y-14778484D02*
X21620601Y-14578484D01*
X21620601Y-14578484D02*
X21601553Y-14607055D01*
X21601553Y-14607055D02*
X21582506Y-14626103D01*
X21582506Y-14626103D02*
X21563458Y-14635627D01*
X21753934Y-14578484D02*
X21753934Y-14616579D01*
X21830125Y-14578484D02*
X21830125Y-14616579D01*
X22125363Y-14854674D02*
X22115839Y-14845150D01*
X22115839Y-14845150D02*
X22096791Y-14816579D01*
X22096791Y-14816579D02*
X22087268Y-14797531D01*
X22087268Y-14797531D02*
X22077744Y-14768960D01*
X22077744Y-14768960D02*
X22068220Y-14721341D01*
X22068220Y-14721341D02*
X22068220Y-14683246D01*
X22068220Y-14683246D02*
X22077744Y-14635627D01*
X22077744Y-14635627D02*
X22087268Y-14607055D01*
X22087268Y-14607055D02*
X22096791Y-14588008D01*
X22096791Y-14588008D02*
X22115839Y-14559436D01*
X22115839Y-14559436D02*
X22125363Y-14549912D01*
X22287268Y-14645150D02*
X22287268Y-14778484D01*
X22239649Y-14568960D02*
X22192030Y-14711817D01*
X22192030Y-14711817D02*
X22315839Y-14711817D01*
X22544410Y-14778484D02*
X22544410Y-14578484D01*
X22630125Y-14778484D02*
X22630125Y-14673722D01*
X22630125Y-14673722D02*
X22620601Y-14654674D01*
X22620601Y-14654674D02*
X22601553Y-14645150D01*
X22601553Y-14645150D02*
X22572982Y-14645150D01*
X22572982Y-14645150D02*
X22553934Y-14654674D01*
X22553934Y-14654674D02*
X22544410Y-14664198D01*
X22753934Y-14778484D02*
X22734887Y-14768960D01*
X22734887Y-14768960D02*
X22725363Y-14759436D01*
X22725363Y-14759436D02*
X22715839Y-14740388D01*
X22715839Y-14740388D02*
X22715839Y-14683246D01*
X22715839Y-14683246D02*
X22725363Y-14664198D01*
X22725363Y-14664198D02*
X22734887Y-14654674D01*
X22734887Y-14654674D02*
X22753934Y-14645150D01*
X22753934Y-14645150D02*
X22782506Y-14645150D01*
X22782506Y-14645150D02*
X22801553Y-14654674D01*
X22801553Y-14654674D02*
X22811077Y-14664198D01*
X22811077Y-14664198D02*
X22820601Y-14683246D01*
X22820601Y-14683246D02*
X22820601Y-14740388D01*
X22820601Y-14740388D02*
X22811077Y-14759436D01*
X22811077Y-14759436D02*
X22801553Y-14768960D01*
X22801553Y-14768960D02*
X22782506Y-14778484D01*
X22782506Y-14778484D02*
X22753934Y-14778484D01*
X22934887Y-14778484D02*
X22915839Y-14768960D01*
X22915839Y-14768960D02*
X22906315Y-14749912D01*
X22906315Y-14749912D02*
X22906315Y-14578484D01*
X23087268Y-14768960D02*
X23068220Y-14778484D01*
X23068220Y-14778484D02*
X23030125Y-14778484D01*
X23030125Y-14778484D02*
X23011077Y-14768960D01*
X23011077Y-14768960D02*
X23001553Y-14749912D01*
X23001553Y-14749912D02*
X23001553Y-14673722D01*
X23001553Y-14673722D02*
X23011077Y-14654674D01*
X23011077Y-14654674D02*
X23030125Y-14645150D01*
X23030125Y-14645150D02*
X23068220Y-14645150D01*
X23068220Y-14645150D02*
X23087268Y-14654674D01*
X23087268Y-14654674D02*
X23096791Y-14673722D01*
X23096791Y-14673722D02*
X23096791Y-14692769D01*
X23096791Y-14692769D02*
X23001553Y-14711817D01*
X23172982Y-14768960D02*
X23192030Y-14778484D01*
X23192030Y-14778484D02*
X23230125Y-14778484D01*
X23230125Y-14778484D02*
X23249172Y-14768960D01*
X23249172Y-14768960D02*
X23258696Y-14749912D01*
X23258696Y-14749912D02*
X23258696Y-14740388D01*
X23258696Y-14740388D02*
X23249172Y-14721341D01*
X23249172Y-14721341D02*
X23230125Y-14711817D01*
X23230125Y-14711817D02*
X23201553Y-14711817D01*
X23201553Y-14711817D02*
X23182506Y-14702293D01*
X23182506Y-14702293D02*
X23172982Y-14683246D01*
X23172982Y-14683246D02*
X23172982Y-14673722D01*
X23172982Y-14673722D02*
X23182506Y-14654674D01*
X23182506Y-14654674D02*
X23201553Y-14645150D01*
X23201553Y-14645150D02*
X23230125Y-14645150D01*
X23230125Y-14645150D02*
X23249172Y-14654674D01*
X23325363Y-14854674D02*
X23334887Y-14845150D01*
X23334887Y-14845150D02*
X23353934Y-14816579D01*
X23353934Y-14816579D02*
X23363458Y-14797531D01*
X23363458Y-14797531D02*
X23372982Y-14768960D01*
X23372982Y-14768960D02*
X23382506Y-14721341D01*
X23382506Y-14721341D02*
X23382506Y-14683246D01*
X23382506Y-14683246D02*
X23372982Y-14635627D01*
X23372982Y-14635627D02*
X23363458Y-14607055D01*
X23363458Y-14607055D02*
X23353934Y-14588008D01*
X23353934Y-14588008D02*
X23334887Y-14559436D01*
X23334887Y-14559436D02*
X23325363Y-14549912D01*
M02*
