%TF.GenerationSoftware,KiCad,Pcbnew,9.0.8+dfsg-1*%
%TF.CreationDate,2026-09-29T16:28:53+00:00*%
%TF.ProjectId,MachineJDG2025_MEGA2560_Shield_v2,4d616368-696e-4654-9a44-47323032355f,rev?*%
%TF.SameCoordinates,Original*%
%TF.FileFunction,Drillmap*%
%TF.FilePolarity,Positive*%
%FSLAX45Y45*%
G04 Gerber Fmt 4.5, Leading zero omitted, Abs format (unit mm)*
G04 Created by KiCad (PCBNEW 9.0.8+dfsg-1) date 2026-09-29 16:28:53*
%MOMM*%
%LPD*%
G01*
G04 APERTURE LIST*
%ADD10C,0.100000*%
%ADD11C,0.200000*%
G04 APERTURE END LIST*
D10*
X18555300Y-4250000D02*
X26055300Y-4250000D01*
X18555300Y-13250000D02*
X18555300Y-4250000D01*
X26055300Y-4250000D02*
X26055300Y-13250000D01*
X26055300Y-13250000D02*
X18555300Y-13250000D01*
D11*
X18811077Y-13566484D02*
X18811077Y-13366484D01*
X18811077Y-13366484D02*
X18858696Y-13366484D01*
X18858696Y-13366484D02*
X18887267Y-13376008D01*
X18887267Y-13376008D02*
X18906315Y-13395055D01*
X18906315Y-13395055D02*
X18915839Y-13414103D01*
X18915839Y-13414103D02*
X18925363Y-13452198D01*
X18925363Y-13452198D02*
X18925363Y-13480769D01*
X18925363Y-13480769D02*
X18915839Y-13518865D01*
X18915839Y-13518865D02*
X18906315Y-13537912D01*
X18906315Y-13537912D02*
X18887267Y-13556960D01*
X18887267Y-13556960D02*
X18858696Y-13566484D01*
X18858696Y-13566484D02*
X18811077Y-13566484D01*
X19011077Y-13566484D02*
X19011077Y-13433150D01*
X19011077Y-13471246D02*
X19020601Y-13452198D01*
X19020601Y-13452198D02*
X19030124Y-13442674D01*
X19030124Y-13442674D02*
X19049172Y-13433150D01*
X19049172Y-13433150D02*
X19068220Y-13433150D01*
X19134886Y-13566484D02*
X19134886Y-13433150D01*
X19134886Y-13366484D02*
X19125363Y-13376008D01*
X19125363Y-13376008D02*
X19134886Y-13385531D01*
X19134886Y-13385531D02*
X19144410Y-13376008D01*
X19144410Y-13376008D02*
X19134886Y-13366484D01*
X19134886Y-13366484D02*
X19134886Y-13385531D01*
X19258696Y-13566484D02*
X19239648Y-13556960D01*
X19239648Y-13556960D02*
X19230124Y-13537912D01*
X19230124Y-13537912D02*
X19230124Y-13366484D01*
X19363458Y-13566484D02*
X19344410Y-13556960D01*
X19344410Y-13556960D02*
X19334886Y-13537912D01*
X19334886Y-13537912D02*
X19334886Y-13366484D01*
X19592029Y-13566484D02*
X19592029Y-13366484D01*
X19592029Y-13366484D02*
X19658696Y-13509341D01*
X19658696Y-13509341D02*
X19725363Y-13366484D01*
X19725363Y-13366484D02*
X19725363Y-13566484D01*
X19906315Y-13566484D02*
X19906315Y-13461722D01*
X19906315Y-13461722D02*
X19896791Y-13442674D01*
X19896791Y-13442674D02*
X19877744Y-13433150D01*
X19877744Y-13433150D02*
X19839648Y-13433150D01*
X19839648Y-13433150D02*
X19820601Y-13442674D01*
X19906315Y-13556960D02*
X19887267Y-13566484D01*
X19887267Y-13566484D02*
X19839648Y-13566484D01*
X19839648Y-13566484D02*
X19820601Y-13556960D01*
X19820601Y-13556960D02*
X19811077Y-13537912D01*
X19811077Y-13537912D02*
X19811077Y-13518865D01*
X19811077Y-13518865D02*
X19820601Y-13499817D01*
X19820601Y-13499817D02*
X19839648Y-13490293D01*
X19839648Y-13490293D02*
X19887267Y-13490293D01*
X19887267Y-13490293D02*
X19906315Y-13480769D01*
X20001553Y-13433150D02*
X20001553Y-13633150D01*
X20001553Y-13442674D02*
X20020601Y-13433150D01*
X20020601Y-13433150D02*
X20058696Y-13433150D01*
X20058696Y-13433150D02*
X20077744Y-13442674D01*
X20077744Y-13442674D02*
X20087267Y-13452198D01*
X20087267Y-13452198D02*
X20096791Y-13471246D01*
X20096791Y-13471246D02*
X20096791Y-13528388D01*
X20096791Y-13528388D02*
X20087267Y-13547436D01*
X20087267Y-13547436D02*
X20077744Y-13556960D01*
X20077744Y-13556960D02*
X20058696Y-13566484D01*
X20058696Y-13566484D02*
X20020601Y-13566484D01*
X20020601Y-13566484D02*
X20001553Y-13556960D01*
X20182505Y-13547436D02*
X20192029Y-13556960D01*
X20192029Y-13556960D02*
X20182505Y-13566484D01*
X20182505Y-13566484D02*
X20172982Y-13556960D01*
X20172982Y-13556960D02*
X20182505Y-13547436D01*
X20182505Y-13547436D02*
X20182505Y-13566484D01*
X20182505Y-13442674D02*
X20192029Y-13452198D01*
X20192029Y-13452198D02*
X20182505Y-13461722D01*
X20182505Y-13461722D02*
X20172982Y-13452198D01*
X20172982Y-13452198D02*
X20182505Y-13442674D01*
X20182505Y-13442674D02*
X20182505Y-13461722D01*
M02*
