%TF.GenerationSoftware,KiCad,Pcbnew,8.0.2*%
%TF.CreationDate,2024-12-19T19:30:14-05:00*%
%TF.ProjectId,MachineJDG2025_MEGA2560_Shield_VL_2024_12_19,4d616368-696e-4654-9a44-47323032355f,rev?*%
%TF.SameCoordinates,Original*%
%TF.FileFunction,Copper,L1,Top*%
%TF.FilePolarity,Positive*%
%FSLAX46Y46*%
G04 Gerber Fmt 4.6, Leading zero omitted, Abs format (unit mm)*
G04 Created by KiCad (PCBNEW 8.0.2) date 2024-12-19 19:30:14*
%MOMM*%
%LPD*%
G01*
G04 APERTURE LIST*
%TA.AperFunction,ComponentPad*%
%ADD10R,1.500000X1.500000*%
%TD*%
%TA.AperFunction,ComponentPad*%
%ADD11C,1.500000*%
%TD*%
%TA.AperFunction,ComponentPad*%
%ADD12C,1.950000*%
%TD*%
%TA.AperFunction,ComponentPad*%
%ADD13C,1.408000*%
%TD*%
%TA.AperFunction,ComponentPad*%
%ADD14C,1.676400*%
%TD*%
%TA.AperFunction,ComponentPad*%
%ADD15R,1.298000X1.298000*%
%TD*%
%TA.AperFunction,ComponentPad*%
%ADD16C,1.298000*%
%TD*%
G04 APERTURE END LIST*
D10*
%TO.P,S3,01,01*%
%TO.N,Net-(R5-Pad1)*%
X195473268Y-99500000D03*
D11*
%TO.P,S3,02,02*%
%TO.N,6V*%
X198013268Y-99500000D03*
%TO.P,S3,03,03*%
%TO.N,D13*%
X200553268Y-99500000D03*
%TD*%
D12*
%TO.P,J10,1*%
%TO.N,GND*%
X235553268Y-125000000D03*
%TO.P,J10,2*%
%TO.N,Net-(J1-Pad2)*%
X239053268Y-125000000D03*
%TD*%
D13*
%TO.P,R3,1*%
%TO.N,Net-(R3-Pad1)*%
X232053268Y-104800000D03*
%TO.P,R3,2*%
%TO.N,Net-(J1-Pad2)*%
X232053268Y-120000000D03*
%TD*%
%TO.P,R5,1*%
%TO.N,Net-(R5-Pad1)*%
X225553268Y-104900000D03*
%TO.P,R5,2*%
%TO.N,GND*%
X225553268Y-120100000D03*
%TD*%
D12*
%TO.P,U2,1,Vin+*%
%TO.N,12V*%
X247353268Y-93650000D03*
%TO.P,U2,2,Vin-*%
%TO.N,GND*%
X247353268Y-111150000D03*
%TO.P,U2,3,Vout+*%
%TO.N,6V*%
X207353268Y-93650000D03*
%TO.P,U2,4,Vout-*%
%TO.N,GND*%
X207353268Y-111150000D03*
%TD*%
%TO.P,J1,1*%
%TO.N,GND*%
X225553268Y-125000000D03*
%TO.P,J1,2*%
%TO.N,Net-(J1-Pad2)*%
X229053268Y-125000000D03*
%TD*%
D13*
%TO.P,R2,1*%
%TO.N,5V*%
X252553268Y-71660000D03*
%TO.P,R2,2*%
%TO.N,Net-(Q1-Pad3)*%
X252553268Y-56460000D03*
%TD*%
D12*
%TO.P,J5,1*%
%TO.N,D6*%
X209053268Y-125000000D03*
%TO.P,J5,2*%
%TO.N,D9*%
X212553268Y-125000000D03*
%TD*%
%TO.P,J8,1*%
%TO.N,Net-(J1-Pad2)*%
X201453268Y-116400000D03*
%TO.P,J8,2*%
%TO.N,GND*%
X201453268Y-119900000D03*
%TD*%
D14*
%TO.P,U1,3V3_1,3V3*%
%TO.N,3V3*%
X251433268Y-81000000D03*
%TO.P,U1,3V3_2,3V3*%
X251433268Y-78460000D03*
%TO.P,U1,5V_1,5V*%
%TO.N,5V*%
X253973268Y-81000000D03*
%TO.P,U1,5V_2,5V*%
X253973268Y-78460000D03*
%TO.P,U1,A0,A0*%
%TO.N,A0*%
X246353268Y-45440000D03*
%TO.P,U1,A1,A1*%
%TO.N,A1*%
X246353268Y-47980000D03*
%TO.P,U1,A2,A2*%
%TO.N,A2*%
X243813268Y-45440000D03*
%TO.P,U1,A3,A3*%
%TO.N,A3*%
X243813268Y-47980000D03*
%TO.P,U1,A4,A4*%
%TO.N,A4*%
X241273268Y-45440000D03*
%TO.P,U1,A5,A5*%
%TO.N,A5*%
X241273268Y-47980000D03*
%TO.P,U1,A6,A6*%
%TO.N,A6*%
X238733268Y-45440000D03*
%TO.P,U1,A7,A7*%
%TO.N,A7*%
X238733268Y-47980000D03*
%TO.P,U1,A8,A8*%
%TO.N,A8*%
X236193268Y-45440000D03*
%TO.P,U1,A9,A9*%
%TO.N,A9*%
X236193268Y-47980000D03*
%TO.P,U1,A10,A10*%
%TO.N,A10*%
X233653268Y-45440000D03*
%TO.P,U1,A11,A11*%
%TO.N,A11*%
X233653268Y-47980000D03*
%TO.P,U1,A12,A12*%
%TO.N,A12*%
X231113268Y-45440000D03*
%TO.P,U1,A13,A13*%
%TO.N,A13*%
X231113268Y-47980000D03*
%TO.P,U1,A14,A14*%
%TO.N,A14*%
X228573268Y-45440000D03*
%TO.P,U1,A15,A15*%
%TO.N,A15*%
X228573268Y-47980000D03*
%TO.P,U1,AREF,AREF*%
%TO.N,AREF*%
X248893268Y-78460000D03*
%TO.P,U1,D2,D2*%
%TO.N,D2*%
X243813268Y-78460000D03*
%TO.P,U1,D3,D3*%
%TO.N,D3*%
X243813268Y-81000000D03*
%TO.P,U1,D4,D4*%
%TO.N,D4*%
X241273268Y-78460000D03*
%TO.P,U1,D5,D5*%
%TO.N,D5*%
X241273268Y-81000000D03*
%TO.P,U1,D6,D6*%
%TO.N,D6*%
X238733268Y-78460000D03*
%TO.P,U1,D7,D7*%
%TO.N,D7*%
X238733268Y-81000000D03*
%TO.P,U1,D8,D8*%
%TO.N,D8*%
X236193268Y-78460000D03*
%TO.P,U1,D9,D9*%
%TO.N,D9*%
X236193268Y-81000000D03*
%TO.P,U1,D10,D10*%
%TO.N,D10*%
X233653268Y-78460000D03*
%TO.P,U1,D11,D11*%
%TO.N,D11*%
X233653268Y-81000000D03*
%TO.P,U1,D12,D12*%
%TO.N,D12*%
X231113268Y-78460000D03*
%TO.P,U1,D13,D13*%
%TO.N,D13*%
X231113268Y-81000000D03*
%TO.P,U1,D14,D14*%
%TO.N,D14*%
X228573268Y-78460000D03*
%TO.P,U1,D15,D15*%
%TO.N,D15*%
X228573268Y-81000000D03*
%TO.P,U1,D16,D16*%
%TO.N,D16*%
X226033268Y-78460000D03*
%TO.P,U1,D17,D17*%
%TO.N,D17*%
X226033268Y-81000000D03*
%TO.P,U1,D18,D18*%
%TO.N,D18*%
X223493268Y-78460000D03*
%TO.P,U1,D19,D19*%
%TO.N,D19*%
X223493268Y-81000000D03*
%TO.P,U1,D20,D20*%
%TO.N,D20*%
X220953268Y-78460000D03*
%TO.P,U1,D21,D21*%
%TO.N,D21*%
X220953268Y-81000000D03*
%TO.P,U1,D22,D22*%
%TO.N,D22*%
X218413268Y-78460000D03*
%TO.P,U1,D23,D23*%
%TO.N,D23*%
X218413268Y-81000000D03*
%TO.P,U1,D24,D24*%
%TO.N,D24*%
X215873268Y-78460000D03*
%TO.P,U1,D25,D25*%
%TO.N,D25*%
X215873268Y-81000000D03*
%TO.P,U1,D26,D26*%
%TO.N,D26*%
X213333268Y-78460000D03*
%TO.P,U1,D27,D27*%
%TO.N,D27*%
X213333268Y-81000000D03*
%TO.P,U1,D28,D28*%
%TO.N,D28*%
X210793268Y-78460000D03*
%TO.P,U1,D29,D29*%
%TO.N,D29*%
X210793268Y-81000000D03*
%TO.P,U1,D30,D30*%
%TO.N,D30*%
X208253268Y-78460000D03*
%TO.P,U1,D31,D31*%
%TO.N,D31*%
X208253268Y-81000000D03*
%TO.P,U1,D32,D32*%
%TO.N,D32*%
X226033268Y-45440000D03*
%TO.P,U1,D33,D33*%
%TO.N,D33*%
X226033268Y-47980000D03*
%TO.P,U1,D34,D34*%
%TO.N,D34*%
X223493268Y-45440000D03*
%TO.P,U1,D35,D35*%
%TO.N,D35*%
X223493268Y-47980000D03*
%TO.P,U1,D36,D36*%
%TO.N,D36*%
X220953268Y-45440000D03*
%TO.P,U1,D37,D37*%
%TO.N,D37*%
X220953268Y-47980000D03*
%TO.P,U1,D38,D38*%
%TO.N,D38*%
X218413268Y-45440000D03*
%TO.P,U1,D39,D39*%
%TO.N,D39*%
X218413268Y-47980000D03*
%TO.P,U1,D40,D40*%
%TO.N,D40*%
X215873268Y-45440000D03*
%TO.P,U1,D41,D41*%
%TO.N,D41*%
X215873268Y-47980000D03*
%TO.P,U1,D42,D42*%
%TO.N,D42*%
X213333268Y-45440000D03*
%TO.P,U1,D43,D43*%
%TO.N,D43*%
X213333268Y-47980000D03*
%TO.P,U1,D44,D44*%
%TO.N,D44*%
X210793268Y-45440000D03*
%TO.P,U1,D45,D45*%
%TO.N,D45*%
X210793268Y-47980000D03*
%TO.P,U1,D46,D46*%
%TO.N,D46*%
X208253268Y-45440000D03*
%TO.P,U1,D47,D47*%
%TO.N,D47*%
X208253268Y-47980000D03*
%TO.P,U1,D48,D48*%
%TO.N,D48*%
X208253268Y-50520000D03*
%TO.P,U1,D49,D49*%
%TO.N,D49*%
X210793268Y-50520000D03*
%TO.P,U1,D50,D50*%
%TO.N,D50*%
X208253268Y-53060000D03*
%TO.P,U1,D51,D51*%
%TO.N,D51*%
X210793268Y-53060000D03*
%TO.P,U1,D52,D52*%
%TO.N,D52*%
X208253268Y-55600000D03*
%TO.P,U1,D53,D53*%
%TO.N,D53*%
X210793268Y-55600000D03*
%TO.P,U1,GND_1,GND*%
%TO.N,GND*%
X256513268Y-81000000D03*
%TO.P,U1,GND_2,GND*%
X256513268Y-78460000D03*
%TO.P,U1,RST,RST*%
%TO.N,RST*%
X248893268Y-81000000D03*
%TO.P,U1,RX,RX*%
%TO.N,D0*%
X246353268Y-78460000D03*
%TO.P,U1,TX,TX*%
%TO.N,D1*%
X246353268Y-81000000D03*
%TO.P,U1,VIN_1,VIN*%
%TO.N,12V*%
X259053268Y-81000000D03*
%TO.P,U1,VIN_2,VIN*%
X259053268Y-78460000D03*
%TD*%
D13*
%TO.P,R1,1*%
%TO.N,S_BUS*%
X248053268Y-71660000D03*
%TO.P,R1,2*%
%TO.N,Net-(Q1-Pad2)*%
X248053268Y-56460000D03*
%TD*%
%TO.P,R4,1*%
%TO.N,Net-(Q1-Pad3)*%
X204053268Y-65900000D03*
%TO.P,R4,2*%
%TO.N,D19*%
X204053268Y-81100000D03*
%TD*%
D12*
%TO.P,J11,1*%
%TO.N,D49*%
X242553268Y-125000000D03*
%TO.P,J11,2*%
%TO.N,D3*%
X246053268Y-125000000D03*
%TD*%
D10*
%TO.P,J6,01,01*%
%TO.N,S_BUS*%
X204053268Y-62040000D03*
D11*
%TO.P,J6,02,02*%
%TO.N,5V*%
X204053268Y-59500000D03*
%TO.P,J6,03,03*%
%TO.N,GND*%
X204053268Y-56960000D03*
%TD*%
D10*
%TO.P,S4,01,01*%
%TO.N,Net-(R5-Pad1)*%
X195473268Y-105000000D03*
D11*
%TO.P,S4,02,02*%
%TO.N,6V*%
X198013268Y-105000000D03*
%TO.P,S4,03,03*%
%TO.N,D11*%
X200553268Y-105000000D03*
%TD*%
D10*
%TO.P,S2,01,01*%
%TO.N,Net-(R5-Pad1)*%
X195473268Y-93500000D03*
D11*
%TO.P,S2,02,02*%
%TO.N,6V*%
X198013268Y-93500000D03*
%TO.P,S2,03,03*%
%TO.N,D12*%
X200553268Y-93500000D03*
%TD*%
D12*
%TO.P,J4,1*%
%TO.N,GND*%
X216053268Y-125000000D03*
%TO.P,J4,2*%
%TO.N,Net-(J1-Pad2)*%
X219553268Y-125000000D03*
%TD*%
%TO.P,J2,1*%
%TO.N,GND*%
X252953268Y-119900000D03*
%TO.P,J2,2*%
%TO.N,Net-(J1-Pad2)*%
X252953268Y-116400000D03*
%TD*%
%TO.P,J3,1*%
%TO.N,D5*%
X252953268Y-126900000D03*
%TO.P,J3,2*%
%TO.N,D7*%
X252953268Y-123400000D03*
%TD*%
D15*
%TO.P,Q1,1*%
%TO.N,GND*%
X256553268Y-61600000D03*
D16*
%TO.P,Q1,2*%
%TO.N,Net-(Q1-Pad2)*%
X256553268Y-59060000D03*
%TO.P,Q1,3*%
%TO.N,Net-(Q1-Pad3)*%
X256553268Y-56520000D03*
%TD*%
D12*
%TO.P,J9,1*%
%TO.N,D8*%
X201453268Y-123400000D03*
%TO.P,J9,2*%
%TO.N,D2*%
X201453268Y-126900000D03*
%TD*%
D10*
%TO.P,S1,01,01*%
%TO.N,Net-(R5-Pad1)*%
X195473268Y-87500000D03*
D11*
%TO.P,S1,02,02*%
%TO.N,6V*%
X198013268Y-87500000D03*
%TO.P,S1,03,03*%
%TO.N,D10*%
X200553268Y-87500000D03*
%TD*%
D13*
%TO.P,R6,1*%
%TO.N,12V*%
X247253268Y-101500000D03*
%TO.P,R6,2*%
%TO.N,Net-(R3-Pad1)*%
X232053268Y-101500000D03*
%TD*%
M02*
