%TF.GenerationSoftware,KiCad,Pcbnew,8.0.2*%
%TF.CreationDate,2024-12-19T19:30:15-05:00*%
%TF.ProjectId,MachineJDG2025_MEGA2560_Shield_VL_2024_12_19,4d616368-696e-4654-9a44-47323032355f,rev?*%
%TF.SameCoordinates,Original*%
%TF.FileFunction,Legend,Top*%
%TF.FilePolarity,Positive*%
%FSLAX46Y46*%
G04 Gerber Fmt 4.6, Leading zero omitted, Abs format (unit mm)*
G04 Created by KiCad (PCBNEW 8.0.2) date 2024-12-19 19:30:15*
%MOMM*%
%LPD*%
G01*
G04 APERTURE LIST*
%ADD10C,0.250000*%
%ADD11C,0.300000*%
G04 APERTURE END LIST*
D10*
X200619048Y-130949619D02*
X200619048Y-129949619D01*
X200619048Y-129949619D02*
X201000000Y-129949619D01*
X201000000Y-129949619D02*
X201095238Y-129997238D01*
X201095238Y-129997238D02*
X201142857Y-130044857D01*
X201142857Y-130044857D02*
X201190476Y-130140095D01*
X201190476Y-130140095D02*
X201190476Y-130282952D01*
X201190476Y-130282952D02*
X201142857Y-130378190D01*
X201142857Y-130378190D02*
X201095238Y-130425809D01*
X201095238Y-130425809D02*
X201000000Y-130473428D01*
X201000000Y-130473428D02*
X200619048Y-130473428D01*
X201523810Y-129949619D02*
X201761905Y-130949619D01*
X201761905Y-130949619D02*
X201952381Y-130235333D01*
X201952381Y-130235333D02*
X202142857Y-130949619D01*
X202142857Y-130949619D02*
X202380953Y-129949619D01*
X202761905Y-130949619D02*
X202761905Y-129949619D01*
X202761905Y-129949619D02*
X203095238Y-130663904D01*
X203095238Y-130663904D02*
X203428571Y-129949619D01*
X203428571Y-129949619D02*
X203428571Y-130949619D01*
X203857143Y-130044857D02*
X203904762Y-129997238D01*
X203904762Y-129997238D02*
X204000000Y-129949619D01*
X204000000Y-129949619D02*
X204238095Y-129949619D01*
X204238095Y-129949619D02*
X204333333Y-129997238D01*
X204333333Y-129997238D02*
X204380952Y-130044857D01*
X204380952Y-130044857D02*
X204428571Y-130140095D01*
X204428571Y-130140095D02*
X204428571Y-130235333D01*
X204428571Y-130235333D02*
X204380952Y-130378190D01*
X204380952Y-130378190D02*
X203809524Y-130949619D01*
X203809524Y-130949619D02*
X204428571Y-130949619D01*
D11*
X232928571Y-130606900D02*
X234071429Y-130606900D01*
D10*
X205523810Y-130949619D02*
X205523810Y-129949619D01*
X205523810Y-129949619D02*
X205761905Y-129949619D01*
X205761905Y-129949619D02*
X205904762Y-129997238D01*
X205904762Y-129997238D02*
X206000000Y-130092476D01*
X206000000Y-130092476D02*
X206047619Y-130187714D01*
X206047619Y-130187714D02*
X206095238Y-130378190D01*
X206095238Y-130378190D02*
X206095238Y-130521047D01*
X206095238Y-130521047D02*
X206047619Y-130711523D01*
X206047619Y-130711523D02*
X206000000Y-130806761D01*
X206000000Y-130806761D02*
X205904762Y-130902000D01*
X205904762Y-130902000D02*
X205761905Y-130949619D01*
X205761905Y-130949619D02*
X205523810Y-130949619D01*
X206523810Y-130949619D02*
X206523810Y-129949619D01*
X207571428Y-130949619D02*
X207238095Y-130473428D01*
X207000000Y-130949619D02*
X207000000Y-129949619D01*
X207000000Y-129949619D02*
X207380952Y-129949619D01*
X207380952Y-129949619D02*
X207476190Y-129997238D01*
X207476190Y-129997238D02*
X207523809Y-130044857D01*
X207523809Y-130044857D02*
X207571428Y-130140095D01*
X207571428Y-130140095D02*
X207571428Y-130282952D01*
X207571428Y-130282952D02*
X207523809Y-130378190D01*
X207523809Y-130378190D02*
X207476190Y-130425809D01*
X207476190Y-130425809D02*
X207380952Y-130473428D01*
X207380952Y-130473428D02*
X207000000Y-130473428D01*
X207952381Y-130044857D02*
X208000000Y-129997238D01*
X208000000Y-129997238D02*
X208095238Y-129949619D01*
X208095238Y-129949619D02*
X208333333Y-129949619D01*
X208333333Y-129949619D02*
X208428571Y-129997238D01*
X208428571Y-129997238D02*
X208476190Y-130044857D01*
X208476190Y-130044857D02*
X208523809Y-130140095D01*
X208523809Y-130140095D02*
X208523809Y-130235333D01*
X208523809Y-130235333D02*
X208476190Y-130378190D01*
X208476190Y-130378190D02*
X207904762Y-130949619D01*
X207904762Y-130949619D02*
X208523809Y-130949619D01*
D11*
X229428571Y-130606900D02*
X230571429Y-130606900D01*
X230000000Y-131178328D02*
X230000000Y-130035471D01*
D10*
X239619048Y-130949619D02*
X239619048Y-129949619D01*
X239619048Y-129949619D02*
X240000000Y-129949619D01*
X240000000Y-129949619D02*
X240095238Y-129997238D01*
X240095238Y-129997238D02*
X240142857Y-130044857D01*
X240142857Y-130044857D02*
X240190476Y-130140095D01*
X240190476Y-130140095D02*
X240190476Y-130282952D01*
X240190476Y-130282952D02*
X240142857Y-130378190D01*
X240142857Y-130378190D02*
X240095238Y-130425809D01*
X240095238Y-130425809D02*
X240000000Y-130473428D01*
X240000000Y-130473428D02*
X239619048Y-130473428D01*
X240523810Y-129949619D02*
X240761905Y-130949619D01*
X240761905Y-130949619D02*
X240952381Y-130235333D01*
X240952381Y-130235333D02*
X241142857Y-130949619D01*
X241142857Y-130949619D02*
X241380953Y-129949619D01*
X241761905Y-130949619D02*
X241761905Y-129949619D01*
X241761905Y-129949619D02*
X242095238Y-130663904D01*
X242095238Y-130663904D02*
X242428571Y-129949619D01*
X242428571Y-129949619D02*
X242428571Y-130949619D01*
X242809524Y-129949619D02*
X243428571Y-129949619D01*
X243428571Y-129949619D02*
X243095238Y-130330571D01*
X243095238Y-130330571D02*
X243238095Y-130330571D01*
X243238095Y-130330571D02*
X243333333Y-130378190D01*
X243333333Y-130378190D02*
X243380952Y-130425809D01*
X243380952Y-130425809D02*
X243428571Y-130521047D01*
X243428571Y-130521047D02*
X243428571Y-130759142D01*
X243428571Y-130759142D02*
X243380952Y-130854380D01*
X243380952Y-130854380D02*
X243333333Y-130902000D01*
X243333333Y-130902000D02*
X243238095Y-130949619D01*
X243238095Y-130949619D02*
X242952381Y-130949619D01*
X242952381Y-130949619D02*
X242857143Y-130902000D01*
X242857143Y-130902000D02*
X242809524Y-130854380D01*
D11*
X213428571Y-130606900D02*
X214571429Y-130606900D01*
X209928571Y-130606900D02*
X211071429Y-130606900D01*
X210500000Y-131178328D02*
X210500000Y-130035471D01*
D10*
X235523810Y-130949619D02*
X235523810Y-129949619D01*
X235523810Y-129949619D02*
X235761905Y-129949619D01*
X235761905Y-129949619D02*
X235904762Y-129997238D01*
X235904762Y-129997238D02*
X236000000Y-130092476D01*
X236000000Y-130092476D02*
X236047619Y-130187714D01*
X236047619Y-130187714D02*
X236095238Y-130378190D01*
X236095238Y-130378190D02*
X236095238Y-130521047D01*
X236095238Y-130521047D02*
X236047619Y-130711523D01*
X236047619Y-130711523D02*
X236000000Y-130806761D01*
X236000000Y-130806761D02*
X235904762Y-130902000D01*
X235904762Y-130902000D02*
X235761905Y-130949619D01*
X235761905Y-130949619D02*
X235523810Y-130949619D01*
X236523810Y-130949619D02*
X236523810Y-129949619D01*
X237571428Y-130949619D02*
X237238095Y-130473428D01*
X237000000Y-130949619D02*
X237000000Y-129949619D01*
X237000000Y-129949619D02*
X237380952Y-129949619D01*
X237380952Y-129949619D02*
X237476190Y-129997238D01*
X237476190Y-129997238D02*
X237523809Y-130044857D01*
X237523809Y-130044857D02*
X237571428Y-130140095D01*
X237571428Y-130140095D02*
X237571428Y-130282952D01*
X237571428Y-130282952D02*
X237523809Y-130378190D01*
X237523809Y-130378190D02*
X237476190Y-130425809D01*
X237476190Y-130425809D02*
X237380952Y-130473428D01*
X237380952Y-130473428D02*
X237000000Y-130473428D01*
X237904762Y-129949619D02*
X238523809Y-129949619D01*
X238523809Y-129949619D02*
X238190476Y-130330571D01*
X238190476Y-130330571D02*
X238333333Y-130330571D01*
X238333333Y-130330571D02*
X238428571Y-130378190D01*
X238428571Y-130378190D02*
X238476190Y-130425809D01*
X238476190Y-130425809D02*
X238523809Y-130521047D01*
X238523809Y-130521047D02*
X238523809Y-130759142D01*
X238523809Y-130759142D02*
X238476190Y-130854380D01*
X238476190Y-130854380D02*
X238428571Y-130902000D01*
X238428571Y-130902000D02*
X238333333Y-130949619D01*
X238333333Y-130949619D02*
X238047619Y-130949619D01*
X238047619Y-130949619D02*
X237952381Y-130902000D01*
X237952381Y-130902000D02*
X237904762Y-130854380D01*
M02*
