M48
; DRILL file {KiCad 8.0.2} date 2024-12-19T19:30:17-0500
; FORMAT={-:-/ absolute / inch / decimal}
; #@! TF.CreationDate,2024-12-19T19:30:17-05:00
; #@! TF.GenerationSoftware,Kicad,Pcbnew,8.0.2
; #@! TF.FileFunction,Plated,1,2,PTH
FMAT,2
INCH
; #@! TA.AperFunction,Plated,PTH,ComponentDrill
T1C0.0311
; #@! TA.AperFunction,Plated,PTH,ComponentDrill
T2C0.0354
; #@! TA.AperFunction,Plated,PTH,ComponentDrill
T3C0.0394
; #@! TA.AperFunction,Plated,PTH,ComponentDrill
T4C0.0512
%
G90
G05
T1
X10.1005Y-2.2252
X10.1005Y-2.3252
X10.1005Y-2.4252
T2
X8.0336Y-2.5945
X8.0336Y-3.1929
X8.88Y-4.1299
X8.88Y-4.7283
X9.136Y-3.9961
X9.136Y-4.126
X9.136Y-4.7244
X9.7344Y-3.9961
X9.7659Y-2.2228
X9.7659Y-2.8213
X9.943Y-2.2228
X9.943Y-2.8213
T3
X7.6958Y-3.4449
X7.6958Y-3.6811
X7.6958Y-3.9173
X7.6958Y-4.1339
X7.7958Y-3.4449
X7.7958Y-3.6811
X7.7958Y-3.9173
X7.7958Y-4.1339
X7.8958Y-3.4449
X7.8958Y-3.6811
X7.8958Y-3.9173
X7.8958Y-4.1339
X8.0336Y-2.2425
X8.0336Y-2.3425
X8.0336Y-2.4425
X8.1989Y-1.789
X8.1989Y-1.889
X8.1989Y-1.989
X8.1989Y-2.089
X8.1989Y-2.189
X8.1989Y-3.089
X8.1989Y-3.189
X8.2989Y-1.789
X8.2989Y-1.889
X8.2989Y-1.989
X8.2989Y-2.089
X8.2989Y-2.189
X8.2989Y-3.089
X8.2989Y-3.189
X8.3989Y-1.789
X8.3989Y-1.889
X8.3989Y-3.089
X8.3989Y-3.189
X8.4989Y-1.789
X8.4989Y-1.889
X8.4989Y-3.089
X8.4989Y-3.189
X8.5989Y-1.789
X8.5989Y-1.889
X8.5989Y-3.089
X8.5989Y-3.189
X8.6989Y-1.789
X8.6989Y-1.889
X8.6989Y-3.089
X8.6989Y-3.189
X8.7989Y-1.789
X8.7989Y-1.889
X8.7989Y-3.089
X8.7989Y-3.189
X8.8989Y-1.789
X8.8989Y-1.889
X8.8989Y-3.089
X8.8989Y-3.189
X8.9989Y-1.789
X8.9989Y-1.889
X8.9989Y-3.089
X8.9989Y-3.189
X9.0989Y-1.789
X9.0989Y-1.889
X9.0989Y-3.089
X9.0989Y-3.189
X9.1989Y-1.789
X9.1989Y-1.889
X9.1989Y-3.089
X9.1989Y-3.189
X9.2989Y-1.789
X9.2989Y-1.889
X9.2989Y-3.089
X9.2989Y-3.189
X9.3989Y-1.789
X9.3989Y-1.889
X9.3989Y-3.089
X9.3989Y-3.189
X9.4989Y-1.789
X9.4989Y-1.889
X9.4989Y-3.089
X9.4989Y-3.189
X9.5989Y-1.789
X9.5989Y-1.889
X9.5989Y-3.089
X9.5989Y-3.189
X9.6989Y-1.789
X9.6989Y-1.889
X9.6989Y-3.089
X9.6989Y-3.189
X9.7989Y-3.089
X9.7989Y-3.189
X9.8989Y-3.089
X9.8989Y-3.189
X9.9989Y-3.089
X9.9989Y-3.189
X10.0989Y-3.089
X10.0989Y-3.189
X10.1989Y-3.089
X10.1989Y-3.189
T4
X7.9312Y-4.5827
X7.9312Y-4.7205
X7.9312Y-4.8583
X7.9312Y-4.9961
X8.1635Y-3.687
X8.1635Y-4.376
X8.2304Y-4.9213
X8.3682Y-4.9213
X8.506Y-4.9213
X8.6438Y-4.9213
X8.88Y-4.9213
X9.0178Y-4.9213
X9.2738Y-4.9213
X9.4115Y-4.9213
X9.5493Y-4.9213
X9.6871Y-4.9213
X9.7383Y-3.687
X9.7383Y-4.376
X9.9588Y-4.5827
X9.9588Y-4.7205
X9.9588Y-4.8583
X9.9588Y-4.9961
M30
